<svg id="Layer_1" data-name="Layer 1" xmlns="http://www.w3.org/2000/svg" viewBox="0 0 53.39 53.39">
  <defs>
    <style>
      .cls-1 {
        fill: black;
      }
    </style>
  </defs>
  <title>los-angeles</title>
  <path class="cls-1" d="M44.91,44.9A25.76,25.76,0,1,1,8.48,8.48,25.76,25.76,0,1,1,44.91,44.9M26.7,0A26.69,26.69,0,0,0,7.82,45.57,26.7,26.7,0,0,0,45.58,7.82,26.52,26.52,0,0,0,26.7,0"/>
  <path class="cls-1" d="M5.18,17.35A1.57,1.57,0,0,0,7.52,16a2.33,2.33,0,0,0-.05-0.44,1.52,1.52,0,0,0-.12-0.32l-0.51.25a1.66,1.66,0,0,1,.11.31,1.07,1.07,0,0,1,0,.3,1,1,0,0,1-.13.42,1,1,0,0,1-1.77-1,1,1,0,0,1,.21-0.26A1.21,1.21,0,0,1,5.65,15l-0.18-.5a1.62,1.62,0,0,0-.28.13h0l0,0,0,0L5,14.75l0,0-0.09.08h0a1.61,1.61,0,0,0-.23.31,1.59,1.59,0,0,0-.17,1.22,1.56,1.56,0,0,0,.73,1"/>
  <path class="cls-1" d="M6.61,12.79A1,1,0,0,1,8,12.54a1,1,0,0,1,.45.81,1,1,0,0,1-.18.6,1,1,0,0,1-1.41.25,1,1,0,0,1-.44-0.66,1,1,0,0,1,.17-0.75M6.56,14.66a1.55,1.55,0,0,0,1.17.26A1.6,1.6,0,0,0,9,13.07a1.57,1.57,0,0,0-2.84-.6,1.57,1.57,0,0,0-.25,1.18,1.55,1.55,0,0,0,.65,1"/>
  <path class="cls-1" d="M10.56,12a1.09,1.09,0,0,0,.31-0.8,1.23,1.23,0,0,0-.43-0.84L9,9.06,9,9.14l-0.31.34L10,10.66c0.51,0.46.35,0.76,0.19,0.94s-0.44.37-1-.1L7.9,10.32l-0.38.42L8.91,12a1.11,1.11,0,0,0,1.65,0"/>
  <path class="cls-1" d="M11.55,10.8L12,10.44,10.74,9l3,0.32L11.63,6.78l-0.08.07-0.35.29L12.43,8.6l-3-.32Z"/>
  <path class="cls-1" d="M13,6.5l1.37,2.06,0.47-.31L13.47,6.19,14,5.82l-0.3-.44-0.09.06-1.49,1,0.3,0.45L13,6.5"/>
  <path class="cls-1" d="M16.29,7.39l0.5-.26L16.19,6c0-.06.08-2,0.08-2l-0.17.09-0.41.22s0,1,0,1.25l-1.06-.67L14,5.19l1.68,1.06,0.6,1.15"/>
  <path class="cls-1" d="M19.87,3.2a1,1,0,0,1,.76.08A1,1,0,0,1,21,4.69a1,1,0,0,1-.6.48,1,1,0,0,1-1.25-.7,1,1,0,0,1,.68-1.26m0.72,2.49a1.55,1.55,0,0,0,1.07-1.94,1.57,1.57,0,0,0-2.89-.31,1.56,1.56,0,0,0,1.81,2.25"/>
  <path class="cls-1" d="M23,5.07L22.79,3.72l1-.16L23.66,3l-1,.16-0.09-.56,1-.16-0.09-.53L23.41,2,22,2.19l0.48,3Z"/>
  <path class="cls-1" d="M27.48,4.77V4.23H26.63c0-.2,0-2.48,0-2.48H26.06v3h1.41Z"/>
  <path class="cls-1" d="M28.21,3.29A1,1,0,0,1,30,2.74a1,1,0,0,1,.22.77,1,1,0,0,1-1.11.91A1,1,0,0,1,28.43,4a1,1,0,0,1-.22-0.75M29,5a1.55,1.55,0,0,0,1.73-1.39,1.57,1.57,0,0,0-3.13-.33A1.55,1.55,0,0,0,28,4.38,1.57,1.57,0,0,0,29,5"/>
  <path class="cls-1" d="M31.75,5.42a1,1,0,0,0,.77-0.11A1,1,0,0,0,33,4.69a1,1,0,0,0-.52-1.09l-0.18-.12A0.38,0.38,0,0,1,32,3.11,0.24,0.24,0,0,1,32.13,3a0.41,0.41,0,0,1,.3,0,0.37,0.37,0,0,1,.3.29l0,0.1,0.51-.16,0-.1a0.9,0.9,0,0,0-.68-0.65,1,1,0,0,0-.75.11,0.77,0.77,0,0,0-.35.49,0.89,0.89,0,0,0,.47.94L32.1,4a0.5,0.5,0,0,1,.31.51,0.42,0.42,0,0,1-.5.33,0.44,0.44,0,0,1-.28-0.2,0.4,0.4,0,0,1,0-.31l0-.13H31v0.1a1,1,0,0,0,.74,1.08"/>
  <path class="cls-1" d="M36.33,4.8c0,0.26,0,.63,0,0.82l-0.61-.27,0.61-.56m-1,.95,1,0.46c0,0.11,0,.77,0,0.77L36.9,7.23l0-3.61-0.18.16L34.15,6l0.56,0.25,0.57-.51"/>
  <path class="cls-1" d="M38.61,6l0.62,3L41,6.2l-0.48-.3-1,1.62-0.62-3-0.14.23-1.6,2.58,0.48,0.3,1-1.63"/>
  <path class="cls-1" d="M40.61,7.8a1.59,1.59,0,0,0-.36,1.15,1.49,1.49,0,0,0,.52,1,1.42,1.42,0,0,0,1,.34,1.49,1.49,0,0,0,1-.54l0.14-.17-1-.85-0.35.41,0.54,0.45a0.85,0.85,0,0,1-1,0,0.94,0.94,0,0,1-.32-0.65A1.07,1.07,0,0,1,41,8.15a1,1,0,0,1,.7-0.37,1,1,0,0,1,.73.23,1,1,0,0,1,.34.83V9l0.56,0V8.83a1.56,1.56,0,0,0-2.76-1"/>
  <path class="cls-1" d="M44.21,9.09l-2.12,2,1.18,1.25L43.66,12l-0.79-.84,0.61-.58,0.77,0.82L44.64,11l-0.77-.82,0.41-.39,0.79,0.84,0.39-.37L44.29,9Z"/>
  <path class="cls-1" d="M44.49,13.89l0.42-.33-0.52-.67,2-1.52L46,10.92,45.91,11l-2.29,1.78Z"/>
  <path class="cls-1" d="M45.78,15.9l0.46-.28-0.61-1,0.71-.44,0.59,1,0.46-.28-0.59-1,0.48-.3,0.61,1,0.46-.28-0.91-1.46-0.09.06-2.47,1.53Z"/>
  <path class="cls-1" d="M47.61,16.36v0.21a0.5,0.5,0,0,1-.21.56A0.42,0.42,0,0,1,46.85,17a0.44,0.44,0,0,1,0-.34A0.4,0.4,0,0,1,47,16.38l0.12-.06-0.36-.47-0.08.06a1,1,0,0,0-.37,1.25,1,1,0,0,0,1.32.48,1,1,0,0,0,.52-1.1l0-.22a0.38,0.38,0,0,1,.13-0.42,0.25,0.25,0,0,1,.19,0,0.41,0.41,0,0,1,.22.21,0.37,0.37,0,0,1,0,.41l-0.06.09,0.45,0.29,0.06-.09a0.9,0.9,0,0,0,.08-0.94A0.87,0.87,0,0,0,48,15.4a0.89,0.89,0,0,0-.43,1"/>
  <path class="cls-1" d="M34,32.55V20.77H46.2a20.55,20.55,0,0,1,0,11.78H34Zm11.9,0.88H33.59V45.75l-0.49.17V7.27l0.48,0.17V19.89H45.92l0.16,0.49H33.58V32.94H46l-0.17.49m-2.12,2.29h0a0.65,0.65,0,0,1-.06.15,0.05,0.05,0,0,1,0,0,0.23,0.23,0,0,1-.06.08,3.12,3.12,0,0,1-.35.06,3.66,3.66,0,0,0-.83.31,0.5,0.5,0,0,0-.1.09l-0.06,0a0,0,0,0,1,0,0,1.32,1.32,0,0,0-.37.53,4.3,4.3,0,0,0-.21.6c0,0.12,0,.23,0,0.35l0,0.06a1.4,1.4,0,0,1-.07.28l0,0a0.9,0.9,0,0,1-.08.18l0,0v0a0.13,0.13,0,0,1,0,.06h0s0,0,0,0l0,0a0.66,0.66,0,0,1-.37.23c-0.13,0-.2,0-0.24.14l0,0.11a1,1,0,0,1,0,.17,0.24,0.24,0,0,1,0,.07,5.81,5.81,0,0,0-.13.74,1.35,1.35,0,0,0,0,.26c0,0.05,0,.14,0,0.18l0,0.14a2,2,0,0,1,.28.38l0,0.06H40.41l-0.11,0,0,0a0.6,0.6,0,0,1,0-.29,0.27,0.27,0,0,0-.13-0.12l0,0a0.37,0.37,0,0,1,0-.1,1.06,1.06,0,0,1,0-.27c0-.11,0-0.2,0-0.32s0-.06,0-0.08c0-.18,0-0.37,0-0.55a1.65,1.65,0,0,0,0-.17c0-.06,0-0.16,0-0.24s-0.05-.12-0.07-0.18a0.17,0.17,0,0,0,0-.16,0.35,0.35,0,0,0,0,.28,1.56,1.56,0,0,1-.16.93,2.6,2.6,0,0,0-.21.8,0.53,0.53,0,0,0,0,.19,0.28,0.28,0,0,0,.1.18s0,0,0,0a0.35,0.35,0,0,1,.14.21h0l-0.05,0a0.66,0.66,0,0,1-.24,0,0.24,0.24,0,0,1-.21-0.1,1.13,1.13,0,0,0,0-.15,1.09,1.09,0,0,1-.12-0.11,0.91,0.91,0,0,1,0-.42c0-.21.1-0.39,0.14-0.61a0.7,0.7,0,0,0,0-.16c0-.09,0-0.12,0-0.23s0-.34,0-0.51a1.09,1.09,0,0,1,0-.18,0.36,0.36,0,0,1,.17-0.06h0.09l0,0H39.7a1.36,1.36,0,0,0-.54.06l-0.31,0-0.12,0A5.47,5.47,0,0,1,38,39a2.47,2.47,0,0,1-.44,0,1,1,0,0,0-.31,0l0,0-0.08.07L37,39.16l0,0s0,0,0,0a2.07,2.07,0,0,0-.3.14h0a2.43,2.43,0,0,1-.08.32l0,0h0a0.46,0.46,0,0,1-.07-0.18,0.12,0.12,0,0,0,0-.06l0,0a0.31,0.31,0,0,0-.16,0,0,0,0,0,0,0,0,0.78,0.78,0,0,1,0,.18,0.1,0.1,0,0,1,0,0s0,0,0,0a0.46,0.46,0,0,1,0-.15s0-.06.06-0.09,0.13-.26.19-0.39a2.45,2.45,0,0,1,.25-0.35,0.54,0.54,0,0,1,.13-0.14h0a0.27,0.27,0,0,1,.13,0l0.09,0a0.61,0.61,0,0,0,.34.1l0,0a0.61,0.61,0,0,0-.82,0L36.31,39c-0.07.13-.12,0.27-0.2,0.39a0.85,0.85,0,0,0,0,.5,2.74,2.74,0,0,0,0,.36c0,0.13,0,.25.07,0.37a4.16,4.16,0,0,0,.12.45,2.39,2.39,0,0,0,.21.21,0.15,0.15,0,0,1,.06.14,0.41,0.41,0,0,1-.26,0l-0.12,0a0.33,0.33,0,0,1-.13,0,0.36,0.36,0,0,1,0-.18,0.15,0.15,0,0,0-.1-0.06,0.53,0.53,0,0,1-.12-0.33c0-.11,0-0.21-0.07-0.32s-0.08-.19-0.1-0.29a1.51,1.51,0,0,0-.17-0.37,0.3,0.3,0,0,1,0-.17,1.46,1.46,0,0,1,.13-0.31c0-.07,0-0.13.08-0.2a1,1,0,0,1,.05-0.11,1.64,1.64,0,0,0,0-.23,1.41,1.41,0,0,0-.15-0.41c-0.06-.17-0.14-0.32-0.2-0.47s-0.12-.35-0.19-0.52A2.64,2.64,0,0,1,35,37a1.65,1.65,0,0,1,0-.64l0-.09h0s0,0.11-.08.17l0,0a0.21,0.21,0,0,0,0,0h0s0,0,0,0l0,0.06a1.6,1.6,0,0,0,0,.19c0,0.06,0,.14,0,0.19a1.64,1.64,0,0,0,0,.24c0,0.09,0,.17,0,0.26a0.43,0.43,0,0,0,0,.15,0.64,0.64,0,0,0,0,.1c0,0.06,0,.12.06,0.18s0,0.26.05,0.39a0.76,0.76,0,0,1,0,.2,3.78,3.78,0,0,1,0,.43l0,0a0.92,0.92,0,0,0,0,.12l0,0a0.56,0.56,0,0,0,0,.09v0a1,1,0,0,0-.05.26,2,2,0,0,0,0,.26,0.18,0.18,0,0,0,0,.05v0a0.83,0.83,0,0,0,0,.15,0.33,0.33,0,0,0,0,.07l0.05,0.13h0s0,0,0,0h0v0.17c0,0.12,0,.18,0,0.22h0a0.54,0.54,0,0,0,0,.12l0,0s0,0,0,.07h0a1,1,0,0,1,0-.16s0-.08,0-0.11l0,0a0.67,0.67,0,0,1,0,.08s0,0,0,0h0a0.18,0.18,0,0,1,0,0h0a0.18,0.18,0,0,0,0,.1l0,0h0v0s0,0,0,0a0.49,0.49,0,0,0,0-.1h0a0.34,0.34,0,0,1,0,0H34.63l0,0,0-.09-0.05,0a2.25,2.25,0,0,0,0-.4,1.54,1.54,0,0,1-.05-0.24,1.6,1.6,0,0,1,0-.27,1.4,1.4,0,0,1,0-.27,0.46,0.46,0,0,1,0-.12c0-.21.07-0.42,0.09-0.66a3.29,3.29,0,0,0,0-.56s0-.1,0-0.13a2.25,2.25,0,0,1,0-.27,0.22,0.22,0,0,1,0-.08s0-.49,0-0.49,0.08-.5.09-0.54a0.21,0.21,0,0,1,0-.07,0.68,0.68,0,0,1,.37-0.34,1,1,0,0,1,.22-0.06,3.25,3.25,0,0,1,1-.08h0.14l0.42,0,0.09,0c0.3,0,.64.06,1,0.06a7.28,7.28,0,0,0,.95,0l0.23,0,0.57-.06,0.19,0a3.74,3.74,0,0,1,.54,0,1.62,1.62,0,0,0,.32,0,1.7,1.7,0,0,0,.37-0.12l0.14,0,0.22-.11,0.07,0c0.1,0,.19-0.1.3-0.13v0a0.66,0.66,0,0,0-.21,0c-0.06,0-.12,0-0.16,0s0,0,0,0l0-.05a0.53,0.53,0,0,1,.42-0.1,0.64,0.64,0,0,0,.19.06s0,0,0,0A0.36,0.36,0,0,0,42,35,0.15,0.15,0,0,1,42,35a0.08,0.08,0,0,1,0,0,0.09,0.09,0,0,1,0,0,0.44,0.44,0,0,1,.21-0.41c0.06-.06.22-0.16,0.13,0a0.43,0.43,0,0,0-.08.31,0.15,0.15,0,0,0,.17.11,0,0,0,0,0,0,0,0.38,0.38,0,0,0,0-.08,1,1,0,0,1,.07-0.18,1.25,1.25,0,0,1,.22-0.23l0.1-.11s0,0,0,0a0.08,0.08,0,0,1,0,.07,0.42,0.42,0,0,1-.17.33,0,0,0,0,1,0,0h0s0,0.1,0,.14-0.06,0-.06.06a0.1,0.1,0,0,1,0,0,0.09,0.09,0,0,1,0,0c0.06,0,.14,0,0.22,0a0.8,0.8,0,0,1,.35.33,0.28,0.28,0,0,0,.18.18,1.33,1.33,0,0,0,.2.07,1.05,1.05,0,0,1,.19,0v0h0a0.26,0.26,0,0,1,0,.13m-8.41,2.52a0.06,0.06,0,0,1,0,0,0.43,0.43,0,0,1,.05.12s0.06,0.1.07,0.15a1.56,1.56,0,0,1,.07.2l0,0.1a0.51,0.51,0,0,1-.08.27s0,0,0,0a1,1,0,0,1-.14-0.37,0.18,0.18,0,0,0,0-.08h0a1,1,0,0,1,0-.46m-0.36,2h0v0Zm0,0a1,1,0,0,1,0-.72A1,1,0,0,0,35,39.06,6.25,6.25,0,0,0,35,38.43,3.56,3.56,0,0,0,35,37.95a2.16,2.16,0,0,1-.11-0.49,1.51,1.51,0,0,1,.06-0.9h0l0,0a2.69,2.69,0,0,0,.08.8,2.85,2.85,0,0,0,.14.4c0,0.07.21,0.26,0.09,0.31a2.51,2.51,0,0,0,0,.71,0.37,0.37,0,0,1-.06.12,0.55,0.55,0,0,0-.09.16h0a2.43,2.43,0,0,0-.09.63v0.06a1.08,1.08,0,0,1-.07.42m0.32-.72a2.31,2.31,0,0,0-.09.61c0,0.12.08,0.53-.09,0.48V40.41c0-.11,0-0.17,0-0.2a1.18,1.18,0,0,0,.08-0.47V39.69a2.28,2.28,0,0,1,.09-0.6l-0.06,0,0.06,0A0.49,0.49,0,0,1,35.28,39l0,0a0.65,0.65,0,0,1,.09.16,0.72,0.72,0,0,1-.14.36M35.05,41l0,0h0a0.08,0.08,0,0,0,0,0v0H35.05m-0.23,0s0-.07,0-0.09h0a0.3,0.3,0,0,1,.05.12h0l-0.06,0m0.41,0.5-0.17,0H35a0.32,0.32,0,0,1-.14-0.1s0-.08,0-0.12l0-.06h0a0.11,0.11,0,0,1,0,0H34.8l0.06,0H35v0s0,0,0,0l0,0h0.05l0.08,0V41.11h0v0.05h0l0,0c0.07,0.09.27,0.3,0,.29M32.71,26.77l-1.26-.64-1.5.73c0-.17,0-0.32,0-0.46,0-.35,0-0.62,0-0.84l0,0h0a2.58,2.58,0,0,0,.8.12,0.81,0.81,0,0,0,.31-0.26h0.15a1,1,0,0,0,.38-0.31l0,0V24.88c0.21,0,.23,0,0.25-0.09L32,24.73a0.33,0.33,0,0,0,.17-0.23A1.72,1.72,0,0,0,32,24.08a0.53,0.53,0,0,0,.27-0.28,0.34,0.34,0,0,0,0-.34,0.36,0.36,0,0,0-.37,0l-0.22.06a0.56,0.56,0,0,0,0-.09v0h0a0.76,0.76,0,0,0-.3-0.56C31.18,22.51,31,22.12,31,22s0-1.37,0-1.77c0-.18,0-0.41,0-0.66s-0.06-.7-0.06-1a2.21,2.21,0,0,0-.4-1.24h0l0,0h0l0,0,0,0,0,0,0,0,0-.05v0l0-.08h0a0.79,0.79,0,0,0,.1-0.36,0.68,0.68,0,0,0,0-.15h0A1.32,1.32,0,0,0,30.4,16l-0.09-.08,0,0A1.71,1.71,0,0,1,30,15.6l0.13,0,0.25,0a1.43,1.43,0,0,1,.33.05l0,0h0l0,0L31,15.94a1.75,1.75,0,0,1,.2.25l0.06,0.1,0.08-.08,0,0h0a0.91,0.91,0,0,0,.13-0.46,0.68,0.68,0,0,0-.07-0.31h0A1.3,1.3,0,0,0,31,15l-0.11-.06-0.12-.08a1.41,1.41,0,0,1-.22-0.18H30.7l0.25,0h0a1.32,1.32,0,0,1,.32,0,1.44,1.44,0,0,1,.56.34l0,0,0.05,0.05h0L32,15h0l0,0V14.8a0.9,0.9,0,0,0,0-.17,0.75,0.75,0,0,0-.17-0.49h0a1.38,1.38,0,0,0-.63-0.3l0,0a1.67,1.67,0,0,1-.35-0.15l0.14,0h0l0.23-.09a1.33,1.33,0,0,1,.33-0.11H31.9l0.06,0h0l0.08,0h0l0.09,0,0.1,0.06,0-.11a0.24,0.24,0,0,0,0,0h0a0.26,0.26,0,0,0,0,0,0.67,0.67,0,0,0,0-.08A0.8,0.8,0,0,0,32,12.82H31.93l-0.07,0-0.09,0h0l-0.16,0H31.26a1.77,1.77,0,0,1-.39-0.06L31,12.56a1.52,1.52,0,0,0,.2-0.14h0a1.44,1.44,0,0,1,.28-0.19h0a1.53,1.53,0,0,1,.65,0l0.11,0h0V12.18a0.83,0.83,0,0,0-.48-0.67h0a1.08,1.08,0,0,0-.26,0H31.3l-0.22,0h0a1.73,1.73,0,0,1-.4,0l0.12-.09a1.82,1.82,0,0,0,.16-0.19,2.36,2.36,0,0,1,.18-0.21h0l0,0,0,0h0.71l0-.11a0.83,0.83,0,0,0-.62-0.53h0a1.39,1.39,0,0,0-.67.2h0a1.76,1.76,0,0,1-.38.13l0.09-.11a1.7,1.7,0,0,0,.11-0.22,1.41,1.41,0,0,1,.16-0.3A1.32,1.32,0,0,1,31,9.77l0.1,0,0.11,0-0.05-.1a0.57,0.57,0,0,0-.15-0.16l0,0,0,0-0.08,0h0l-0.08,0h0l-0.07,0H30.45a1.37,1.37,0,0,0-.6.36l0,0a1.73,1.73,0,0,1-.32.21,0.86,0.86,0,0,0,.06-0.13h0a1.73,1.73,0,0,0,.06-0.24,1.44,1.44,0,0,1,.08-0.32,1.43,1.43,0,0,1,.5-0.4h0l0.1-.05-0.07-.09a0.6,0.6,0,0,0-.15-0.11l0,0h0a0.77,0.77,0,0,0-.59,0h0a1.4,1.4,0,0,0-.5.49v0a1.71,1.71,0,0,1-.27.29,1.07,1.07,0,0,0,0-.14,1.7,1.7,0,0,0,0-.25c0-.05,0-0.11,0-0.16v0s0-.06,0-0.08h0a0.33,0.33,0,0,1,0-.06,0.75,0.75,0,0,1,.11-0.2A1.84,1.84,0,0,1,29.06,8l0.09-.08-0.09-.07,0,0H28.46l-0.06,0-0.06,0-0.07,0,0,0h0a1.34,1.34,0,0,0-.32.48l0,0.12v0a1.68,1.68,0,0,1-.19.35,0.89,0.89,0,0,0,0-.14h0a1.64,1.64,0,0,0-.06-0.23h0c0-.07-0.05-0.16-0.07-0.23v0a0.19,0.19,0,0,1,0,0v0h0a1.49,1.49,0,0,1,.26-0.59l0.07-.1-0.07,0H27.33a0.77,0.77,0,0,0-.22.09h0L27,7.53l0,0,0,0h0a1.31,1.31,0,0,0-.19.54s0,0.08,0,.13v0a1.79,1.79,0,0,1-.1.39,1.11,1.11,0,0,0,0-.13h0a1.88,1.88,0,0,0-.12-0.22l-0.11-.2a0.41,0.41,0,0,1,0-.1,0.35,0.35,0,0,1,0-.08v0a1,1,0,0,1,0-.1v0l0-.11v0l0-.13v0l0-.14,0-.11-0.11,0H26.21l-0.09,0h0L26,7.33,26,7.35l0,0-0.07,0h0l-0.09.07h0l-0.08.09h0l-0.07.1h0V8s0,0.09,0,.14v0s0,0,0,.05a1.92,1.92,0,0,0,0,.21h0V8.47s0,0.1,0,.15,0,0.09,0,.14V8.81L25.5,8.69h0a1.61,1.61,0,0,0-.17-0.18l-0.07-.06h0a0.9,0.9,0,0,1-.15-0.17A1.28,1.28,0,0,1,25,7.74s0-.09,0-0.14V7.49H25a0.83,0.83,0,0,0-.59.57h0a1.27,1.27,0,0,0,.06.5v0l0.06,0.16,0,0.06a1.64,1.64,0,0,1,.08.36l-0.1-.1h0l-0.2-.13h0l-0.19-.12L24,8.75a0.78,0.78,0,0,1-.11-0.22,1.88,1.88,0,0,1-.07-0.26s0-.1,0-0.14V8h0L23.72,8l-0.05,0-0.07,0,0,0h0a0.82,0.82,0,0,0-.33.62h0a1.3,1.3,0,0,0,.22.53l0.07,0.1,0,0a1.77,1.77,0,0,1,.17.35L23.59,9.7h0l-0.23-.08h0l-0.08,0A1,1,0,0,1,23,9.5,1.39,1.39,0,0,1,22.7,9l0,0,0-.11-0.1.06,0,0h0l0,0,0,0,0,0.05v0l0,0.08h0a0.8,0.8,0,0,0-.08.34,0.66,0.66,0,0,0,0,.17h0a1.4,1.4,0,0,0,.44.54l0,0a1.73,1.73,0,0,1,.24.28l-0.14,0h0l-0.25,0h0l-0.26,0h0A1.42,1.42,0,0,1,21.82,10l-0.07-.1L21.67,10l0,0h0a0.81,0.81,0,0,0-.07.15h0a0.89,0.89,0,0,0,0,.28,0.69,0.69,0,0,0,.08.34h0a1.42,1.42,0,0,0,.56.42h0a1.68,1.68,0,0,1,.33.23H22.38l-0.24,0h0a1.59,1.59,0,0,1-.31,0h0a1.44,1.44,0,0,1-.57-0.32h0l-0.08-.07-0.06.1,0,0v0.19s0,0,0,.05v0.07a0.74,0.74,0,0,0,0,.09v0a0.79,0.79,0,0,0,0,.11h0a0.67,0.67,0,0,0,.14.23h0a1.4,1.4,0,0,0,.64.27h0a1.71,1.71,0,0,1,.36.14l-0.14,0h0l-0.22.09h0l-0.15.07h0l-0.13,0a1.18,1.18,0,0,1-.43-0.09h0l-0.05,0h0l-0.09,0-0.1-.05,0,0.11a0.83,0.83,0,0,0,.33.75h0.06l0.06,0,0.09,0h0l0.14,0h0.35a1.75,1.75,0,0,1,.4,0l-0.13.06h0l-0.2.15a1.45,1.45,0,0,1-.28.2,1.52,1.52,0,0,1-.62,0H21l-0.07,0h0v0.11h0v0a0.44,0.44,0,0,0,0,.1,0.81,0.81,0,0,0,.48.53h0.24l0.22,0h0l0.24-.06,0.13,0a1.4,1.4,0,0,1,.3,0l-0.12.1h0a1.67,1.67,0,0,0-.16.19,1.42,1.42,0,0,1-.22.26l0,0a1.55,1.55,0,0,1-.61.13H21.3l0,0.11a0.83,0.83,0,0,0,.64.51h0a1.38,1.38,0,0,0,.66-0.23l0,0A1.69,1.69,0,0,1,23,15.52L23,15.63h0a1.74,1.74,0,0,0-.1.23l-0.09.2a0.51,0.51,0,0,1-.06.1l0,0a1.61,1.61,0,0,1-.55.25l-0.11,0,0,0.08v0h0a0.62,0.62,0,0,0,.14.14l0.06,0h0l0.08,0h0l0.08,0h0l0.07,0h0.25a1.38,1.38,0,0,0,.59-0.38l0,0,0.18-.14,0,0.1a2.1,2.1,0,0,0-.4.41,1.25,1.25,0,0,0-.35.37l0,0.06a2.19,2.19,0,0,0-.4,1.24c0,0.34,0,.72-0.06,1s0,0.47,0,.66,0,1,0,1.45c0,0.15,0,.26,0,0.32l-0.34.71a0.84,0.84,0,0,0-.41.65h0v0a0.6,0.6,0,0,0,0,.08l-0.18-.06a0.36,0.36,0,0,0-.37,0,0.34,0.34,0,0,0,0,.34,0.53,0.53,0,0,0,.27.28,1.75,1.75,0,0,0-.15.42,0.33,0.33,0,0,0,.17.23l0.07,0.06s0,0.07.25,0.09V25l0,0a1,1,0,0,0,.39.31h0.15a0.79,0.79,0,0,0,.31.26,2.57,2.57,0,0,0,.78-0.12h0c0,0.27,0,.67-0.07,1.14L22,26.13l-1.26.65V7.14a20.55,20.55,0,0,1,12,0V26.77Zm0,2.55-1.29-.7-1.38.7c0-.2,0-0.39,0-0.57l1.41-.69,1.28,0.67v0.58ZM30,27.54l1.47-.72,1.26,0.65V28l-1.27-.66-1.4.71,0-.27c0-.1,0-0.18,0-0.27M32.7,44.31a9.28,9.28,0,0,0-1.88-.19,8.91,8.91,0,0,0-.93.12,8,8,0,0,1-1.13.13,6.24,6.24,0,0,1-1-.12,6.8,6.8,0,0,0-1.09-.13,6.79,6.79,0,0,0-1.08.13,6.25,6.25,0,0,1-1,.12,8,8,0,0,1-1.13-.13,8.86,8.86,0,0,0-.93-0.12,8.68,8.68,0,0,0-1.87.22V43.76a9.19,9.19,0,0,1,1.9-.2,9.23,9.23,0,0,1,1,.12,7.79,7.79,0,0,0,1,.12,5.92,5.92,0,0,0,.89-0.11,7.29,7.29,0,0,1,1.18-.13,7.29,7.29,0,0,1,1.18.13,5.91,5.91,0,0,0,.89.11,7.76,7.76,0,0,0,1-.12,9.28,9.28,0,0,1,1-.12,9.21,9.21,0,0,1,1.9.2v0.54Zm0,0.65a8.77,8.77,0,0,0-1.88-.22,9.1,9.1,0,0,0-.95.12,7.9,7.9,0,0,1-1.11.13,6.15,6.15,0,0,1-1-.11,6.91,6.91,0,0,0-1.11-.13,6.9,6.9,0,0,0-1.11.13,6.15,6.15,0,0,1-1,.11,7.89,7.89,0,0,1-1.11-.12,9.07,9.07,0,0,0-.94-0.12,8.9,8.9,0,0,0-1.88.21V44.7a9,9,0,0,1,1.89-.21,9.64,9.64,0,0,1,1,.12,7.68,7.68,0,0,0,1.07.12,6,6,0,0,0,.91-0.11,7.16,7.16,0,0,1,1.15-.13,7.16,7.16,0,0,1,1.15.13,6,6,0,0,0,.91.11,7.7,7.7,0,0,0,1.07-.12,9.63,9.63,0,0,1,1-.12,9.07,9.07,0,0,1,1.89.21V45Zm0,0.88a8.92,8.92,0,0,0-1.88-.22,9.21,9.21,0,0,0-.93.12,8.12,8.12,0,0,1-1.13.13,6.25,6.25,0,0,1-1-.12,6.92,6.92,0,0,0-1.09-.13,6.91,6.91,0,0,0-1.08.13,6.26,6.26,0,0,1-1,.12,8.13,8.13,0,0,1-1.13-.13,9.16,9.16,0,0,0-.93-0.12,8.67,8.67,0,0,0-1.87.22V45.26a9.19,9.19,0,0,1,1.9-.2,9.48,9.48,0,0,1,1,.12,7.81,7.81,0,0,0,1,.12,5.92,5.92,0,0,0,.89-0.11,7.3,7.3,0,0,1,1.18-.13,7.3,7.3,0,0,1,1.18.13,5.91,5.91,0,0,0,.89.11,7.78,7.78,0,0,0,1-.12,9.52,9.52,0,0,1,1-.12,9.15,9.15,0,0,1,1.9.2v0.57Zm-1.12.46a7.15,7.15,0,0,0-1-.06,9.07,9.07,0,0,0-.94.12,7.91,7.91,0,0,1-1.11.13,6.16,6.16,0,0,1-1-.11,7,7,0,0,0-1.11-.13,7,7,0,0,0-1.11.13,6.16,6.16,0,0,1-1,.11,7.91,7.91,0,0,1-1.11-.13,9.07,9.07,0,0,0-.95-0.12,6.35,6.35,0,0,0-.84,0L20.9,46.1A8.43,8.43,0,0,1,22.35,46a9.33,9.33,0,0,1,1,.12,7.86,7.86,0,0,0,1.07.12,5.89,5.89,0,0,0,.91-0.11A7.18,7.18,0,0,1,26.45,46a7.18,7.18,0,0,1,1.15.13,5.91,5.91,0,0,0,.91.11,7.86,7.86,0,0,0,1.07-.12,9.37,9.37,0,0,1,1-.12,8.62,8.62,0,0,1,1.62.14l-0.59.16m-4.88.65a20.58,20.58,0,0,1-2.34-.13h0.27a6,6,0,0,0,.89-0.11,7.19,7.19,0,0,1,1.18-.13,7.19,7.19,0,0,1,1.18.13,6,6,0,0,0,.89.11H29a20.5,20.5,0,0,1-2.33.13m-6.39-1-0.49-.17V33.43H19.58V33.35H7.5a20.38,20.38,0,0,0,3.18,5.79,20.12,20.12,0,0,1-3.33-6.2H19.82V20.38H7.31l0.16-.49H19.82V7.43l0.49-.17V45.92Zm-0.88-.31A20.16,20.16,0,0,1,14.8,43.1a20,20,0,0,0,4.63,2.48v0Zm-4.91-7.34H14.46l-0.31,0H13.89a2,2,0,0,1-.31,0l-0.06,0-0.07,0h0a1.47,1.47,0,0,1-.24-0.08s0,0,0,.05l0,0,0.14,0h0.07l0.09,0a0.12,0.12,0,0,1,.05,0,0.55,0.55,0,0,1,.11.13h0v0a0.13,0.13,0,0,1-.06,0h0l-0.17-.05L13,38.4l-0.12,0h0l0,0-0.1,0-0.08,0-0.17-.05-0.11,0-0.17,0-0.12,0-0.17,0a1.08,1.08,0,0,0-.14,0c-0.1,0-.21-0.06-0.31-0.09l-0.37-.12-0.19-.06a3,3,0,0,1-.42-0.15v0c0.15,0,.29,0,0.44,0l0.57,0a0.1,0.1,0,0,0,0-.05,0.29,0.29,0,0,0,0-.07l-0.15,0-0.2,0-0.19,0-0.1,0H10.67l0,0-0.07,0-0.15,0s-0.27-.05-0.29-0.06l0,0.05,0.09,0,0.6,0.12,0.24,0,0.09,0c0.05,0,.06,0,0,0a0.62,0.62,0,0,1-.14,0l-0.27,0-0.15,0c-0.06,0-.14,0-0.2,0a1.21,1.21,0,0,1-.21-0.05A0.58,0.58,0,0,1,10,37.36s0-.05-0.06-0.07v0a0.26,0.26,0,0,1,.15-0.09,1.65,1.65,0,0,0,.15-0.11l0.08,0,0.22-.12c0.08,0,.15-0.09.23-0.13s0.36-.18.56-0.26l0.41-.14c0.11,0,.25-0.07.37-0.11l0.15,0H12.4l0.21-.05a2.48,2.48,0,0,0,.74-0.27,2.13,2.13,0,0,1,.24-0.14l0.17-.06a0.21,0.21,0,0,1,.13,0s0,0,0,0a0.77,0.77,0,0,0-.17.16s0,0,0,.07h0v0a0.47,0.47,0,0,0-.07.06v0h0a0.34,0.34,0,0,0,.15,0,1.52,1.52,0,0,1,.31,0l0.46,0a2.79,2.79,0,0,0,.85,0l0.33-.14A1.22,1.22,0,0,0,16,35.76a1.53,1.53,0,0,1,.56-0.16c0.11,0,.32,0,0.25.1a0.51,0.51,0,0,1-.17.13v0l-0.05,0h0c-0.05,0-.07.06-0.12,0.09v0l-0.07,0v0a0.66,0.66,0,0,1-.15.12,2.51,2.51,0,0,1-.34,0,0.25,0.25,0,0,0-.11,0l0,0,0.49,0.18,0.12,0a0.66,0.66,0,0,0,.15,0,0.8,0.8,0,0,1,.16,0,1,1,0,0,1,.1.1h0l0.06,0a0.57,0.57,0,0,1,.11,0s0.06,0.09.1,0.1,0.14,0,.2,0a0.8,0.8,0,0,0,.09.1,1.06,1.06,0,0,0,.24,0,0.19,0.19,0,0,1,.06.06,0.37,0.37,0,0,0,.29.07h0A0.26,0.26,0,0,0,18,36.72a1,1,0,0,1,.07-0.22c0-.06,0-0.13.06-0.19a1.12,1.12,0,0,1,.58-0.6,0.42,0.42,0,0,1,.23,0c0.06,0,0,.1-0.06.12a1.31,1.31,0,0,0-.46,1,0.24,0.24,0,0,0,.1.21l0,0a0.3,0.3,0,0,1-.07.13,0.84,0.84,0,0,0,0,.31,0.91,0.91,0,0,0,0,.12,1.94,1.94,0,0,0,.12.48,1.08,1.08,0,0,0,.13.2,0.26,0.26,0,0,1,.06.08,0,0,0,0,1,0,0,1,1,0,0,1-.74-0.68A2.88,2.88,0,0,1,18,37.25c0-.06,0-0.1-0.09-0.08a0.14,0.14,0,0,0-.13.07l0,0a0.32,0.32,0,0,1-.24.09s-0.1.09-.13,0.1a0.92,0.92,0,0,1-.23.06,0.45,0.45,0,0,1-.13,0,0.24,0.24,0,0,1-.24.1,1.84,1.84,0,0,0-.26.15,0.73,0.73,0,0,1-.27,0c-0.1,0-.18.06-0.28,0.08a0.49,0.49,0,0,0-.24,0l0,0,0,0,0.06,0h0.09a0.31,0.31,0,0,1,.2,0,1,1,0,0,1,.25.22h0l0,0a0.78,0.78,0,0,0,.06.09,0,0,0,0,1,0,0h0a4.07,4.07,0,0,1-.63-0.1,5.16,5.16,0,0,0-.89-0.12H14.51ZM6.35,26.59a20.43,20.43,0,0,1,.84-5.82H19.43V32.55H7.23a20.4,20.4,0,0,1-.88-6m6-14.39a20.3,20.3,0,0,1,7.12-4.63V19.5H7.61a20.28,20.28,0,0,1,4.69-7.29M23.11,27.93L22,27.37,20.71,28V27.47L22,26.82l1.16,0.55c0,0.18,0,.37,0,0.56m0.65,12.89,0.39-.21,0.1-.06a1.66,1.66,0,0,0,.23-0.18c0.39,0,1.15.06,1.33,0.09h0.09a0.71,0.71,0,0,1-.15.62,4,4,0,0,1-.81.17h0a3.63,3.63,0,0,0-.64.24l-0.15.08a3.71,3.71,0,0,1-.49.23l-0.16,0a7.29,7.29,0,0,1-.72.15c-0.12,0-.13,0-0.16-0.06v0a0.1,0.1,0,0,1,0,0,0.1,0.1,0,0,1,0-.07h0l0.07-.06L23,41.66a0.06,0.06,0,0,0,0-.08,0.07,0.07,0,0,0-.08,0l-0.32.07h0v0h0l0.19-.1,0-.07h0l0.14-.07V41.25h0l0.84-.41m-0.35-4.58a0.67,0.67,0,0,0,.88.5c0.62-.19,1.9-3,2-3.27s0-.15-0.11,0c-1,1.61-1.7,2.9-2.28,2.58a1.15,1.15,0,0,1-.43-1c0-.1,0-0.54,0-0.64,0-.79,0-0.56,0-1.23,0-.19,0-0.38,0-0.58l0-.38c0-.2,0-0.63,0-0.84l0-.43,0,0a0.74,0.74,0,0,0,.33.13,0.68,0.68,0,0,0,.6-0.25,15.94,15.94,0,0,0,2.33-4.2l0.5,0c-0.24.66-.66,1.81-0.85,2.25a17.14,17.14,0,0,1-1.46,2.8,1.8,1.8,0,0,1-.57.48,0.79,0.79,0,0,1-.49,0c-0.15-.08-0.2-0.09-0.13.22a0.61,0.61,0,0,0,.18.27,0.93,0.93,0,0,0,.38.13,0.67,0.67,0,0,0,.6-0.24A15.9,15.9,0,0,0,26.62,29c0.28-.74.72-1.94,0.93-2.55L28,26.37a37.34,37.34,0,0,1-1.44,4.13,17.27,17.27,0,0,1-1.47,2.8,1.82,1.82,0,0,1-.57.48,0.67,0.67,0,0,1-.44,0c-0.05,0-.34-0.27-0.18.22a0.85,0.85,0,0,0,.23.27,0.73,0.73,0,0,0,.33.13,0.67,0.67,0,0,0,.6-0.24,15.88,15.88,0,0,0,1.73-3.38,36.31,36.31,0,0,0,1.48-4.46l0.59-.22a47.29,47.29,0,0,1-2.12,7.75,14.39,14.39,0,0,1-3.43,5.7c0-.05,0-0.49,0-0.58,0.05-.37.06-1.32,0.09-2.69m0-9.58c0-.38,0-0.71.06-1a9.25,9.25,0,0,0,1.06.51l-0.1.1a2,2,0,0,1-.59.4,0.81,0.81,0,0,1-.43,0M25,27.23c-0.33.59-.93,1.32-1.26,1.2a0.8,0.8,0,0,1-.38-0.8c0-.22,0-0.44,0-0.64l0,0a0.88,0.88,0,0,0,.32.13,0.82,0.82,0,0,0,.61-0.21,4.25,4.25,0,0,0,.57-0.59,5.45,5.45,0,0,0,1.5.23A18.81,18.81,0,0,1,24.54,30a1.74,1.74,0,0,1-.64.53,0.61,0.61,0,0,1-.48-0.1h0c0-.36,0-0.75,0-1.14,0-.18,0-0.37,0-0.55a0.44,0.44,0,0,0,.57.33c0.41-.06,1-1.14,1.37-2,0.21-.54-0.06-0.2-0.28.2m2.79,12.9a16.5,16.5,0,0,1-2.54,0A10.94,10.94,0,0,1,23.76,40c1.2-1,2.62-3.86,3.28-5.73A39.35,39.35,0,0,0,29.13,26l0.52-.25c0,0.13,0,.41,0,0.57a59,59,0,0,1-1.57,7.27,30.85,30.85,0,0,1-2.6,6.3,2.38,2.38,0,0,0,.58,0,38.11,38.11,0,0,0,2.28-6c0.46-1.83.71-2.68,1.35-6.22,0,0.18,0,.37,0,0.57a29.69,29.69,0,0,1,0,3.08c0,0.35-.1,1.6-0.09,2.78,0.08,2.49,0,4,.16,5.17a0.94,0.94,0,0,1-.23.57,13.49,13.49,0,0,1-1.76.37m1.51,1.73,0.07,0.08L29.45,42l-0.05.08h0L29.27,42l-0.07-.08a0.09,0.09,0,0,0-.1,0,0.05,0.05,0,0,0,0,.08l0.07,0.08a0.51,0.51,0,0,1,.09.11h0c0,0.05,0,.07,0,0.09a0.16,0.16,0,0,1-.19,0,1.82,1.82,0,0,0-.2-0.31,0.08,0.08,0,0,0-.1,0,0.06,0.06,0,0,0,0,.09,1.84,1.84,0,0,1,.18.28,0.14,0.14,0,0,1-.11,0,0.26,0.26,0,0,1-.25-0.17,0.52,0.52,0,0,0-.05-0.15l0-.09a0.08,0.08,0,0,0-.1,0,0.06,0.06,0,0,0,0,.08l0,0.1a0.41,0.41,0,0,1,0,.12l0,0.07a0.25,0.25,0,0,1-.17.12A0.46,0.46,0,0,1,28,42.34,0.86,0.86,0,0,1,27.84,42l-0.05-.17,0-.11a0.26,0.26,0,0,1,0-.12l0-.07V41.27a0.41,0.41,0,0,0-.05-0.2,1.42,1.42,0,0,1-.12-0.27V40.55a0.41,0.41,0,0,0,0-.1c0.32,0,.64-0.06.76-0.06a1.31,1.31,0,0,0,.26,0h0a0.48,0.48,0,0,1,0,.06h0a0.69,0.69,0,0,0,0,.1,0.23,0.23,0,0,0,.05.16c0.06,0.1.4,0.55,0.46,0.62l0.19,0.17,0.07,0.1,0.07,0.1a0.69,0.69,0,0,1,.09.17,0.25,0.25,0,0,1,0,0v0l0,0-0.07-.08a0.06,0.06,0,0,0-.08,0s0,0,0,.06m-2.75-16.2a10.91,10.91,0,0,0,3.43-.5h0l-0.41.25a6.63,6.63,0,0,1-3,.86,6.6,6.6,0,0,1-3-.86l-0.28-.17-0.05-.07a11.07,11.07,0,0,0,3.35.47m3.83-2.3-0.15-.11-0.07.15-0.06.13-0.3-.14,0-.12L30,23.34l0-.15,0-.12a2.82,2.82,0,0,1,.36.17Zm-2-.59-0.2,0,0,0.15,0,0.12L27.6,23V22.85l0.22,0V22.61l0.52,0.06v0.11ZM29,23.06l0-.14,0-.12,0.41,0.1,0,0.15L29.28,23l0,0.13,0,0.11-0.37-.09,0-.1ZM29,22.89l-0.18,0,0,0.15,0,0.1L28.25,23l0-.12,0.2,0,0-.15V22.69L29,22.77Zm-1.83-.21V22.57l0.58,0v0.11l-0.22,0v0.26l-0.54,0V22.83h0.22V22.68Zm-0.77,0V22.56H27v0.12H26.75v0.23H26.14v-0.1h0.22V22.67Zm-0.73,0V22.59l0.59,0v0.11H26v0.25l-0.57,0V22.85h0.22V22.69ZM25,22.76l0-.11,0.53-.05v0.1H25.25V23L24.79,23l0-.11,0.2,0Zm-0.59.09,0-.11,0.46-.07,0,0.11-0.2,0,0,0.15,0,0.1-0.42.08,0-.11,0.18,0Zm-0.78.3,0,0.14-0.29.1-0.07-.09,0.15-.09-0.09-.12L23.27,23l0.21-.07,0.22-.06,0,0.11-0.19,0Zm-1.06.4-0.12-.1a1.36,1.36,0,0,1,.29-0.21l0.11,0.09-0.14.11,0.12,0.11,0.09,0.08a1.06,1.06,0,0,0-.24.22l-0.11-.08,0.14-.11Zm2.27,0.79v0a0.14,0.14,0,0,0,0-.06,0.3,0.3,0,0,0,.16,0h0a0.06,0.06,0,0,0,0,0,0.06,0.06,0,0,0,.05,0h0a0.06,0.06,0,0,0,.09,0h0a0.07,0.07,0,0,0,.07,0h0a0.28,0.28,0,0,0-.18.1l0,0.07H25a0.05,0.05,0,0,0,0,0,0.05,0.05,0,0,0,0,0l-0.55-.07a0.07,0.07,0,0,0,0-.05,0.06,0.06,0,0,0,.06,0,0.09,0.09,0,0,0,0,0v0l0.09,0a0.3,0.3,0,0,0,.2,0h0v0m1.08,0h0a0.3,0.3,0,0,0-.13.12,0.38,0.38,0,0,0,0,.23l-0.35,0v0a0.22,0.22,0,0,0,0-.1,0.34,0.34,0,0,0,.18,0h0a0,0,0,0,0,0,0l0,0a0.26,0.26,0,0,0,0-.22l0-.07,0.06,0a0.26,0.26,0,0,0,.22,0h0a0.09,0.09,0,0,0,0,.05v0m0.35,0.24a0.06,0.06,0,0,0,0,0,0.06,0.06,0,0,0,0,0,0.07,0.07,0,0,0,0,0,0.18,0.18,0,0,0,.11,0l0,0h0.11a0.05,0.05,0,0,0,0,0,0.06,0.06,0,0,0,0,0,0.05,0.05,0,0,0,0,0,0.07,0.07,0,0,0,.07.06h0a0.29,0.29,0,0,0,.11.13H26a0.28,0.28,0,0,1,0-.06h0l0,0a0.06,0.06,0,0,0,.06-0.07h0m0.74-.1,0-.07h0l0.1-.05,0,0,0,0a0.07,0.07,0,0,0,0,0h0.1l0,0a0.05,0.05,0,0,0,0,0,0.07,0.07,0,0,0,.07.06h0a0.3,0.3,0,0,0,.12.13,0.14,0.14,0,0,0,.11,0h0l-0.54,0v0a0.26,0.26,0,0,0,0-.22m2.38,0,0.06-.06a0.26,0.26,0,0,0,0-.22l0,0a0,0,0,0,0,0,0h0a0.36,0.36,0,0,0-.13,0h0a0.06,0.06,0,0,0,0-.06h0a0.06,0.06,0,0,0,0-.08,0.05,0.05,0,0,0,0,0H29.17l0-.08a0.26,0.26,0,0,0-.19-0.11H28.86v0a0.4,0.4,0,0,0,0,.07l0,0a0.05,0.05,0,0,0,0,0h0l-0.06-.07a0.26,0.26,0,0,0-.22-0.06H28.35v0a0.4,0.4,0,0,0,0,.09,0.05,0.05,0,0,0-.07,0,0.07,0.07,0,0,0-.06,0l0,0,0,0a0.06,0.06,0,0,0,0,0h0a0.06,0.06,0,0,0-.06.06,0.05,0.05,0,0,0,0,0,0.06,0.06,0,0,0,0,0h0l0,0.07a0.26,0.26,0,0,0,0,.22l0,0v0h0a0.3,0.3,0,0,0,.21,0l0.07-.07h0a0.08,0.08,0,0,0,0,0,0.06,0.06,0,0,0,.07,0,0.07,0.07,0,0,0,.06,0h0l0.05,0h0a0.06,0.06,0,0,0,.09,0h0a0.06,0.06,0,0,0,0,0h0.08l0.1-.05h0a0.06,0.06,0,0,0,0,0h0a0.05,0.05,0,0,0,0,0,0.06,0.06,0,0,0,0,0,0.06,0.06,0,0,0,0,0v0a0.07,0.07,0,0,0,0,.07,0.08,0.08,0,0,0,0,0h0l-0.35.05h0s0,0,0,0a0.06,0.06,0,0,0,0,0H28.54l0-.07a0.26,0.26,0,0,0-.2-0.09H28.21v0a0.31,0.31,0,0,0-.05.2,0.12,0.12,0,0,0,0,.06H28s0,0,0,0a0.24,0.24,0,0,0,0-.08,0.07,0.07,0,0,0,0-.06,0.06,0.06,0,0,0,0-.08l0,0a0.07,0.07,0,0,0-.07,0h0l0,0h0l0-.05a0.23,0.23,0,0,0,0-.13,0.24,0.24,0,0,0,0-.2l0,0a0,0,0,0,0,0,0h0a0.36,0.36,0,0,0-.14,0l0-.05h0a0.07,0.07,0,0,0,0-.09h0a0.06,0.06,0,0,0,0-.05h0l0,0a0.06,0.06,0,0,0-.08,0h0a0.06,0.06,0,0,0-.06,0,0.07,0.07,0,0,0-.07,0,0.07,0.07,0,0,0,0,0l0,0a0.06,0.06,0,0,0,0,.05h0a0.06,0.06,0,0,0,0,.09,0,0,0,0,0,0,0h0a0.06,0.06,0,0,0,0,0h0a0.06,0.06,0,0,0-.06.06,0.05,0.05,0,0,0,0,0,0.05,0.05,0,0,0,0,0h0l0,0A0.25,0.25,0,0,0,27,24h0a0.3,0.3,0,0,0,.11-0.14h0a0.07,0.07,0,0,0,.07-0.06,0.05,0.05,0,0,0,0,0,0.06,0.06,0,0,0,0,0,0.06,0.06,0,0,0,0,0v0a0.07,0.07,0,0,0-.05-0.06l0,0a0.06,0.06,0,0,0-.08,0,0.07,0.07,0,0,0-.06,0l0,0,0,0a0.06,0.06,0,0,0,0,0h0a0.06,0.06,0,0,0-.06.06,0.05,0.05,0,0,0,0,0,0.05,0.05,0,0,0,0,0h0l0,0.07a0.36,0.36,0,0,0,0,.1H26.53l-0.05-.06a0.29,0.29,0,0,0-.18-0.07h0a0.07,0.07,0,0,0,0-.09h0a0.06,0.06,0,0,0,0,0h0l0,0a0.07,0.07,0,0,0-.08,0h0a0.06,0.06,0,0,0-.05.06,0.08,0.08,0,0,0-.06,0,0.08,0.08,0,0,0,0,0l0,0a0.06,0.06,0,0,0,0,.06h0a0.06,0.06,0,0,0,0,0l0,0H25.78a0.22,0.22,0,0,0,0-.18l0,0a0,0,0,0,0,0,0h0a0.3,0.3,0,0,0-.21,0,0.3,0.3,0,0,0-.14.12h0a0.07,0.07,0,0,0-.08,0,0.06,0.06,0,0,0,0,0,0.06,0.06,0,0,0,0,0H25.19a0.07,0.07,0,0,0-.05-0.06l0,0a0.06,0.06,0,0,0-.08,0,0.07,0.07,0,0,0-.06,0H24.89a0.06,0.06,0,0,0,0,0h0a0.06,0.06,0,0,0-.06.06,0.05,0.05,0,0,0,0,0,0.06,0.06,0,0,0,0,0h0l0,0.07a0.37,0.37,0,0,0,0,.11l0,0h0a0.06,0.06,0,0,0,0,0,0.05,0.05,0,0,0,0,0,0.06,0.06,0,0,0-.08,0H24.5l0,0h0a0.08,0.08,0,0,0-.05.05,0.05,0.05,0,0,0-.06,0,0.38,0.38,0,0,0-.06-0.08v0H24.17A0.26,0.26,0,0,0,24,24a0.29,0.29,0,0,0,0,.08H23.9a0.06,0.06,0,0,0,0,0l0,0-0.07-.06v0H23.71a0.26,0.26,0,0,0-.15.17,0.33,0.33,0,0,0,0,.07,6.58,6.58,0,0,1-.83-0.25c0.11-.49,1.66-1,3.86-1s3.76,0.52,3.86,1a7.28,7.28,0,0,1-1.19.32l0.11,0h0Zm1.54-.66a0.37,0.37,0,0,1-.1.23l-0.16.08a0.57,0.57,0,0,0-.09-0.17l0.08-.11,0.13,0.13,0.1-.13,0-.07a0.27,0.27,0,0,1,0,0M31.4,25a2.14,2.14,0,0,1-.23.21H31.05l-0.44-.1L30.68,25,31,24.9h0.35V25m0.07-1a1.92,1.92,0,0,0,.09-0.23,2.15,2.15,0,0,0,.37-0.1l0.12,0a0.38,0.38,0,0,1,0,.09,0.63,0.63,0,0,1-.41.24H31.56l-0.09,0m0,0.46a0.19,0.19,0,0,0,.14-0.19V24.21h0.13c0,0.08.1,0.23,0.12,0.3l-0.07.06-0.1.09a3.8,3.8,0,0,1-.55,0H31l0.08-.09a2.3,2.3,0,0,1,.37-0.11m-2.09-4.57a3.88,3.88,0,0,1-.12,1.28,6.62,6.62,0,0,0-.1.66l0,0.17-0.46-.07c0.24-.59.48-1.31,0.69-2m-0.57-.1a0.45,0.45,0,0,1,0,.21,0,0,0,0,0,.07,0,2.44,2.44,0,0,0,.23-0.67c0-.11,0-0.28,0-0.49a0.93,0.93,0,0,1,.22.07,23,23,0,0,1-1,3l-0.43,0c0.32-.7.62-1.43,0.85-2.05m-0.2-.36,0,0c-0.26.7-.62,1.56-1,2.35l-0.66,0a28.18,28.18,0,0,0,1.63-2.36m-0.26-.25,0.07,0.06a26.72,26.72,0,0,1-1.81,2.54h0c-0.39,0-.78,0-1.16,0a27.71,27.71,0,0,0,2.94-2.64M28,18.67a0.83,0.83,0,0,0,.21.35,25.66,25.66,0,0,1-3.39,2.87c-0.3,0-.6.08-0.87,0.13v-0.2c0-.16,0-0.35,0-0.53A25.51,25.51,0,0,0,28,18.67M25.2,14.26s0.08,0.3.09,0.32a1.2,1.2,0,0,0,.17.28,0.33,0.33,0,0,1-.18.06A0.29,0.29,0,0,1,25,14.6a0.35,0.35,0,0,1,.21-0.34m3-2.43a3.11,3.11,0,0,0-.41-0.27h0l0,0h0l0,0H27.54l0,0H27.44l0,0-0.06,0H27.3l-0.07,0h0l0,0H27l0,0H26.87l-0.06,0H26.71a0.38,0.38,0,0,0-.1,0l-0.1,0H26.4l-0.06,0H26.23l0,0H26.08l-0.05,0h0l-0.07,0H25.85l-0.06,0,0,0H25.7l0,0H25.61l0,0h0l0,0h0a3.21,3.21,0,0,0-.41.27,0.41,0.41,0,0,1,0-.19,0.82,0.82,0,0,1,.35-0.47,0.18,0.18,0,0,1,.11-0.1,0.2,0.2,0,0,1,.14,0,0.24,0.24,0,0,1,.16-0.11A0.24,0.24,0,0,1,26,11a0.2,0.2,0,0,1,.17-0.1,0.21,0.21,0,0,1,.19.06,0.4,0.4,0,0,1,.45,0A0.21,0.21,0,0,1,27,10.86a0.2,0.2,0,0,1,.17.1,0.24,0.24,0,0,1,.16,0,0.25,0.25,0,0,1,.17.11,0.2,0.2,0,0,1,.14,0,0.18,0.18,0,0,1,.11.1,0.82,0.82,0,0,1,.35.47,0.4,0.4,0,0,1,0,.19m-0.28,3.09a0.33,0.33,0,0,1-.18-0.06,1.16,1.16,0,0,0,.17-0.28s0.09-.32.09-0.32a0.35,0.35,0,0,1,.21.34,0.29,0.29,0,0,1-.29.32m0.31,1.43-0.06,0h0l-0.06,0,0.06-.15,0.06,0,0,0.08ZM28,16.64l0.16-.06,0.08,0h0v0a0.74,0.74,0,0,1,0,.13,6.26,6.26,0,0,0-.26.85l-0.47.26c0.19-.42.38-0.9,0.51-1.25m-2.48.11,0.34,0.08a0.35,0.35,0,0,0,.21.07l0.12,0h0.08a0.33,0.33,0,0,0,.65,0H27l0.12,0a0.35,0.35,0,0,0,.21-0.07l0.31-.08c-0.16.42-.37,0.94-0.57,1.34l-0.81.39a14.3,14.3,0,0,1-.76-1.74M25.36,17.9c0-.25,0-0.46,0-0.68A12.1,12.1,0,0,0,26,18.61L25.16,19a0.92,0.92,0,0,1,0-.15,2.85,2.85,0,0,0,.25-0.93m0.21-2.23a0.19,0.19,0,1,1-.19-0.19,0.19,0.19,0,0,1,.19.19m2.19,0.19A0.19,0.19,0,1,1,28,15.67a0.19,0.19,0,0,1-.19.19m-2.07.75-0.28-.08-0.09-.24h0a0.33,0.33,0,0,0,.29.18H25.7a0.38,0.38,0,0,0,0,.09,0.33,0.33,0,0,0,0,.06m1.51-.41h-0.1a0.36,0.36,0,0,0-.33.23,0.31,0.31,0,0,0-.4,0A0.36,0.36,0,0,0,26,16.19h-0.1a0.35,0.35,0,0,0,0-.07,0.33,0.33,0,0,0-.28-0.33,0.33,0.33,0,0,0,0-.15,0.33,0.33,0,0,0-.15-0.28L25.62,15a2.06,2.06,0,0,0,.5.33,1.92,1.92,0,0,0,.91,0,1.87,1.87,0,0,0,.5-0.38l0.07,0.41a0.33,0.33,0,0,0-.15.28,0.34,0.34,0,0,0,0,.15,0.33,0.33,0,0,0-.28.33,0.28,0.28,0,0,0,0,.07m0.24,0.25h0.07a0.32,0.32,0,0,0,.28-0.17l-0.09.23-0.26.08a0.43,0.43,0,0,0,0-.06,0.34,0.34,0,0,0,0-.09m0.36-4.64a0.37,0.37,0,0,1,.15.11,3.15,3.15,0,0,1,.15.49H28l0,0a3.41,3.41,0,0,0-.17-0.55m-1.7-.26,0.18,0a3.58,3.58,0,0,0-.22.74l-0.16,0a4.31,4.31,0,0,1,.2-0.68m-0.44.67h0l-0.12,0a3.15,3.15,0,0,1,.23-0.59l0.17,0a2.4,2.4,0,0,0-.25.61m-0.53.05a4,4,0,0,1,.15-0.4,0.19,0.19,0,0,1,.12,0,3.91,3.91,0,0,0-.18.46c0,0.06-.07,0-0.08.08V12.28Zm0,0.76a1.14,1.14,0,0,0,0-.35,0.37,0.37,0,0,1,.08-0.24,0.34,0.34,0,0,1,.3-0.12,0.56,0.56,0,0,1,.33.09,0.15,0.15,0,0,1,.1.16,1.15,1.15,0,0,0-.33,0l-0.22.06s0,0,0,.06a0.14,0.14,0,0,0,.12,0l0.19,0a0.13,0.13,0,0,0,0,0,0.13,0.13,0,1,0,.25,0,0.14,0.14,0,0,0,0,0l0.08,0a0.15,0.15,0,0,1,.06.07,0,0,0,0,0,0,0s0,0.06,0,0a0.39,0.39,0,0,0,.12-0.19s0-.07,0-0.06a0.16,0.16,0,0,1-.11,0,0.06,0.06,0,0,1,0-.07,0.18,0.18,0,0,0,.11,0s0.09-.06.07-0.12a0.11,0.11,0,0,0-.1-0.06,0.21,0.21,0,0,1-.14,0v0a4.18,4.18,0,0,1,.46,0h0.13a4,4,0,0,0,0-.73v0l0.14,0a3.08,3.08,0,0,1,.06.75l0.18,0a0.22,0.22,0,0,1-.14,0,0.11,0.11,0,0,0-.1.06c0,0.06,0,.08.07,0.12a0.19,0.19,0,0,0,.11,0,0.06,0.06,0,0,1,0,.07,0.16,0.16,0,0,1-.11,0s-0.05,0,0,.06a0.39,0.39,0,0,0,.12.19s0,0,0,0a0,0,0,0,0,0,0,0.15,0.15,0,0,1,.06-0.07l0.08,0a0.09,0.09,0,0,0,0,0,0.12,0.12,0,0,0,.13.13h0a0.12,0.12,0,0,0,.13-0.13,0.13,0.13,0,0,0,0,0l0.19,0a0.14,0.14,0,0,0,.12,0s0,0,0-.06l-0.22-.06a1.15,1.15,0,0,0-.33,0,0.15,0.15,0,0,1,.1-0.16,0.56,0.56,0,0,1,.33-0.09,0.34,0.34,0,0,1,.3.12,0.37,0.37,0,0,1,.08.24A1.18,1.18,0,0,0,28,13a1.18,1.18,0,0,1,0,.4,0.77,0.77,0,0,1-.07.34,6.35,6.35,0,0,1-.34.89,1.63,1.63,0,0,1-.63.5,1.7,1.7,0,0,1-.83,0,1.63,1.63,0,0,1-.63-0.5,6.23,6.23,0,0,1-.34-0.89,0.77,0.77,0,0,1-.07-0.34,1.21,1.21,0,0,1,0-.4m-0.43,6.52a0.68,0.68,0,0,0,.23.28c0.21,0.09.21,0,.15-0.08a0.39,0.39,0,0,1,0-.34A29.43,29.43,0,0,0,27.91,18c0,0.09,0,.18,0,0.27a23.52,23.52,0,0,1-4.11,2.56,1.58,1.58,0,0,1,.21-1l0.73-.27m-0.35-.92a2.83,2.83,0,0,0,.18.57l-0.37.13a0.57,0.57,0,0,0,0-.14,0.9,0.9,0,0,1,.18-0.56m5.7-1.71,0-.12a1.74,1.74,0,0,1,.16.31,1.35,1.35,0,0,0-.19-0.19m-0.54-.12,0.09-.11,0.21,0.15-0.09.46a1.45,1.45,0,0,0-.21-0.51M29.41,17h0l0,0.09L29.41,17m1.29,5.12,0.2,0.42a4.92,4.92,0,0,0-.81-0.31L29.41,22l0-.19c0-.18,0-0.4.09-0.63a3.82,3.82,0,0,0,.08-1.68,2,2,0,0,1,0-.46,0.48,0.48,0,0,0,.36,0c0.15-.07.18-0.1,0.09-0.14a0.55,0.55,0,0,1-.25-0.5,2.16,2.16,0,0,1,0-.3c0.08-.36.15-0.69,0.19-1a0.88,0.88,0,0,1,.13.16l0,0.06a1.93,1.93,0,0,1,.36,1.1c0,0.35,0,.73.07,1.06s0,0.47,0,.64c0,0.42,0,1.64,0,1.79v0.06ZM23.49,15.3H23a1.87,1.87,0,0,0-.49.18,1.26,1.26,0,0,1-.57.21,0.55,0.55,0,0,1-.32-0.15l-0.1-.11a1.53,1.53,0,0,0,.54-0.14l0,0a1.44,1.44,0,0,0,.26-0.3l0.14-.17h0l0.29-.21h0l0.19-.12h0l-0.21,0h0l-0.15,0h0a1.07,1.07,0,0,0-.29,0h0l-0.11,0-0.16,0h0l-0.22.05h0l-0.19,0H21.47a0.55,0.55,0,0,1-.26-0.22l0,0h0l0-.08,0.3,0a1,1,0,0,0,.31,0l0,0,0.13-.08,0.16-.12h0l0.17-.13,0.34-.13h0l0.22-.07h0l-0.19-.09h0l-0.15-.07a1.19,1.19,0,0,0-.38-0.08H21.62l-0.12,0H21.37l-0.11,0a0.56,0.56,0,0,1-.21-0.3V12.82a1.46,1.46,0,0,0,.58.13h0A1.46,1.46,0,0,0,22,12.81l0.2-.09h0l0.36,0h0.22l-0.16-.13h0l-0.13-.1a1,1,0,0,0-.21-0.11l-0.34-.11A1.27,1.27,0,0,1,21.36,12a0.52,0.52,0,0,1-.12-0.24h0a0.82,0.82,0,0,1,0-.12h0s0,0,0-.06v0a1.42,1.42,0,0,0,.55.27h0.08l0.3,0h0l0.22,0,0.36,0h0l0.22,0h0l-0.12-.17h0l-0.1-.13h0a1.68,1.68,0,0,0-.46-0.33h0L22.16,11a1.17,1.17,0,0,1-.38-0.31,0.58,0.58,0,0,1,0-.38,0.81,0.81,0,0,1,0-.1,1.44,1.44,0,0,0,.45.39h0l0.15,0,0.23,0h0l0.22,0h0l0.34,0.13h0l0.21,0.09v0h0l-0.08-.2h0l-0.06-.14-0.07-.12h0a2.22,2.22,0,0,0-.3-0.33h0L22.77,10a1.18,1.18,0,0,1-.3-0.39V9.55a0.56,0.56,0,0,1,0-.18v0l0-.05a0.85,0.85,0,0,1,.07-0.14,1.42,1.42,0,0,0,.36.5l0.14,0.07L23.3,9.8l0.21,0.07h0l0.29,0.2h0L24,10.22v0h0L24,10c0-.06,0-0.12,0-0.16h0a1.65,1.65,0,0,0-.25-0.53h0L23.6,9.2a1.18,1.18,0,0,1-.19-0.45,0.55,0.55,0,0,1,.12-0.32l0.1-.11a1.57,1.57,0,0,0,.19.51l0,0.06L24,9,24.08,9h0l0,0,0,0,0.19,0.12h0L24.6,9.5l0.14,0.18v0h0l0-.21h0c0-.07,0-0.13,0-0.17h0v0s0,0,0-.06V9.13l0-.1V9c0-.09-0.05-0.19-0.08-0.28L24.6,8.54v0a1.22,1.22,0,0,1-.06-0.36,0.52,0.52,0,0,1,0-.06,0.55,0.55,0,0,1,.19-0.29l0.12-.08s0,0,0,.06,0,0,0,0V8.1l0,0.09v0l0,0.1h0a1.39,1.39,0,0,0,.26.3L25.35,8.8h0l0.17,0.32h0l0.09,0.21v0h0l0.07-.19h0v0l0-.1h0a1.12,1.12,0,0,0,0-.31h0v0c0-.08,0-0.15,0-0.23h0V8.21s0-.07,0-0.11h0a1,1,0,0,1,0-.33,0.61,0.61,0,0,1,.4-0.28,1.87,1.87,0,0,0-.07.36,0.91,0.91,0,0,0,0,.11h0a0.65,0.65,0,0,0,0,.13,0.57,0.57,0,0,0,0,.11,2.61,2.61,0,0,0,.14.24L26.4,8.63h0L26.49,9h0l0,0.22L26.65,9h0l0.08-.13h0a1.28,1.28,0,0,0,.13-0.39v0l0-.15s0-.08,0-0.12a1.17,1.17,0,0,1,.16-0.46l0,0,0.06-.05,0.07,0,0,0,0.07,0h0.19a1.42,1.42,0,0,0-.21.56h0a0.3,0.3,0,0,0,0,0s0,0,0,0V8.3l0,0.06,0,0.06,0,0.08,0.06,0.22s0,0.19,0,.34v0l0,0.22,0.17-.15h0l0.11-.1h0a1.21,1.21,0,0,0,.21-0.31L28,8.54A1.25,1.25,0,0,1,28.35,8a0.53,0.53,0,0,1,.3-0.09h0.19a1.47,1.47,0,0,0-.33.47v0a0.43,0.43,0,0,0,0,.07v0s0,0.06,0,.1h0c0,0.06,0,.12,0,0.19V9.06h0l-0.09.34h0l-0.07.21h0l0.18-.09h0l0.11-.06h0a1.17,1.17,0,0,0,.28-0.25L29.08,9h0l0.06-.09a1.19,1.19,0,0,1,.36-0.34,0.65,0.65,0,0,1,.47,0h0a1.49,1.49,0,0,0-.44.38l0,0h0a1.57,1.57,0,0,0-.1.37l0,0.21L29.21,10l-0.12.19h0l0.21-.05,0.16,0h0A1.64,1.64,0,0,0,30,9.75h0l0.09-.08a1.17,1.17,0,0,1,.43-0.24,0.59,0.59,0,0,1,.37.1h0l0.05,0,0,0a1.41,1.41,0,0,0-.54.28,0.7,0.7,0,0,0-.09.14l-0.1.21-0.1.2-0.39.43H30.1a1.63,1.63,0,0,0,.56-0.18,1.27,1.27,0,0,1,.58-0.18,0.55,0.55,0,0,1,.31.16l0.1,0.11a1.42,1.42,0,0,0-.59.14l-0.12.1,0,0,0,0,0,0h0l-0.06.07-0.14.17-0.3.2-0.2.11h0l0.21,0.05h0l0.16,0h0.06a1.8,1.8,0,0,0,.53,0h0l0.19,0h0.2a0.92,0.92,0,0,1,.21,0,0.55,0.55,0,0,1,.27.25v0L32,12l0,0a1.9,1.9,0,0,0-.36,0,0.91,0.91,0,0,0-.25,0,1.14,1.14,0,0,0-.28.17l-0.06,0-0.18.13-0.34.12h0l-0.22.06h0l0.19,0.1,0.15,0.07h0a1.63,1.63,0,0,0,.58.11h0.33a0.94,0.94,0,0,1,.27.09,0.55,0.55,0,0,1,.2.29v0h0a0.8,0.8,0,0,1,0,.09,1.36,1.36,0,0,0-.59-0.15,1.43,1.43,0,0,0-.38.13h0l-0.2.08h0l-0.36,0H30.36l0.16,0.14,0.12,0.1h0a1.17,1.17,0,0,0,.32.17L31.18,14a1.26,1.26,0,0,1,.56.25,0.59,0.59,0,0,1,.12.43v0a1.44,1.44,0,0,0-.54-0.29H31.26a1.79,1.79,0,0,0-.34,0l-0.21,0h0l-0.35-.05h0l-0.22,0h0l0.12,0.17,0.09,0.12h0a1.2,1.2,0,0,0,.29.26L30.8,15.1h0l0.1,0.06a1.15,1.15,0,0,1,.37.32,0.52,0.52,0,0,1,0,.25,4.17,4.17,0,0,1,0,.13l0,0.11A1.86,1.86,0,0,0,31,15.64l-0.14-.09a1.42,1.42,0,0,0-.39-0.07l-0.22,0h0l-0.32-.14h0l-0.2-.1,0.07,0.21,0.05,0.13v0a1.2,1.2,0,0,0,.21.3l0.15,0.16h0l0.08,0.08a1.16,1.16,0,0,1,.28.4v0.07s0,0,0,.06v0a0.61,0.61,0,0,1,0,.11v0l0,0,0,0.07h0l0,0.06a1.42,1.42,0,0,0-.34-0.51l-0.08,0-0.17-.07,0,0H29.72l-0.2-.08-0.19-.14c-0.07-.14-0.15-0.28-0.19-0.34a2,2,0,0,1-.22-0.67,4.79,4.79,0,0,1,0-.81,3.35,3.35,0,0,0,0-.79,2.91,2.91,0,0,0-.35-1c-0.06-.11-0.07-0.21-0.17-0.41,0,0,0-.15,0-0.34s-0.08-.4-0.08-0.4l-0.05,0a0.35,0.35,0,0,0,0-.09C28,11.06,27.82,11,27.73,10.87a1.36,1.36,0,0,0-.31-0.32A1,1,0,0,0,27,10.39a0.61,0.61,0,0,0-.29,0,0.49,0.49,0,0,1-.17.09,0.76,0.76,0,0,1-.2-0.06,0.82,0.82,0,0,0-.29,0,0.8,0.8,0,0,0-.35.12,1.2,1.2,0,0,0-.28.32,2.49,2.49,0,0,1-.28.28,0.29,0.29,0,0,0,0,.09L25,11.31a3,3,0,0,0-.2.65,0.19,0.19,0,0,0,0,.15,3.1,3.1,0,0,1-.15.48c-0.11.26-.32,0.46-0.38,0.67a3.18,3.18,0,0,0-.15,1,6.23,6.23,0,0,1,0,1.19,2,2,0,0,1-.35.61l0,0a1.31,1.31,0,0,0-.34.21h0l-0.1.08h0l-0.08.08a1.18,1.18,0,0,1-.42.25,0.55,0.55,0,0,1-.35-0.08l-0.11-.08a1.41,1.41,0,0,0,.53-0.3A1.43,1.43,0,0,0,23,15.93h0l0.09-.2,0.23-.27h0l0.16-.16h0Zm-0.43,2.28a0.85,0.85,0,0,0,.51.2v0a3.4,3.4,0,0,1,.17.48,1.08,1.08,0,0,0,0,.62,1.31,1.31,0,0,1,.14.58,1.94,1.94,0,0,0-.37,1.6c0,0.24.05,0.54,0.07,0.77l0,0.24-0.57.15a5.09,5.09,0,0,0-.72.27l0.18-.38V22c0-.15,0-1.37,0-1.79,0-.17,0-0.4,0-0.64s0.06-.71.06-1.06a1.87,1.87,0,0,1,.33-1Zm0.48,0a0.77,0.77,0,0,1-.2,0l0,0a1.92,1.92,0,0,0,.23-0.18,2,2,0,0,0,0,.24m-0.17-.35a1.76,1.76,0,0,1-.29.2l0,0,0-.05A1.19,1.19,0,0,1,23.56,17v0h0a1.07,1.07,0,0,1-.19.2m-1.3,6.56a0.65,0.65,0,0,1-.23-0.28l0-.11c0-.3.5-0.62,1.33-0.86a12.62,12.62,0,0,1,3.43-.42,12.62,12.62,0,0,1,3.43.42c0.82,0.25,1.32.57,1.33,0.86l0,0.11a0.67,0.67,0,0,1-.23.27,0.44,0.44,0,0,0,0-.05c0-.4-0.47-0.75-1.36-1a11.71,11.71,0,0,0-3.15-.38,11.69,11.69,0,0,0-3.14.38c-0.89.26-1.37,0.61-1.37,1a0.44,0.44,0,0,0,0,.05m-0.91-.06a0.32,0.32,0,0,1,0-.09l0.11,0a2,2,0,0,0,.33.09,2.08,2.08,0,0,0,.09.23h-0.1a0.63,0.63,0,0,1-.42-0.24m0.26,0.45h0.13v0.06a0.19,0.19,0,0,0,.14.19L22,24.54l0.1,0.11H22a3.78,3.78,0,0,1-.55,0l-0.1-.09-0.07-.06c0-.07.08-0.22,0.12-0.3m1.5,1.17-0.43.07-0.08-.07,0.39-.08,0.12,0.08m-0.45-.79-0.05-.08-0.1-.07-0.16-.21a10.53,10.53,0,0,0,4.42.78A10.58,10.58,0,0,0,31,24.21a3,3,0,0,1-.28.33,8.72,8.72,0,0,1-4.14.84,8.83,8.83,0,0,1-4.1-.82M20.7,28.73L22,28.07l1.13,0.57v0.08c0,0.17,0,.33,0,0.5L22,28.62l-1.28.69V28.73ZM34,7.58A20.46,20.46,0,0,1,45.78,19.5H34V7.58Zm7.65,4.2A21.09,21.09,0,1,0,47.8,26.7a21,21,0,0,0-6.18-14.92"/>
  <path class="cls-1" d="M42.68,45a2,2,0,0,0-1.63.19,2,2,0,0,0,.36-1.6A2,2,0,0,0,43,43.4a2,2,0,0,0-.36,1.6m0.71-1.92h0a0.06,0.06,0,0,0-.09,0,2,2,0,0,1-1.93.35,0.16,0.16,0,0,0-.26-0.17,0.16,0.16,0,0,0,0,.23,0.15,0.15,0,0,0,.15,0h0a2,2,0,0,1-.55,1.88,0.06,0.06,0,0,0,0,.09h0a0.06,0.06,0,0,0,.09,0,2,2,0,0,1,1.93-.35h0a0.16,0.16,0,0,0,0,.15A0.16,0.16,0,0,0,43,45.1a0.16,0.16,0,0,0-.15,0,2,2,0,0,1,.55-1.88,0.06,0.06,0,0,0,0-.09h0"/>
  <path class="cls-1" d="M40.39,45.62a0.13,0.13,0,0,0,0,.18,0.12,0.12,0,1,0,0-.18"/>
  <path class="cls-1" d="M43.54,42.79a0.12,0.12,0,1,0,.17.19,0.12,0.12,0,0,0-.17-0.19"/>
  <path class="cls-1" d="M41.64,44.29a2,2,0,0,1-.17.52A2,2,0,0,1,42,44.7a2.66,2.66,0,0,1,.41,0,2.84,2.84,0,0,1,0-.41,2,2,0,0,1,.17-0.53,2.1,2.1,0,0,1-.54.12,3,3,0,0,1-.41,0,2.7,2.7,0,0,1,0,.41"/>
  <path class="cls-1" d="M45.6,40.52a2,2,0,0,0-.1-1.64A2,2,0,0,0,47,38.25a2,2,0,0,0,.1,1.64,2,2,0,0,0-1.51.63m1.84-.62a0.16,0.16,0,0,0-.16,0,2,2,0,0,1,0-2,0.06,0.06,0,0,0,0-.08h0a0.06,0.06,0,0,0-.09,0,2,2,0,0,1-1.75.87,0.16,0.16,0,0,0-.07-0.14,0.16,0.16,0,1,0-.17.28,0.16,0.16,0,0,0,.16,0h0a2,2,0,0,1,0,2,0.06,0.06,0,0,0,0,.09h0a0.06,0.06,0,0,0,.09,0A2,2,0,0,1,47.19,40h0a0.16,0.16,0,0,0,.07.14,0.16,0.16,0,0,0,.17-0.28"/>
  <path class="cls-1" d="M45.26,41.08a0.13,0.13,0,1,0,0,.17,0.13,0.13,0,0,0,0-.17"/>
  <path class="cls-1" d="M47.5,37.48a0.12,0.12,0,1,0-.13.21,0.12,0.12,0,0,0,.17,0,0.12,0.12,0,0,0,0-.17"/>
  <path class="cls-1" d="M46.72,38.73a2,2,0,0,1-.49.26,2.71,2.71,0,0,1-.4.1,2.8,2.8,0,0,1,.09.4,2.07,2.07,0,0,1,0,.55,2,2,0,0,1,.49-0.26,2.7,2.7,0,0,1,.4-0.1,2.86,2.86,0,0,1-.09-0.4,2,2,0,0,1,0-.55"/>
  <path class="cls-1" d="M48.69,34.77a2,2,0,0,0-.54-1.55,2,2,0,0,0,1.28-1A2,2,0,0,0,50,33.75a2,2,0,0,0-1.28,1m1.59-1.1a0.16,0.16,0,0,0-.15,0,2,2,0,0,1-.53-1.89,0.06,0.06,0,0,0,0-.08h0a0.06,0.06,0,0,0-.08,0A2,2,0,0,1,48,33.11,0.16,0.16,0,0,0,47.92,33a0.16,0.16,0,0,0-.09.31,0.16,0.16,0,0,0,.15,0h0a2,2,0,0,1,.53,1.89,0.06,0.06,0,0,0,0,.08h0a0.06,0.06,0,0,0,.08,0,2,2,0,0,1,1.45-1.32h0a0.15,0.15,0,0,0,.11.11,0.16,0.16,0,0,0,.2-0.11,0.16,0.16,0,0,0-.11-0.2"/>
  <path class="cls-1" d="M48.51,35.4a0.13,0.13,0,1,0,.09.15,0.13,0.13,0,0,0-.09-0.15"/>
  <path class="cls-1" d="M49.61,31.57a0.13,0.13,0,0,0,.15-0.09,0.12,0.12,0,0,0-.08-0.15,0.13,0.13,0,1,0-.07.24"/>
  <path class="cls-1" d="M49.27,32.74a2,2,0,0,1-.4.38,2.89,2.89,0,0,1-.36.2,2.67,2.67,0,0,1,.19.36,2,2,0,0,1,.13.54,2,2,0,0,1,.4-0.38,2.57,2.57,0,0,1,.36-0.2,2.77,2.77,0,0,1-.19-0.36,2,2,0,0,1-.13-0.54"/>
  <path class="cls-1" d="M51,27.06a2,2,0,0,0-.95,1.34,2,2,0,0,0-.95-1.34,2,2,0,0,0,.95-1.34A2,2,0,0,0,51,27.06m-0.95-1.81h0a0.06,0.06,0,0,0-.06.06A2,2,0,0,1,49,27a0.16,0.16,0,0,0-.14-0.08,0.16,0.16,0,1,0,0,.33A0.16,0.16,0,0,0,49,27.14h0a2,2,0,0,1,1,1.67,0.06,0.06,0,0,0,.06.06h0a0.06,0.06,0,0,0,.06-0.06,2,2,0,0,1,1-1.67h0a0.16,0.16,0,0,0,.14.08,0.16,0.16,0,0,0,0-.33,0.16,0.16,0,0,0-.14.08,2,2,0,0,1-1-1.67,0.06,0.06,0,0,0-.06-0.06"/>
  <path class="cls-1" d="M50.07,29.3a0.13,0.13,0,1,0-.12-0.12,0.13,0.13,0,0,0,.13.13"/>
  <path class="cls-1" d="M50.07,25.06a0.13,0.13,0,1,0-.12-0.12,0.12,0.12,0,0,0,.13.13"/>
  <path class="cls-1" d="M49.8,26.76a2.86,2.86,0,0,1-.29.3,2.73,2.73,0,0,1,.29.29,2,2,0,0,1,.28.48,2,2,0,0,1,.28-0.48,2.86,2.86,0,0,1,.29-0.29,2.7,2.7,0,0,1-.29-0.29,2,2,0,0,1-.28-0.48,2,2,0,0,1-.27.48"/>
  <path class="cls-1" d="M50.19,20.34a2,2,0,0,0-.54,1.55,2,2,0,0,0-1.28-1,2,2,0,0,0,.54-1.55,2,2,0,0,0,1.28,1m-1.41-1.48h0a0.06,0.06,0,0,0,0,.08,2,2,0,0,1-.53,1.89,0.16,0.16,0,1,0-.06.27A0.16,0.16,0,0,0,48.25,21h0A2,2,0,0,1,49.7,22.3a0.06,0.06,0,0,0,.08,0h0a0.06,0.06,0,0,0,0-.08,2,2,0,0,1,.53-1.89h0a0.16,0.16,0,0,0,.15,0,0.16,0.16,0,1,0-.09-0.31,0.16,0.16,0,0,0-.11.12,2,2,0,0,1-1.45-1.32,0.06,0.06,0,0,0-.08,0"/>
  <path class="cls-1" d="M49.83,22.52a0.12,0.12,0,1,0,.07.24,0.12,0.12,0,1,0-.07-0.24"/>
  <path class="cls-1" d="M48.73,18.68a0.13,0.13,0,1,0-.15-0.09,0.13,0.13,0,0,0,.15.09"/>
  <path class="cls-1" d="M49.49,21.34a2,2,0,0,1,.13-0.54,2.86,2.86,0,0,1,.19-0.36,2.81,2.81,0,0,1-.36-0.2,2,2,0,0,1-.4-0.38,2,2,0,0,1-.13.54,3,3,0,0,1-.19.36,2.75,2.75,0,0,1,.36.2,2,2,0,0,1,.4.38"/>
  <path class="cls-1" d="M10.72,45a2,2,0,0,0-.36-1.6,2,2,0,0,0,1.63.19,2,2,0,0,0,.36,1.6A2,2,0,0,0,10.72,45m1.43-1.46h0a0.15,0.15,0,0,0,.15,0A0.16,0.16,0,1,0,12,43.43a2,2,0,0,1-1.93-.35,0.06,0.06,0,0,0-.09,0h0a0.06,0.06,0,0,0,0,.09,2,2,0,0,1,.55,1.88,0.16,0.16,0,0,0-.15,0,0.16,0.16,0,0,0,.24.22,0.16,0.16,0,0,0,0-.15h0a2,2,0,0,1,1.93.35,0.06,0.06,0,0,0,.09,0h0a0.06,0.06,0,0,0,0-.09,2,2,0,0,1-.55-1.88"/>
  <path class="cls-1" d="M12.83,45.63a0.13,0.13,0,0,0,.19.17,0.13,0.13,0,1,0-.19-0.17"/>
  <path class="cls-1" d="M9.68,42.8a0.12,0.12,0,0,0,.19.17,0.13,0.13,0,0,0,0-.18,0.12,0.12,0,0,0-.18,0"/>
  <path class="cls-1" d="M11.73,43.88a2.68,2.68,0,0,1-.41,0,2.08,2.08,0,0,1-.54-0.12,2,2,0,0,1,.17.53,2.78,2.78,0,0,1,0,.41,2.68,2.68,0,0,1,.41,0,2,2,0,0,1,.54.12,2,2,0,0,1-.17-0.52,2.56,2.56,0,0,1,0-.41"/>
  <path class="cls-1" d="M6.28,39.89a2,2,0,0,0,.1-1.64,2,2,0,0,0,1.51.63,2,2,0,0,0-.1,1.64,2,2,0,0,0-1.51-.63m1.77-1h0a0.16,0.16,0,0,0,.16,0A0.16,0.16,0,0,0,8,38.6a0.16,0.16,0,0,0-.07.14,2,2,0,0,1-1.76-.87,0.06,0.06,0,0,0-.09,0h0a0.06,0.06,0,0,0,0,.08,2,2,0,0,1,0,2,0.16,0.16,0,0,0-.16,0,0.16,0.16,0,0,0,.17.28A0.16,0.16,0,0,0,6.2,40h0A2,2,0,0,1,8,40.9a0.06,0.06,0,0,0,.09,0H8a0.06,0.06,0,0,0,0-.09,2,2,0,0,1,0-2"/>
  <path class="cls-1" d="M8.14,41.08a0.13,0.13,0,1,0,.17,0,0.13,0.13,0,0,0-.17,0"/>
  <path class="cls-1" d="M6,37.69a0.12,0.12,0,1,0-.13-0.21,0.12,0.12,0,1,0,.13.21"/>
  <path class="cls-1" d="M7.56,39.09a2.77,2.77,0,0,1-.4-0.1,2,2,0,0,1-.49-0.26,2,2,0,0,1,0,.55,2.83,2.83,0,0,1-.09.4,2.9,2.9,0,0,1,.4.1,2,2,0,0,1,.49.26,2,2,0,0,1,0-.55,2.63,2.63,0,0,1,.09-0.4"/>
  <path class="cls-1" d="M4.71,34.77a2,2,0,0,0-1.28-1A2,2,0,0,0,4,32.2a2,2,0,0,0,1.28,1,2,2,0,0,0-.54,1.55M5.47,33a0.16,0.16,0,0,0-.11.12,2,2,0,0,1-1.45-1.32,0.06,0.06,0,0,0-.08,0h0a0.06,0.06,0,0,0,0,.08,2,2,0,0,1-.53,1.89,0.16,0.16,0,0,0-.15,0A0.16,0.16,0,1,0,3.2,34a0.16,0.16,0,0,0,.11-0.11h0a2,2,0,0,1,1.45,1.32,0.06,0.06,0,0,0,.08,0h0a0.06,0.06,0,0,0,0-.08,2,2,0,0,1,.53-1.89h0a0.16,0.16,0,0,0,.15,0A0.16,0.16,0,1,0,5.47,33"/>
  <path class="cls-1" d="M4.89,35.4a0.13,0.13,0,1,0,.15.09,0.13,0.13,0,0,0-.15-0.09"/>
  <path class="cls-1" d="M3.72,31.33a0.12,0.12,0,1,0,.15.09,0.12,0.12,0,0,0-.15-0.09"/>
  <path class="cls-1" d="M4.12,32.74a2,2,0,0,1-.13.54,3,3,0,0,1-.19.36,2.7,2.7,0,0,1,.36.2,2,2,0,0,1,.4.38,2,2,0,0,1,.13-0.54,2.66,2.66,0,0,1,.19-0.36,2.89,2.89,0,0,1-.36-0.2,2,2,0,0,1-.4-0.38"/>
  <path class="cls-1" d="M2.37,27.06a2,2,0,0,0,.95-1.34,2,2,0,0,0,.95,1.34,2,2,0,0,0-.95,1.34,2,2,0,0,0-.95-1.34m0.95,1.81h0a0.06,0.06,0,0,0,.06-0.06,2,2,0,0,1,1-1.67h0a0.15,0.15,0,0,0,.13.08,0.16,0.16,0,1,0,0-.33,0.16,0.16,0,0,0-.14.08,2,2,0,0,1-1-1.67,0.06,0.06,0,0,0-.06-0.06h0a0.06,0.06,0,0,0-.06.06,2,2,0,0,1-1,1.67,0.16,0.16,0,0,0-.14-0.08,0.16,0.16,0,0,0-.16.16,0.16,0.16,0,0,0,.16.16,0.15,0.15,0,0,0,.13-0.08h0a2,2,0,0,1,1,1.67,0.06,0.06,0,0,0,.06.06"/>
  <path class="cls-1" d="M3.2,29.18a0.13,0.13,0,1,0,.13-0.12,0.13,0.13,0,0,0-.12.13"/>
  <path class="cls-1" d="M3.2,24.94a0.13,0.13,0,1,0,.13-0.12,0.13,0.13,0,0,0-.12.13"/>
  <path class="cls-1" d="M3.6,27.35a2.7,2.7,0,0,1,.29-0.29,2.75,2.75,0,0,1-.29-0.29,2,2,0,0,1-.28-0.48,2,2,0,0,1-.28.48,2.53,2.53,0,0,1-.29.29,2.82,2.82,0,0,1,.29.29,2.05,2.05,0,0,1,.28.48,2,2,0,0,1,.28-0.48"/>
  <path class="cls-1" d="M4.49,19.31A2,2,0,0,0,5,20.86a2,2,0,0,0-1.28,1,2,2,0,0,0-.54-1.55,2,2,0,0,0,1.28-1m-1.6,1.1a0.16,0.16,0,0,0,.15,0H3a2,2,0,0,1,.53,1.89,0.06,0.06,0,0,0,0,.08h0a0.06,0.06,0,0,0,.08,0A2,2,0,0,1,5.14,21h0a0.16,0.16,0,0,0,.11.11,0.16,0.16,0,0,0,.09-0.31,0.16,0.16,0,0,0-.15,0,2,2,0,0,1-.53-1.89,0.06,0.06,0,0,0,0-.08h0a0.06,0.06,0,0,0-.08,0,2,2,0,0,1-1.45,1.32,0.16,0.16,0,1,0-.2.2"/>
  <path class="cls-1" d="M3.5,22.76a0.12,0.12,0,1,0-.09-0.15,0.12,0.12,0,0,0,.09.15"/>
  <path class="cls-1" d="M4.74,18.44a0.13,0.13,0,1,0,.09.15,0.13,0.13,0,0,0-.09-0.15"/>
  <path class="cls-1" d="M3.91,21.34A2,2,0,0,1,4.3,21a2.62,2.62,0,0,1,.36-0.2,2.74,2.74,0,0,1-.19-0.36,2,2,0,0,1-.13-0.54,2,2,0,0,1-.4.38,2.75,2.75,0,0,1-.36.2,2.87,2.87,0,0,1,.19.36,2,2,0,0,1,.13.54"/>
  <path class="cls-1" d="M18.41,48.94l0.56-.6L19,49.16l-0.62-.22m0.83-1.65-2.35,2.42,0.58,0.21L18,49.37l1.08,0.38,0.06,0.77,0.58,0.2-0.31-3.6Z"/>
  <path class="cls-1" d="M21.56,48L21,47.92,21,48l-0.68,2.82,1.38,0.33,0.13-.52L21,50.46,21.56,48"/>
  <polygon class="cls-1" points="22.74 48.41 22.25 51.27 22.81 51.37 23.31 48.4 22.75 48.3 22.74 48.41"/>
  <path class="cls-1" d="M24,48.6L23.69,51.5l0.56,0.05,0.13-1.37,1,0.09,0-.53-1-.09,0.05-.57,1,0.09,0-.53L24,48.5V48.6Z"/>
  <path class="cls-1" d="M28.19,50.85a1,1,0,0,1-1.42,0,1,1,0,0,1-.32-0.72,1,1,0,1,1,2-.06,1,1,0,0,1-.28.74m-0.78-2.27a1.58,1.58,0,0,0-1.52,1.61,1.55,1.55,0,0,0,.49,1.09,1.57,1.57,0,1,0,1-2.71"/>
  <path class="cls-1" d="M30.17,49.73h0L30,48.94c0.55-.08.66,0.1,0.69,0.28a0.6,0.6,0,0,1,0,.09c0,0.22-.17.34-0.57,0.41m1.11-.43a1,1,0,0,0,0-.17,0.88,0.88,0,0,0-.54-0.68,1.57,1.57,0,0,0-.81,0l-0.52.08,0.48,3,0.56-.09-0.18-1.14,1,1,0.68-.11-1.11-1.1a0.84,0.84,0,0,0,.47-0.76"/>
  <path class="cls-1" d="M34.2,47.38l-0.1,0-0.44.13,0.54,1.83-2.64-1.51L32.5,51,33,50.87,32.5,49l2.64,1.51Z"/>
  <polygon class="cls-1" points="35.17 46.96 34.75 47.13 35.89 49.92 36.41 49.71 35.27 46.92 35.17 46.96"/>
  <path class="cls-1" d="M38,47.57l-0.59.31-0.06-.82L38,47.57m-1.23-1.42L37,49.52l0.54-.28,0-.77,1-.53,0.61,0.47,0.54-.28-2.86-2.21v0.24Z"/>
  <path class="cls-1" d="M16.85,46.85a1.05,1.05,0,0,1,.23.24,1.22,1.22,0,0,1,.18.39l0.52-.12a1.74,1.74,0,0,0-.1-0.29h0l0,0,0,0-0.07-.13,0,0-0.07-.1h0A1.6,1.6,0,0,0,16,46.13a1.56,1.56,0,0,0,0,3.1,2.28,2.28,0,0,0,.45,0,1.52,1.52,0,0,0,.33-0.08l-0.19-.53a1.66,1.66,0,0,1-.32.08,1.1,1.1,0,0,1-.3,0,1,1,0,0,1-.57-1.59,1,1,0,0,1,1.42-.23"/>
  <polygon class="cls-1" points="38.16 13.86 38.77 12.99 39.38 13.86 39.09 12.73 40.1 12.39 39 12.37 38.77 11.42 38.55 12.37 37.44 12.39 38.46 12.73 38.16 13.86"/>
  <polygon class="cls-1" points="35.28 12.31 35.89 11.44 36.5 12.31 36.21 11.18 37.22 10.84 36.12 10.82 35.89 9.87 35.67 10.82 34.56 10.84 35.57 11.18 35.28 12.31"/>
  <path class="cls-1" d="M42,35.8a0.26,0.26,0,0,1,0-.06,0.14,0.14,0,0,0,0-.06c-0.06,0-.07.13-0.07,0.18H42a0.08,0.08,0,0,0,0,0"/>
  <path class="cls-1" d="M41.3,37.14a0.07,0.07,0,0,0,0-.09v0a0.81,0.81,0,0,1-.09-0.25s-0.1-.24-0.14-0.17a0.52,0.52,0,0,0,.09.28,0.36,0.36,0,0,0,.14.24"/>
  <path class="cls-1" d="M41.45,37.4s0,0.06,0,.1a1.73,1.73,0,0,1-.09.3,0.92,0.92,0,0,0-.05.15s0,0.12-.08.2a1.69,1.69,0,0,1-.22.28,0.3,0.3,0,0,1,0,.05l-0.07,0,0,0a1.41,1.41,0,0,0,0-.21h0a0.38,0.38,0,0,0,0,.2c0,0.13,0,.28.15,0.16a1.48,1.48,0,0,0,.36-0.46,2.64,2.64,0,0,0,.24-0.86,0.15,0.15,0,0,0,0-.1,0.31,0.31,0,0,0-.08.19"/>
  <path class="cls-1" d="M42,36.2a2.68,2.68,0,0,0,0,.28,0.05,0.05,0,0,0,.07,0c0-.06,0-0.12,0-0.19A0.15,0.15,0,0,0,42,36.2"/>
  <path class="cls-1" d="M42.28,36.13c-0.06-.05-0.17,0-0.23-0.11L42,35.92a0.24,0.24,0,0,0,0,.13,0.51,0.51,0,0,0,.12.09s0.29,0.16.32,0.08l-0.13-.1h0Z"/>
  <path class="cls-1" d="M37.13,36.43h0a0.13,0.13,0,0,1,0-.08,1.34,1.34,0,0,0,0-.15A0.46,0.46,0,0,0,37,36.07,0.29,0.29,0,0,0,36.86,36c-0.06,0,0,.08,0,0.11a0.51,0.51,0,0,1,.15.15,0.46,0.46,0,0,0,.12.31A0.1,0.1,0,0,0,37.13,36.43Z"/>
  <path class="cls-1" d="M42.69,35.3a0.09,0.09,0,0,0-.05.06l-0.05,0s0,0,0,0a0.17,0.17,0,0,0,.11,0c0.17,0,.08-0.19,0-0.17"/>
  <path class="cls-1" d="M43.63,35.72s-0.07-.05-0.12-0.06a0.06,0.06,0,0,0-.07.07c0,0.08.24,0.11,0.2,0h0"/>
  <path class="cls-1" d="M42,36.21h0v0Z"/>
  <path class="cls-1" d="M12.49,16.49a0.83,0.83,0,0,0,.24.15L15,14.36l-0.14-.24-2.35,2.38"/>
  <path class="cls-1" d="M16.32,16v2.29H11.09l1.21-1.23a1.36,1.36,0,0,1-.21-0.18l-1.66,1.68h6.15s0-2.65,0-2.67L16.32,16"/>
  <path class="cls-1" d="M16.33,13s0,1.22,0,1.19l0.25,0.11V12.34l-1.15,1.17,0.18,0.2L16.33,13"/>
  <polygon class="cls-1" points="15.59 15.12 15.59 14.83 13.84 16.56 14.11 16.56 15.59 15.12"/>
  <path class="cls-1" d="M12.75,17.71h2.84V16.56l-0.21.22s0,0.72,0,.72H12.94Z"/>
  <path class="cls-1" d="M17.74,14.42a0.69,0.69,0,0,0-.53.33l-0.15-.06V14.36a0.22,0.22,0,0,0,.11-0.2,0.2,0.2,0,1,0-.39,0,0.23,0.23,0,0,0,.11.2v0.25l-1.16-.48a2.64,2.64,0,0,0-2.27-1.29,2.12,2.12,0,0,0-1.76,1.3l0,0.07L12,13.88a2.06,2.06,0,0,1,2.12-.56,1.63,1.63,0,0,1,1.05,1.09L16.89,15v0.14l-1.71.61a1.63,1.63,0,0,1-1.05,1.09A2.06,2.06,0,0,1,12,16.3L11.75,16l0,0.07a2.12,2.12,0,0,0,1.76,1.3A2.64,2.64,0,0,0,15.73,16l1.16-.48V15.7h0.17V15.5l0.15-.06a0.69,0.69,0,0,0,.53.33,0.68,0.68,0,0,0,0-1.35"/>
  <polygon class="cls-1" points="13.06 25.69 13.06 25.69 13.06 25.7 13.07 25.7 13.06 25.69"/>
  <path class="cls-1" d="M17.36,23.76l0,0,0,0a3.42,3.42,0,0,0-.74,1.42l0,0.17v0.19a4.53,4.53,0,0,0,0,.74h0s0,0,0,0v0.19l0,0.05v0.1l0,0.08,0,0.12a3.76,3.76,0,0,0,.63,1.46v0l0,0L17,28.27a2.29,2.29,0,0,0-.46-0.3,1.47,1.47,0,0,0-.25-0.11l-0.08,0A0.25,0.25,0,0,1,16,27.78a0.28,0.28,0,0,1,0-.15v-0.1l-0.09-.32-0.12-.51,0-.15a1.58,1.58,0,0,1-.07-0.3h0.1a0.43,0.43,0,0,0,.26,0,0.46,0.46,0,0,0,0-.06v0l0,0h0l0,0H15.89l0-.09v0l0-.09,0-.07V25.69l0,0,0,0,0-.1,0,0a0.75,0.75,0,0,1-.12-0.21v0h0l0-.06,0,0,0,0,0,0a1.81,1.81,0,0,1,.22-0.27L16,24.71l0.12-.14,0.07-.07,0,0,0.27-.21,0.08-.07a4.65,4.65,0,0,1,.55-0.4l0,0h0l0,0,0,0a1,1,0,0,1,.21-0.1h0l-0.12.14M16.17,28l0.09,0a2.31,2.31,0,0,1,.3.17,0.7,0.7,0,0,1,.36.29l-0.05,0-0.42,0a1.68,1.68,0,0,1-.24,0,0.9,0.9,0,0,1-.08-0.26c0-.09-0.13-0.3,0-0.26m-1.83,1.21a0.59,0.59,0,0,1-.21,0H14.06s0,0,0-.08l0,0A0.73,0.73,0,0,1,14.29,29l0,0a0.06,0.06,0,0,1,.05,0,0.53,0.53,0,0,1,0,.28m0.42,0a0.16,0.16,0,0,1-.09,0,0.4,0.4,0,0,1-.14,0,0.71,0.71,0,0,1,0-.25,0.16,0.16,0,0,1,.09-0.1,0.16,0.16,0,0,1,.17.06,1,1,0,0,1,0,.28m0.43,0a0.08,0.08,0,0,1-.07,0H15a0.38,0.38,0,0,1,0-.26l0.09-.08a0.13,0.13,0,0,1,.14.05,0.64,0.64,0,0,1,0,.27m0.51,0a0.35,0.35,0,0,1-.13,0,0.26,0.26,0,0,1-.15,0,0.41,0.41,0,0,1,0-.27h0l0,0a0.14,0.14,0,0,1,.09,0,0.23,0.23,0,0,1,.13,0,0.17,0.17,0,0,1,0,.06,0.84,0.84,0,0,1,0,.27m0.4,0a0.2,0.2,0,0,1-.1,0,0.15,0.15,0,0,1-.1,0,0.41,0.41,0,0,1,0-.25A0.27,0.27,0,0,1,16,28.83a0.14,0.14,0,0,1,.12,0,0.48,0.48,0,0,1,0,.29m0.42,0H16.4a0.38,0.38,0,0,1-.11,0,0.59,0.59,0,0,1,0-.28,0.18,0.18,0,0,1,.11-0.07h0.07l0.06,0.07a0.39,0.39,0,0,1,0,.27m0.42,0a0.16,0.16,0,0,1-.09,0,0.14,0.14,0,0,1-.09,0,0.32,0.32,0,0,1,0-.24,0.53,0.53,0,0,1,.12-0.09,0.09,0.09,0,0,1,.1,0,0.46,0.46,0,0,1,0,.3m0.32-.41s-0.81,0-1.53,0-1.38.07-1.46,0.1a0.85,0.85,0,0,0-.26.29l-0.08.15v0.05c0.05,0,3.47-.12,3.7-0.13,0,0,0,0,0,0a0.11,0.11,0,0,1,0,0l-0.07,0-6,.23a0.74,0.74,0,0,0-.24.09l0,0,0,0h0l-0.07.07h0v0h0a0.37,0.37,0,0,0,.14-0.05l0.06,0h0.07l0.15,0,0.69,0,4.6-.19h0v0a1.1,1.1,0,0,1-.36.25l-0.07,0a2.64,2.64,0,0,1-.54.21,1.12,1.12,0,0,0-.75.53l0,0.06,0,0.08-0.06.12h0l0,0H14.95a1,1,0,0,1-.28-0.08h0l-0.18-.07,0,0-0.15-.07-0.21-.09-0.1,0H13.93l0,0H13.84l-0.15,0a1.79,1.79,0,0,0-1,.27,1.06,1.06,0,0,1-.75.08H11.91l-0.12,0h0l-0.06,0-0.37-.07H11a0.51,0.51,0,0,1-.17,0h0v0l0,0h0V30.43h0a0.5,0.5,0,0,0,0-.08h0l0-.06,0,0h0l0,0h0l0,0,0,0h0l0,0L10.26,30a0.4,0.4,0,0,1-.12-0.08l-0.06,0A1.13,1.13,0,0,1,9.9,29.7a0.7,0.7,0,0,1-.19-0.35h0a0.75,0.75,0,0,1,0-.19l0,0.13a0.88,0.88,0,0,0,.51.51h0l0.1,0a0.93,0.93,0,0,0,.47,0A1.09,1.09,0,0,0,11,29.69l0.15-.1a1.28,1.28,0,0,1,.58-0.12H12l1.28,0a1.43,1.43,0,0,0,.44-0.06A0.52,0.52,0,0,0,14,29.09L14,29l0,0,0-.05h0a0.39,0.39,0,0,1,.18-0.1c0.16,0,2.57-.13,2.77-0.13Zm0.18,0.19a0.33,0.33,0,0,1-.13.21,0.54,0.54,0,0,1-.16,0,0.21,0.21,0,0,1,0,0,1.24,1.24,0,0,1,0-.2,0.25,0.25,0,0,1,.12-0.08,0.25,0.25,0,0,1,.19.12m0.1,0.1a0.21,0.21,0,0,1,.14.08,0.08,0.08,0,0,0,0,0H17.48s0,0,0,0a0.11,0.11,0,0,1,.05-0.1m-1.16,1.92a0.08,0.08,0,0,1,0,0,0.33,0.33,0,0,1-.06.15,0.71,0.71,0,0,1-.25,0,1,1,0,0,0-.26,0,1.84,1.84,0,0,0-.39.11l-0.12.07a0.73,0.73,0,0,1-.45.1c-0.54-.05-1-0.66-1.61-0.51-0.31.07-.51,0.33-0.84,0.38-0.59.09-1.12-.32-1.72-0.19a1.38,1.38,0,0,0-.32.14,0.37,0.37,0,0,1-.17.07,0.06,0.06,0,0,0,0,0l0-.06h0l0.05-.07,0,0a0.84,0.84,0,0,1,.22-0.13,1.34,1.34,0,0,1,.32-0.09c0.56-.07,1.11.34,1.66,0.17a4,4,0,0,1,1-.37,0.85,0.85,0,0,1,.18,0,1.59,1.59,0,0,1,.6.19,2.15,2.15,0,0,0,.58.27c0.5,0.06.93-.41,1.46-0.18m0,0.57a0.09,0.09,0,0,1,0,.06,0.58,0.58,0,0,1-.23,0H15.81l-0.15,0-0.11,0-0.07,0-0.09,0-0.13.06a1.27,1.27,0,0,1-1-.08,1.84,1.84,0,0,0-.92-0.31,1.06,1.06,0,0,0-.36.16,1.4,1.4,0,0,1-.41.19,2.94,2.94,0,0,1-1.19-.17,1.57,1.57,0,0,0-1,.1l-0.21.06a0.52,0.52,0,0,1-.2,0,0.18,0.18,0,0,1,0,0,1.19,1.19,0,0,1,.5-0.33,1.7,1.7,0,0,1,.92-0.08l0,0,0.21,0,0.1,0a2.29,2.29,0,0,0,.68.13,0.92,0.92,0,0,0,.2,0c0.07,0,.13-0.11.22-0.16a1.57,1.57,0,0,1,.58-0.21,1.24,1.24,0,0,1,.51.09l0,0,0.1,0,0.05,0,0.06,0h0l0.06,0v0l0.05,0a1,1,0,0,0,.17.09l0.06,0a1,1,0,0,0,.22.08,1.29,1.29,0,0,0,.84-0.2,0.88,0.88,0,0,1,.7,0c0.11,0,.08.06,0,0.13m-6.12-1.3a0.6,0.6,0,0,1-.29-0.1,1.19,1.19,0,0,1-.55-0.9s0-.08,0-0.12a0.7,0.7,0,0,0,0-.11,1.38,1.38,0,0,1,0-.26c0-.05,0-0.11.05-0.14a0.42,0.42,0,0,1,.1-0.18,0.13,0.13,0,0,1,.09.06,0.91,0.91,0,0,1,.09.12l0.22,0.3,0.39,0.53,0.1,0.12a0.88,0.88,0,0,1,.09.14,0,0,0,0,1,0,0,0.82,0.82,0,0,1-.61-0.58,0.08,0.08,0,0,1,0,0,0.63,0.63,0,0,1,0-.18,0.3,0.3,0,0,0,0-.07,0.12,0.12,0,0,0-.08,0,0.17,0.17,0,0,0-.12,0,0.58,0.58,0,0,0-.06.37,1,1,0,0,0,.36.74l0,0A0.45,0.45,0,0,0,10,30a1.63,1.63,0,0,1,.26.17,0.06,0.06,0,0,1,0,0m-0.53-.07,0,0a1,1,0,0,1-.29,0L9,30,8.91,30H8.85l-0.13,0H8.66l-0.12,0a0.63,0.63,0,0,1-.28-0.18,0.05,0.05,0,0,0,0,0,0.1,0.1,0,0,0,0-.05,0.6,0.6,0,0,1,0-.1,0.26,0.26,0,0,1,.2-0.35,0.63,0.63,0,0,1,.38,0,1,1,0,0,1,.36.21,0,0,0,0,0,0,0l0,0a0.2,0.2,0,0,1,0,.07l0.17,0.24c0,0.06.12,0.1,0.18,0.17A0.35,0.35,0,0,0,9.6,30s0.05,0,.06.07a0,0,0,0,0,0,0m-1.54-1h0L8,29.18l0,0,0,0,0,0.06a0.32,0.32,0,0,0,0,.1,0.69,0.69,0,0,0,0,.22L8,29.71H8l0,0H8v0l0,0A0.88,0.88,0,0,1,7.64,29a1.09,1.09,0,0,1,0-.45l0-.11A0.32,0.32,0,0,1,8,28.26l0.08,0,0.14,0,0.25-.05,0.41-.07,0.18,0,0.26,0L9.6,28,9.55,28l-0.08.06,0,0,0,0a1,1,0,0,0-.29.42,1.14,1.14,0,0,0-.05.46v0.16h0l-0.12-.08L8.7,29l0,0L8.6,29a0.85,0.85,0,0,0-.44.09l0,0h0m0,0.61,0,0,0,0m0.85-2.46a3.5,3.5,0,0,1,.32.37,0.4,0.4,0,0,1,.12.13s0,0,0,0H9.3a0.21,0.21,0,0,1-.06-0.08l-0.06-.07-0.25-.36m0.73,0.88h0a0.48,0.48,0,0,1,.14.17l0.95,1.06c0.06,0.07.25,0.19,0.09,0.26a0.38,0.38,0,0,1-.19,0,1.41,1.41,0,0,1-.12-0.17l-0.16-.2a3.08,3.08,0,0,1-.25-0.34L9.84,28.5a0.51,0.51,0,0,1-.19-0.35m0.89,0.75a0.25,0.25,0,0,0-.06-0.08h0a0.06,0.06,0,0,0,0,0,0.88,0.88,0,0,1-.14-0.19,0.44,0.44,0,0,1,0-.12,0.55,0.55,0,0,1,.29-0.34,0.17,0.17,0,0,1,.07,0h0l0.12,0a0.1,0.1,0,0,1,.06,0h0a0,0,0,0,1,0,0s0,0.1,0,.15-0.06.37-.09,0.55a1.35,1.35,0,0,1,0,.28h0l0,0h0l-0.13-.12M11.18,29c0-.18,0-0.35.06-0.54a0.94,0.94,0,0,0,0-.12c0-.06,0-0.12,0-0.17a0.08,0.08,0,0,1,0-.05,1.25,1.25,0,0,1,.45.21,7.84,7.84,0,0,1,0,1,0.43,0.43,0,0,1-.24,0l0,0H11.36a0.9,0.9,0,0,1-.22.06,1.25,1.25,0,0,1,0-.45M11,29.32s0,0,0,0a0.12,0.12,0,0,1,0-.11c0-.08,0-0.17,0-0.24s0-.18,0-0.26a0.78,0.78,0,0,1,0-.16v0a1,1,0,0,1,0-.14,1.08,1.08,0,0,1,.06-0.36s0,0,0,0v0a0.16,0.16,0,0,1,0,.05s0,0.06,0,.08,0,0.09,0,.14,0,0.12,0,.17,0,0.1,0,.17,0,0.27-.06.39a0.82,0.82,0,0,0,0,.15,0.68,0.68,0,0,1,0,.1m1.08-.64a0.44,0.44,0,0,1,0-.09s0,0,0,0h0a0.17,0.17,0,0,1,.1.09s0,0,0,0l0,0c0,0.1,0,.19,0,0.29a0.8,0.8,0,0,1,0,.26s0,0,0,0h0a0.25,0.25,0,0,1-.14,0c0-.12,0-0.22,0-0.34a2.57,2.57,0,0,1,0-.28m-2-1.78,0-.09,0-.08a0.09,0.09,0,0,1,.09,0h0.46l0.29,0,0.27,0h0.21l0.31,0h0.21l0.16,0h0.16l0.56-.06H13l-0.09.07a3.11,3.11,0,0,0-.41.37l0,0,0,0,0,0.07,0,0,0,0,0,0,0,0.12,0,0.1,0,0.08,0,0.12a1.65,1.65,0,0,0,0,.19,1.94,1.94,0,0,0,.1.63l0.06,0.11,0.06,0.13a0.71,0.71,0,0,1-.14-0.11l-0.06-.06a3,3,0,0,0-.33-0.25A1.16,1.16,0,0,0,11.44,28l-0.52-.05a0.71,0.71,0,0,0-.24,0l-0.06,0a0.62,0.62,0,0,0-.2.08h0v0h0l0,0a0.78,0.78,0,0,0-.18.26l0,0.06,0,0-0.06-.07L10,28.23l-0.05-.06A0.5,0.5,0,0,1,9.85,28,0.35,0.35,0,0,1,10,28L10,28l0,0h0l0.06,0h0l0.07,0,0.11,0a0.2,0.2,0,0,0,.07-0.09h0V27.66h0v0a0.59,0.59,0,0,0-.31,0H9.86a0.07,0.07,0,0,1,0,0v0s0,0,0,0a1.13,1.13,0,0,1,.29-0.64m1.15-1.24c0,0.13,0,.26-0.06.38s0,0.07,0,.11,0,0.11,0,.16a0.2,0.2,0,0,1,0,.06,0.08,0.08,0,0,1-.06,0,1.5,1.5,0,0,1-.24,0l-0.66.06a0.35,0.35,0,0,1-.11,0A0.51,0.51,0,0,1,10.17,26a1,1,0,0,1,.26-0.37,1.07,1.07,0,0,1,.43-0.21,0.9,0.9,0,0,1,.44-0.05s0,0,0,0a0.64,0.64,0,0,1,0,.25m0.28-.24a0.85,0.85,0,0,1,0,.18c0,0.06,0,.1,0,0.15s0,0.12,0,.18a2.23,2.23,0,0,1,0,.29,0.37,0.37,0,0,1,0,.11l0,0a0.08,0.08,0,0,1-.08,0,2.94,2.94,0,0,1,.06-0.48,3.23,3.23,0,0,1,.06-0.41,0.4,0.4,0,0,1,0-.06,0.18,0.18,0,0,1,.08,0m0.12,0.07a0,0,0,0,1,0,0h0a0.11,0.11,0,0,1,.1,0s0,0.81,0,.83h0a0.14,0.14,0,0,1-.1,0,0.13,0.13,0,0,1-.13,0,0.66,0.66,0,0,1,0-.21,3.75,3.75,0,0,1,.06-0.45,0.71,0.71,0,0,1,0-.13,0.06,0.06,0,0,1,0,0m0.55,0.75a1,1,0,0,1,0-.21,3.21,3.21,0,0,1,0-.34h0a2.09,2.09,0,0,1,0,.38,0.93,0.93,0,0,1,0,.17s0,0,0,0,0,0,0,0m0.11,0a0.07,0.07,0,0,0,0,0,0.23,0.23,0,0,0,0-.08c0-.08,0-0.15,0-0.25a0.69,0.69,0,0,1,0-.11s0,0,.06,0a2.5,2.5,0,0,1,.26.2l0.19,0.17s0.13,0.1,0,.11a0.41,0.41,0,0,1-.14,0,0.87,0.87,0,0,1-.35,0h0l0,0M10,25.95h0V25.89c0-.11,0-0.21,0-0.3a2.1,2.1,0,0,1,0-.21V25.2a1.21,1.21,0,0,1,.13-0.36l0.06-.12,0-.08,0.06-.11,0,0h0l0,0v0l0.12-.12,0.07-.07,0,0,0,0,0,0,0,0,0,0,0.06,0L10.86,24,11,23.81l0,0,0-.05,0,0,0,0,0-.07,0.06-.1,0-.12a0.9,0.9,0,0,1,.07-0.17,0.74,0.74,0,0,1,.23,0h0.59a0.86,0.86,0,0,1,.28,0v0l0,0.05,0,0,0,0.06,0,0.11a2.34,2.34,0,0,0-.15.82c0,0.06,0,.13,0,0.19a2.13,2.13,0,0,0,.45,1.07l0.07,0.08,0.05,0.08,0.1,0.13,0,0,0,0,0.14,0.17,0.1,0.14,0,0A0.79,0.79,0,0,1,13,26.06l-0.15-.12-0.09-.07,0,0,0,0h0v0l-0.1-.07a1.93,1.93,0,0,0-.75-0.39l-0.25,0a1.8,1.8,0,0,0-1.26.32,0.62,0.62,0,0,0-.18.22v0a0.29,0.29,0,0,1-.05.11m5.24-.11a0.2,0.2,0,0,1,.12,0,0.5,0.5,0,0,1,0,.2h0a0.17,0.17,0,0,1-.09,0,0.54,0.54,0,0,1-.06-0.24m0.1,1.85a0.85,0.85,0,0,1,0-.24c0-.12-0.06-0.24-0.08-0.36a6.61,6.61,0,0,1-.15-0.85l0,0h0s0.05,0,.07.06h0a1.76,1.76,0,0,1,.06.24c0,0.17.06,0.33,0.11,0.5s0.07,0.27.1,0.41a0.73,0.73,0,0,1,0,.34h0l-0.1,0a0.14,0.14,0,0,1,0-.08m-0.87.36,0,0a0.34,0.34,0,0,1,.13,0,2.11,2.11,0,0,1,.51-0.1,0.15,0.15,0,0,1,.11,0s0,0.08,0,.11a0.6,0.6,0,0,1,0,.09c0,0.09,0,.15,0,0.23a0.79,0.79,0,0,1,0,.17,0.09,0.09,0,0,1,0,.08h0a5.81,5.81,0,0,1-.6,0,0.67,0.67,0,0,1-.21,0s0-.46,0-0.51m0.59-2.13h0a0.46,0.46,0,0,1,0,.15H15.09a0.16,0.16,0,0,0,0,0,0.09,0.09,0,0,1,0-.13m-0.66.15a0.54,0.54,0,0,1,0-.17,1.16,1.16,0,0,1,0-.28,0.06,0.06,0,0,1,0,0,1,1,0,0,1,.36.07,0.19,0.19,0,0,1,0,.08,0.69,0.69,0,0,1,0,.17,0.67,0.67,0,0,1-.06.11l0,0h0l-0.05,0a0.61,0.61,0,0,1-.3,0m0.19,0.2a0.57,0.57,0,0,1-.11.14c-0.07.09-.07,0-0.08-0.07a0.25,0.25,0,0,1,0-.09l0.05,0a0.49,0.49,0,0,1,.13,0,0,0,0,0,0,0,0m-0.55,1.79-0.3.19-0.07.07a1.12,1.12,0,0,1-.15.12l0-.09,0-.07v0l0.08-.17h0v0l0-.08,0-.06,0,0v0a0.43,0.43,0,0,0,.09-0.17l0.1-.18,0-.07,0.2-.32,0.27-.41,0-.05,0.08-.12a0.74,0.74,0,0,1,.19-0.24h0s0,0,.06,0l0,0.12,0,0.27,0,0.08L15.07,27V27.1l0,0.15,0.09,0.5H15a2.63,2.63,0,0,0-.93.31m-0.67.84a1.66,1.66,0,0,1,.22-0.33l0.09-.07,0.2-.17a0.45,0.45,0,0,1,.32-0.16h0a2.51,2.51,0,0,1,0,.44,0.34,0.34,0,0,1-.12.06,0.72,0.72,0,0,0-.21.21,1.4,1.4,0,0,1-.17.27,0,0,0,0,1,0,0v0a0.41,0.41,0,0,1-.14,0,0.62,0.62,0,0,1-.21,0c-0.13,0,0-.32.07-0.38M13.9,26a0.5,0.5,0,0,1,0,.09,0.1,0.1,0,0,1-.07,0h0a0.08,0.08,0,0,1,0,0,0.72,0.72,0,0,1,0-.11c0-.09,0-0.17,0-0.25a0.13,0.13,0,0,1,0-.08l0,0a0.08,0.08,0,0,1,.06,0,2,2,0,0,1-.06.41m0.27,0.25a3.63,3.63,0,0,1,0,.47,0.89,0.89,0,0,1,0,.24,1.37,1.37,0,0,1-.12.21l-0.14.24c0,0.08-.08.18-0.13,0.26l-0.06.1a0.34,0.34,0,0,1,0,0,0.57,0.57,0,0,1,0-.27l0-.32,0-.12a1.35,1.35,0,0,1,0-.16l0,0c0-.06,0-0.12,0-0.18s0-.27.07-0.41a0.13,0.13,0,0,1,.06-0.1,0.42,0.42,0,0,1,.17,0m0-.29a0.37,0.37,0,0,1,0,.09s0,0,0,.05l-0.09,0-0.09,0a1.28,1.28,0,0,1,0-.35,0.83,0.83,0,0,1,0-.13,0.09,0.09,0,0,1,0,0,0.06,0.06,0,0,1,.07,0s0,0,0,0a3.38,3.38,0,0,1,0,.35m-1,2.89c0.07-.38.17-0.76,0.24-1.14a0.49,0.49,0,0,0,0-.07c0-.19.07-0.36,0.1-0.56a0.21,0.21,0,0,0,0-.07c0-.17.06-0.33,0.11-0.5a1,1,0,0,1,0-.12c0-.06,0-0.15.07-0.16l0.08,0a1.09,1.09,0,0,1,0,.2c0,0.06,0,.15-0.05.22s0,0,0,.08-0.07.33-.1,0.49,0,0.08,0,.12,0,0.08,0,.12l0,0.26c0,0.11-.05.24-0.08,0.35s0,0.16,0,.24a1.63,1.63,0,0,1-.09.23h0c0,0.06,0,.12-0.06.19s-0.06.13-.09,0.2,0,0,0-.09m0.36-2.78c0-.11,0-0.21.07-0.31a0.26,0.26,0,0,1,0-.11,0.12,0.12,0,0,1,.07,0,0.06,0.06,0,0,1,.05,0c0,0.13-.05.24-0.07,0.36s0,0.06,0,.09a0.08,0.08,0,0,1-.08,0l-0.06,0M12.92,29a0.2,0.2,0,0,1-.06-0.11s0,0,0,0,0-.11,0-0.17,0.06-.2.09-0.29a12.09,12.09,0,0,0,.41-1.63,1.5,1.5,0,0,1,0-.26,0.93,0.93,0,0,1,0-.24l0,0c0.12,0,0,.18,0,0.23-0.11.59-.25,1.17-0.36,1.77a1,1,0,0,1,0,.1c0,0.07,0,.12,0,0.19s-0.06.23-.09,0.35a0.4,0.4,0,0,1-.06.18l0,0,0,0h0Zm-0.19.09h0.05l0.14,0.12a0.13,0.13,0,0,1,0,.08,0.06,0.06,0,0,1,0,0,0.48,0.48,0,0,1-.18,0l0,0a0.35,0.35,0,0,1,.05-0.21m0.43-3.23a1.19,1.19,0,0,1,.2-0.11l0,0a0.11,0.11,0,0,1,0,0,0.57,0.57,0,0,1,0,.18,0.59,0.59,0,0,1,0,.1,0.23,0.23,0,0,1,0,.06h0L13.27,26l-0.09-.14h0a0,0,0,0,0,0,0M12.47,29.3H12.4a1.76,1.76,0,0,1,0-.36,1,1,0,0,1,0-.13s0,0,0,0a0.07,0.07,0,0,1,.05,0,0.31,0.31,0,0,1,0,.07c0,0.08,0,.17,0,0.26a0.29,0.29,0,0,1,0,.15m0.13-.19s0,0,0,0h0a0.26,0.26,0,0,1,0-.16l0,0h0a0.19,0.19,0,0,1,0,.15m0-.63a1.23,1.23,0,0,1-.1-0.24,2.14,2.14,0,0,1-.08-0.55,1.18,1.18,0,0,1,.37-0.84A1,1,0,0,1,13,26.7a0.71,0.71,0,0,1,.23-0.13l0,0a0.29,0.29,0,0,1,0,.19c-0.08.34-.16,0.67-0.25,1a5.41,5.41,0,0,1-.27.91,0.31,0.31,0,0,1-.14-0.2m3.1,0.1H15.65a0.13,0.13,0,0,1-.11,0,0.75,0.75,0,0,1,0-.14c0-.11,0-0.22-0.06-0.35s0-.07,0-0.11a0.08,0.08,0,0,1,.07,0,0.08,0.08,0,0,1,.09,0,0.71,0.71,0,0,1,0,.17,0.51,0.51,0,0,0,0,.11,0.77,0.77,0,0,0,0,.13,1.06,1.06,0,0,1,0,.24s0,0,0,0m0.11-.8a0.15,0.15,0,0,1-.12,0,0.3,0.3,0,0,1,0-.06,0.39,0.39,0,0,1,0-.05,0.15,0.15,0,0,1,0,0s0-.11,0-0.15a0.1,0.1,0,0,1,0-.07l0-.15s0,0,0-.08,0,0,0-.07-0.06-.29-0.09-0.44a2.36,2.36,0,0,1-.06-0.23,0.12,0.12,0,0,0,0,0s-0.05-.11,0-0.12a0.12,0.12,0,0,1,.1,0,0,0,0,0,1,0,0,1,1,0,0,1,.05.22,0.94,0.94,0,0,1,0,.12s0,0.08,0,.12a0.32,0.32,0,0,0,0,.06l0.15,0.65c0,0.05,0,.11,0,0.17a1.46,1.46,0,0,0,0,.14h0m0,0.75a0.29,0.29,0,0,1,0-.07c0-.08,0-0.15,0-0.24a1,1,0,0,1-.05-0.29l0,0a0.22,0.22,0,0,1,.12,0,0.62,0.62,0,0,1,0,.15,2.32,2.32,0,0,1,.1.47l0,0a0.26,0.26,0,0,1-.13,0h0l0,0m-0.19-2.46h0a0.09,0.09,0,0,1-.1,0s0,0,0,0l0.11,0s0,0,0,0m-2.73-.68,0-.06V25.28l0-.09V25.11l0-.06,0,0,0-.1h0l0,0,0.06-.13v0l0,0,0.06-.11,0.23-.39,0.06-.1L13.66,24a0.06,0.06,0,0,0,0-.05l0,0,0,0,0,0,0,0,0,0a0.12,0.12,0,0,1,.1,0H15l0,0.05,0,0.07,0,0.09v0l0,0.09,0,0.17a0.87,0.87,0,0,0,0,.1,1.44,1.44,0,0,0,.17.64,1.79,1.79,0,0,0,.22.32,2,2,0,0,1,.2.28l0,0,0,0a0.6,0.6,0,0,1,.06.12l0,0,0,0-0.08,0-0.06,0h0l-0.11-.05h0l-0.08,0-0.09,0-0.13,0-0.19,0-0.21,0a2.68,2.68,0,0,0-.74.05h0a2.06,2.06,0,0,0-.34.11l-0.11.05-0.17.06h0l0,0h0l0,0,0,0a0.15,0.15,0,0,1-.06-0.08h0a0.34,0.34,0,0,1,0-.11m1.2-2.2h0a0.91,0.91,0,0,1,0,.29,0.07,0.07,0,0,1,0,0h0l0,0a0.82,0.82,0,0,1,.06-0.3m0.18-.1,0,0a0.16,0.16,0,0,1,0,0,2,2,0,0,1,.06.33v0h0s0,0,0,0a0.08,0.08,0,0,1-.05,0v0a1.85,1.85,0,0,1,0-.34m2.39,0.47h0l0,0-0.06,0-0.11-.09h0l0,0h0a0,0,0,0,0,0,0h0l0-.06-0.12-.14,0,0L16.08,23,16,23H15.9L16,23a0.62,0.62,0,0,1,.19,0h0l0.1,0h0.06l0.28,0.1L17,23.21l0.25,0,0.17,0a0.53,0.53,0,0,1-.22.15l-0.09.05L17,23.55l-0.06,0a0.19,0.19,0,0,1-.1,0l0,0,0,0M11.81,22l-0.26,0-0.18,0a0.8,0.8,0,0,1-.3,0v0L11.28,22l0.2-.05a1.22,1.22,0,0,1,.32,0s0,0,0,.05m6.28,0.78a1.5,1.5,0,0,1-.35.22,1,1,0,0,1-.66.08c-0.22,0-.43-0.15-0.66-0.21a1.26,1.26,0,0,0-.58,0,1.36,1.36,0,0,0-.4.33v0l0.2-.05a0.81,0.81,0,0,1,.26,0,0.68,0.68,0,0,1,.22.11s0,0,0,0a0.59,0.59,0,0,1-.18.06h0a0.38,0.38,0,0,0-.21.14,0.05,0.05,0,0,0,0,0s0,0,0,0,0.2-.07.32-0.08a0.48,0.48,0,0,1,.25,0l0.05,0,0.13,0.06a0,0,0,0,1,0,0h0a0.06,0.06,0,0,1,0,0l0,0s0,0.06.09,0.09l0.06,0c0,0.05,0,.1-0.08.13l-0.18.12a0.55,0.55,0,0,0-.15.12,1,1,0,0,0-.14.11l-0.23.22-0.12.12a2.89,2.89,0,0,0-.28.34,0.2,0.2,0,0,1-.13.12A0.59,0.59,0,0,1,15.3,25a0.55,0.55,0,0,0-.05-0.05,0.87,0.87,0,0,1-.06-0.08,0.38,0.38,0,0,1-.06-0.1,1,1,0,0,1-.1-0.35,1.42,1.42,0,0,1,0-.34s0-.08,0-0.12a0.3,0.3,0,0,1,0-.09,0.82,0.82,0,0,1,.09-0.17,0.34,0.34,0,0,0,.13-0.05h0a0.12,0.12,0,0,0,0,0l0,0a0.17,0.17,0,0,0-.09,0c-0.16,0-.37,0-0.52,0H14.58l-0.05,0a1.18,1.18,0,0,0,0-.13c0-.09,0-0.2-0.06-0.3s0-.08,0-0.11-0.05-.28-0.09-0.43,0-.13-0.05-0.19,0-.12,0-0.18a0.59,0.59,0,0,0,0-.12,0.06,0.06,0,0,0-.06,0c0,0.15.07,0.26-.1,0.29a1.13,1.13,0,0,0-.36,0,0.7,0.7,0,0,0,0,.21,0,0,0,0,0,0,0H13.65l-0.12-.05a0.47,0.47,0,0,0-.31,0,0.19,0.19,0,0,0-.06.08c0,0.06,0,.13,0,0.15H13l-0.13,0a0.4,0.4,0,0,0-.2,0l0,0,0.07,0.05,0.11,0a1.63,1.63,0,0,0,.23.11,0.24,0.24,0,0,0,.22,0,0.17,0.17,0,0,0,.07-0.14,0.39,0.39,0,0,1,.24.06,0.31,0.31,0,0,0,.21,0,0.21,0.21,0,0,0,.1-0.19s0-.07,0-0.12l0,0a0.29,0.29,0,0,1,.13,0h0a0.16,0.16,0,0,1,.09.07,1.12,1.12,0,0,1-.05.24c0,0.11,0,.2-0.05.3a2.05,2.05,0,0,1-.05.21,0.57,0.57,0,0,1,0,.18,2.7,2.7,0,0,1-.51,0l0,0a0.29,0.29,0,0,1,0,0,0.39,0.39,0,0,0,.18,0l0,0a1.19,1.19,0,0,1-.14.26,0.06,0.06,0,0,1,0,0s-0.06.11-.07,0.13a0,0,0,0,1,0,0s-0.09.17-.12,0.21,0,0.09-.05.1,0,0.08,0,.12l-0.1.21,0,0.08L12.95,25c-0.06.12-.1,0.25-0.15,0.37h0l0,0a0.92,0.92,0,0,1-.15-0.23,1.33,1.33,0,0,1-.1-0.25s0-.07,0-0.11a2,2,0,0,1,.09-1.17,1.37,1.37,0,0,1,.19-0.39,1.44,1.44,0,0,0,.14-0.08s0,0,0,0l0,0a1.21,1.21,0,0,0-.14,0H12.24A0.91,0.91,0,0,1,12,23l0,0a0.12,0.12,0,0,1,0,0c0-.12,0-0.29,0-0.39,0-.33,0-0.67,0-1,0-.08,0-0.17,0-0.27s0-.1-0.06-0.09a0.27,0.27,0,0,0-.08,0,0.53,0.53,0,0,1-.25.08,1.21,1.21,0,0,1-.24,0l-0.44,0H10.69a2,2,0,0,0-.58.15l-0.31.12-0.24,0a0.24,0.24,0,0,0-.14,0,0.12,0.12,0,0,1,0,0,1.1,1.1,0,0,0,.19.06l0.06,0a1.67,1.67,0,0,0,.61,0,2.92,2.92,0,0,1,.59-0.06,0.81,0.81,0,0,1,.16,0h0.19a1.77,1.77,0,0,0,.24,0l0.2,0a0.32,0.32,0,0,1,.16-0.08c0.05,0,0,.13,0,0.17a3.7,3.7,0,0,0-.49,0,3.39,3.39,0,0,1-.51.12,1.79,1.79,0,0,1-.35,0,1.58,1.58,0,0,0-.55,0L9.86,22a0.27,0.27,0,0,0-.11.06,0,0,0,0,0,0,0,1.06,1.06,0,0,0,.32,0h0.25a3.55,3.55,0,0,1,.4.12,1.56,1.56,0,0,0,.36.06,1.58,1.58,0,0,0,.52-0.07,0.26,0.26,0,0,1,.2,0,1.48,1.48,0,0,1,0,.36c0,0.1,0,.21,0,0.3a0.74,0.74,0,0,1,0,.19,2.07,2.07,0,0,1-.57,0L11,23v0l0.05,0,0.1,0a0,0,0,0,1,0,0h0a0.29,0.29,0,0,1,0,.13,1,1,0,0,1,0,.11s0,0.06,0,.1L11,23.59l-0.15.16-0.11.11-0.12.1L10.56,24l-0.27.28a0.19,0.19,0,0,1-.05.07,2,2,0,0,0-.16.24l-0.05.1L9.9,25a1.63,1.63,0,0,0-.08.29,1.75,1.75,0,0,0,.06.76,1.92,1.92,0,0,0,.05.2c0,0.08.06,0.15,0.09,0.24l0,0H9.88a0.18,0.18,0,0,0-.22.17l0.06,0,0.13,0a0.57,0.57,0,0,1,.2,0,0.86,0.86,0,0,1-.18.24,1.33,1.33,0,0,0-.23.58c0,0.06,0,.15,0,0.21a0,0,0,0,0,0,0h0a0.67,0.67,0,0,1-.1-0.08l-0.17-.2a0.13,0.13,0,0,1,0,0h0v0h0a0.42,0.42,0,0,1-.09-0.1l-0.05,0L8.94,27c-0.09-.11-0.2-0.19-0.29-0.31S8.5,26.51,8.39,26.6l-0.06.05a0.66,0.66,0,0,0,.2.34l0.33,0.44c0.06,0.09.14,0.18,0.2,0.27s0.06,0.13-.07.16l-0.25,0L8.5,28,8.36,28l-0.62.12a1.37,1.37,0,0,0-.37.12,0.08,0.08,0,0,0,0,.11h0a0.12,0.12,0,0,0,.1,0s0,0,0,0-0.07.24-.09,0.36A1.19,1.19,0,0,0,8,29.87a2.37,2.37,0,0,0,1,.3l0.19,0,0.2,0,0.48,0.05h0.2a1.85,1.85,0,0,0,.25,0,0.29,0.29,0,0,1,.12,0l0.1,0.09a1,1,0,0,1,.11.19v0l-0.11.05-0.08.05a1.37,1.37,0,0,0-.25.16,0.66,0.66,0,0,0-.1.11,1.71,1.71,0,0,0-.16.18,2,2,0,0,0-.28.65,0.75,0.75,0,0,0-.06.29,0.07,0.07,0,0,0,0,0h0a1,1,0,0,0,.09-0.07h0l0,0a0.37,0.37,0,0,1,.11,0l0,0s0,0,0,0v0l0.11,0,0,0,0.23-.06,0.11,0h0.07l0.09,0,0.15,0A0.89,0.89,0,0,1,11,31.63a2.2,2.2,0,0,1,.58.11l0,0h0.1l0.13,0,0.22,0,0.06,0a1.78,1.78,0,0,0,.34,0,1.13,1.13,0,0,0,.38-0.1h0l0.07,0a0.08,0.08,0,0,1,0,0l0.07,0a0.68,0.68,0,0,1,.39-0.15,1.14,1.14,0,0,1,.46.14l0.26,0.1,0.07,0,0.06,0,0,0,0.12,0,0.12,0,0.17,0a1.55,1.55,0,0,0,.62-0.08l0.05,0a1.31,1.31,0,0,1,.55-0.14l0.12,0h0.13l0.08,0,0.1,0a0.36,0.36,0,0,0,.24.06l0,0s0,0,0,0l-0.08,0a0.18,0.18,0,0,1,0-.06,0.42,0.42,0,0,0,.12-0.1s0,0,0,0a1,1,0,0,1-.1-0.08,0.24,0.24,0,0,1,.1-0.15,0.07,0.07,0,0,1,0,0,0.26,0.26,0,0,1-.09-0.07,0.5,0.5,0,0,1,.11-0.17,0,0,0,0,1,0,0l-0.09,0a0.24,0.24,0,0,1,.09-0.15,0.24,0.24,0,0,0,0-.05,0.24,0.24,0,0,1,0,0l-0.1,0a1.17,1.17,0,0,0-.3-0.1,1.28,1.28,0,0,0-.62,0l-0.05,0a0,0,0,0,0,0,0l0,0a1.09,1.09,0,0,1-.21.05l0,0a0.06,0.06,0,0,0,0,0,1.14,1.14,0,0,1,.11-0.21A1.1,1.1,0,0,1,16,30.11l0.36-.1a1.78,1.78,0,0,0,.37-0.2A2,2,0,0,0,17,29.64a1,1,0,0,1,.2-0.19,1,1,0,0,1,.27,0h0.11a0.44,0.44,0,0,0,.15,0,0.11,0.11,0,0,0,0,0s0,0,0-.05a0.94,0.94,0,0,0,0-.16A0.53,0.53,0,0,0,17.74,29a0.41,0.41,0,0,1-.1-0.15,1,1,0,0,1,.14-0.31,0.51,0.51,0,0,1,0-.07l0,0a1.42,1.42,0,0,1-.37,0,0.21,0.21,0,0,1-.06-0.11l0,0-0.11-.22,0-.05a3.66,3.66,0,0,1-.52-1.69,0.69,0.69,0,0,1,0-.15,6.54,6.54,0,0,1,.07-0.65,5.24,5.24,0,0,1,.21-0.63,2.87,2.87,0,0,1,.27-0.56,5.37,5.37,0,0,1,.46-0.65,2.59,2.59,0,0,1,.27-0.27,1.42,1.42,0,0,0,.28-0.22,0.18,0.18,0,0,0,0-.11,0.71,0.71,0,0,0-.21.09l-0.11,0a0.58,0.58,0,0,1-.13.06s0,0,0,0,0,0,0,0l0.06-.08h0l0.05,0v0h0l0,0L18,23h0a0.62,0.62,0,0,0,.1-0.1l0.15-.15s0.08-.06,0-0.09-0.18.09-.21,0.12"/>
  <path class="cls-1" d="M12.39,37.69a0.59,0.59,0,0,1-.06-0.17,1.76,1.76,0,0,1,0-.29s0-.08,0-0.11a0.21,0.21,0,0,0-.05-0.1h0l0,0v0c0,0.12,0,.23,0,0.35l0,0.09a1,1,0,0,0,0,.17l0,0.07a0.81,0.81,0,0,0,0,.18h0a0.33,0.33,0,0,0,.1.13v0h0l0,0v0a0.87,0.87,0,0,0-.07-0.21,0.57,0.57,0,0,1,0-.14"/>
  <path class="cls-1" d="M15.5,37.12l0.24,0a2.64,2.64,0,0,0,.48,0,0,0,0,0,0,0,0A0.82,0.82,0,0,0,16,36.79H15.91l-0.44,0c-0.2,0-.42,0-0.61,0s-0.18,0-.27,0H14.17l-0.46,0-0.26.06-0.17.06-0.13,0-0.07,0A0.53,0.53,0,0,0,13,37l-0.05,0h0l-0.07.06-0.09.05,0,0-0.09.07s-0.08.06,0,.09l0,0a0.23,0.23,0,0,0,.15-0.08l0.06,0h0l0.08,0a0.33,0.33,0,0,1,.06,0h0l0.15-.09,0.06,0,0.12,0a0.31,0.31,0,0,1,.08,0l0.09,0a4.1,4.1,0,0,1,.58-0.06h0.24a3.72,3.72,0,0,1,.53,0c0.14,0,.27,0,0.4,0l0.4,0v0h-0.1l-0.14,0c-0.29,0-.58,0-0.87.08-0.11,0-.22,0-0.33,0a2.34,2.34,0,0,0-.64.25s-0.17.11-.1,0.15a0.22,0.22,0,0,0,.22,0l0.06,0h0l0.11,0h0.06a1.23,1.23,0,0,1,.18-0.07h0.06l0,0c0.1,0,.19,0,0.3,0l0.69-.09H15.5"/>
  <path class="cls-1" d="M11.19,37.05a0.21,0.21,0,0,1-.1,0,0.1,0.1,0,0,1,0-.12,0.28,0.28,0,0,1,.08-0.06l0,0,0.06,0v0c-0.15.09-.09,0.12,0,0.14H11.3l0,0-0.13,0m0.29-.3a0.23,0.23,0,0,0-.11,0,0.51,0.51,0,0,0-.25.08l0,0,0,0a0.15,0.15,0,0,0,0,.21,0.29,0.29,0,0,0,.21,0l0.13,0c0.09,0,.26-0.06.25-0.19a0.23,0.23,0,0,0-.14-0.18"/>
  <path class="cls-1" d="M45.2,30L44.87,30V24.61l0.33,0.15V30Zm-0.5-5.68-0.33,0,0.11-.18,0.08,0v0h0l0.05-.1,0.09-.06L44.74,24l0.07,0.13-0.05,0v0l0.08,0.05L45,24.46Zm0,5.76-0.42,0V24.57l0.42-.05v5.53Zm-0.55.06-0.37.07v-6l0.37,0.17v5.79Zm-0.55-6.3-0.39,0,0.13-.21,0.1,0v0h0l0.06-.12,0.11-.06,0.09,0.06,0.08,0.15-0.06,0v0l0.09,0.06L43.93,24Zm0,6.39-0.47,0v-6l0.47-.06v6.15Zm-0.33-6.59h0l0,0h0v0Zm-0.27,6.66-0.43.08V23.52l0.43,0.19v6.56Zm-0.71-7.11-0.53.06L41.83,23,42,22.95V22.88H41.9L42,22.73l0.15-.09,0.12,0.08,0.11,0.19H42.28v0L42.41,23l0.18,0.25Zm0,7.22H41.19V23.51l1.07-.1v7Zm-5.2-6.61L38.9,22.7,41,23.38l-4,.39M41,23.83l-4.23.33V24L41,23.64v0.19Zm0,6.55-1.52,0V29h0a0.09,0.09,0,0,1,0-.19h0V28.72a0.68,0.68,0,1,0-1.35,0v0.1a0.09,0.09,0,0,1,0,.19v1.34H36.75V24.28L41,24v6.42Zm-4.45-.06h-1V23.94l0.67-.07L36.54,24v6.34Zm-0.76-6.73H35.9V23.49H35.82l0.07-.12,0.16-.1,0.16,0.12,0.07,0.11-0.09,0v0.07l0.1,0,0.08,0.13-0.23,0-0.44,0ZM45,24.19h0v0l0.08,0-0.14-.23h0v0h0l-0.07-.12-0.12-.07-0.07,0-0.11.12h0l0,0h0l-0.13.22,0.06,0,0,0h0l0,0.06-0.17-.07-0.26-.45h0v0l0.08,0-0.15-.25h0v0h0l-0.08-.13-0.14-.07-0.08,0-0.12.14h0l0,0h0l-0.13.22L43,23.51,42.55,23H42.5l0,0,0.1,0-0.18-.29h0l0,0H42.4l-0.09-.15-0.16-.08-0.09,0-0.14.16h0l0,0h0l-0.17.28,0.08,0,0,0h0l-0.24.3H41.44l-2.51-.8h0l-2.3,1.33h0l-0.1-.16h0l0,0,0.09,0-0.17-.24h0l0,0h0l-0.09-.13-0.15-.07-0.09,0-0.13.13h0l0,0h0l-0.16.23,0.08,0,0,0h0l-0.14.16-0.25,0V24h0v6.34h0v0.24l7.06,0.06,0.84-.15V30.41h0.43l0.72-.13V30.22l0.41,0,0.64-.12V29.95h0v-5.1h0V24.68l-0.18-.08Z"/>
  <polygon class="cls-1" points="35.8 28.44 35.8 28.89 36.08 28.89 36.08 28.43 35.8 28.44"/>
  <path class="cls-1" d="M35.77,26.22v0.83H36v-0.8a0.21,0.21,0,0,1,.23-0.18l0.09,0a0.26,0.26,0,0,0-.24-0.21,0.33,0.33,0,0,0-.3.32"/>
  <polygon class="cls-1" points="41.54 28.28 41.54 28.79 41.86 28.78 41.86 28.27 41.54 28.28"/>
  <path class="cls-1" d="M41.7,25.94A0.21,0.21,0,0,1,42,25.76l0.12,0a0.28,0.28,0,0,0-.26-0.21,0.37,0.37,0,0,0-.38.32v0.89H41.7V25.94Z"/>
  <polygon class="cls-1" points="38.15 25.16 38.45 25.43 38.45 26.65 39.14 26.63 39.14 25.11 38.15 25.16"/>
  <path class="cls-1" d="M25.71,13.1a0.58,0.58,0,0,0,.26,0,0.06,0.06,0,0,0,0-.12,0.47,0.47,0,0,1-.21,0,0.06,0.06,0,0,0-.07,0,0.06,0.06,0,0,0,0,.07"/>
  <path class="cls-1" d="M26,14.28a0.08,0.08,0,0,0,.05.06,0.29,0.29,0,0,0,.12,0l0.27,0s0.11,0,.17,0,0.13,0,.17,0l0.27,0a0.29,0.29,0,0,0,.12,0,0.08,0.08,0,0,0,.05-0.06,0.08,0.08,0,0,0-.07-0.1,0.45,0.45,0,0,0-.11,0,0.27,0.27,0,0,1-.11,0,0.6,0.6,0,0,0-.21-0.09c-0.05,0-.08,0-0.12,0s-0.07,0-.12,0a0.58,0.58,0,0,0-.21.09,0.27,0.27,0,0,1-.11,0,0.45,0.45,0,0,0-.11,0,0.08,0.08,0,0,0-.07.1"/>
  <path class="cls-1" d="M26.22,13.72l0.12,0a0.13,0.13,0,0,1,.13,0,0.39,0.39,0,0,0,.17.09,0.18,0.18,0,0,0,.13,0,0.17,0.17,0,0,1,.15,0H27a0.08,0.08,0,0,0,.06-0.09A0.23,0.23,0,0,0,27,13.47a0.26,0.26,0,0,0-.12-0.11,0.18,0.18,0,0,0-.08.12,0.17,0.17,0,0,1-.18.07,1.93,1.93,0,0,0-.25-0.07l-0.14,0a0.12,0.12,0,0,0-.08.11,0.08,0.08,0,0,0,.08.08"/>
  <path class="cls-1" d="M29,32.62c0,0.4-.07.42-0.15,1.56s-0.41,5.09-.47,5.57a2.27,2.27,0,0,0,.6-0.24c0-1,.13-6.51.14-6.76S29,32.22,29,32.62"/>
  <path class="cls-1" d="M28,36.59c-0.07.38-.81,3-0.92,3.33a4.23,4.23,0,0,0,.66-0.08c0-.27.3-3,0.32-3.23s-0.07,0-.07,0"/>
  <path class="cls-1" d="M27.17,13.12a0.58,0.58,0,0,0,.26,0,0.06,0.06,0,0,0,0-.07,0.06,0.06,0,0,0-.07,0,0.47,0.47,0,0,1-.21,0,0.06,0.06,0,0,0,0,.12"/>
  <path class="cls-1" d="M26.68,14.52l-0.11,0-0.11,0a0.07,0.07,0,1,0-.05.13,0.41,0.41,0,0,0,.16,0,0.42,0.42,0,0,0,.16,0,0.07,0.07,0,0,0,0-.09,0.07,0.07,0,0,0-.09,0"/>
  <path class="cls-1" d="M22.84,21.77a0.78,0.78,0,0,1,.51.17l-0.12-.4-0.15.09a1.35,1.35,0,0,1-.2.09Z"/>
  <path class="cls-1" d="M30.14,21.63L30,21.54l-0.12.4a0.79,0.79,0,0,1,.51-0.17l0,0a1.28,1.28,0,0,1-.2-0.09"/>
  <path class="cls-1" d="M42.67,18.72v0h0a3.68,3.68,0,1,0-7.36,0v0H34.7A4.09,4.09,0,0,1,39,14.49a4.09,4.09,0,0,1,4.29,4.23H42.67Zm-0.18,0H42.11v0h0a3.12,3.12,0,0,0-6.23,0h0v0H35.49v0h0a3.5,3.5,0,1,1,7,0v0Zm-0.56,0H41.54v0a2.55,2.55,0,0,0-5.1,0h0v0H36.05v0h0a2.94,2.94,0,0,1,5.88,0v0Zm-0.56,0H41a2,2,0,0,0-4,0H36.61a2.38,2.38,0,1,1,4.75,0h0Zm-0.9,0a1.47,1.47,0,0,0-2.94,0H37.16a1.83,1.83,0,0,1,3.66,0H40.46Zm-0.59,0a0.89,0.89,0,0,0-1.77,0H37.7a1.3,1.3,0,0,1,2.59,0H39.88Zm-1.6,0a0.71,0.71,0,0,1,1.42,0H38.28ZM39,14.28a4.34,4.34,0,0,0-4.49,4.48v0.16h9V18.76A4.34,4.34,0,0,0,39,14.28"/>
</svg>
