<?xml version="1.0" encoding="utf-8"?>
<!-- Generator: Adobe Illustrator 19.2.1, SVG Export Plug-In . SVG Version: 6.00 Build 0)  -->
<svg version="1.1" id="Layer_1" xmlns="http://www.w3.org/2000/svg" xmlns:xlink="http://www.w3.org/1999/xlink" x="0px" y="0px"
	 viewBox="0 0 81.4 36.7" enable-background="new 0 0 81.4 36.7" xml:space="preserve">
<path fill="white" d="M15.3,29.4c7.8,0,14-6.3,14-14s-6.3-14-14-14c-7.8,0-14,6.3-14,14S7.6,29.4,15.3,29.4"/>
<path fill="black" d="M6.1,6.1h4.7l6.1,18.1h-3.4c0,0-3.4-9.7-3.6-10.2v10.2H6.1V6.1z M19.5,6.1h4.7v18.1h-3.8V14
	c-0.1,0.4-2.2,6.4-2.9,8.4l-1.7-5.1L19.5,6.1z M15.1,30.2c8.3,0,15.1-6.8,15.1-15.1C30.2,6.8,23.4,0,15.1,0C6.8,0,0,6.8,0,15.1
	C0,23.4,6.8,30.2,15.1,30.2"/>
<path fill="black" d="M42.3,33.2l-3-8.7h-3.2v12.1h2.3v-7.6c0.1,0.4,2.7,7.6,2.7,7.6h2.3c0.9-2.6,2.6-7.3,2.7-7.6
	c0,0.9,0,7.6,0,7.6h2.3V24.4h-3.2L42.3,33.2z"/>
<path fill="black" d="M70.6,27.7c-0.7,0-1.2,0.5-2,1.9c0-0.3-0.1-1.7-0.1-1.7h-2.1v8.8h2.4v-4c0-0.6,0.2-1.1,0.6-1.6
	c0.3-0.4,0.7-0.6,1-0.6c0.2,0,0.4,0.1,0.6,0.2l0.1,0.1l0.8-2.3l0,0C71.5,27.9,71.1,27.7,70.6,27.7"/>
<path fill="black" d="M76.9,34.9c-1.1,0-2-1.2-2-2.7c0-1.5,0.9-2.7,2-2.7c1.1,0,2,1.2,2,2.7C78.9,33.6,78,34.9,76.9,34.9
	 M76.9,27.5c-2.5,0-4.4,2-4.4,4.6c0,2.6,1.9,4.6,4.4,4.6c2.5,0,4.5-2,4.5-4.6C81.4,29.5,79.5,27.5,76.9,27.5"/>
<path fill="black" d="M64.5,36l0.6-0.4l0,0l-0.7-1.7l-0.1,0c-0.6,0.4-0.9,0.5-1.2,0.5c-0.3,0-0.4-0.2-0.4-1.2v-3.8h1.9v-1.8h-1.9
	v-2.6l-0.1-0.4l-2.2,0.4v2.6L59.2,28v1.5h1.3v5.3c0,1.3,0.6,1.9,1.8,1.9c0.6,0,1.3-0.2,2-0.6L64.5,36z"/>
<path fill="black" d="M54.3,29.3c1,0,1.4,0.5,1.5,1.7h-3.3C52.7,30,53.4,29.3,54.3,29.3 M58.2,35.7L58.2,35.7l-0.8-1.8l-0.1,0
	c-0.8,0.5-1.1,0.7-1.7,0.8c-0.3,0.1-0.6,0.1-1,0.1c-0.8,0-1.5-0.4-1.9-1c-0.2-0.3-0.3-0.6-0.3-1.3h5.8v-1c0-2.4-1.5-4-3.7-4
	c-2.5,0-4.4,2.1-4.4,4.8c0,2.7,1.7,4.4,4.3,4.4c1,0,2-0.2,2.9-0.6C57.4,36,57.7,35.9,58.2,35.7"/>
</svg>
