<?xml version="1.0" encoding="utf-8"?>
<!-- Generator: Adobe Illustrator 21.0.2, SVG Export Plug-In . SVG Version: 6.00 Build 0)  -->
<svg version="1.1" xmlns="http://www.w3.org/2000/svg" xmlns:xlink="http://www.w3.org/1999/xlink" x="0px" y="0px"
	 viewBox="0 0 1200 1200" style="enable-background:new 0 0 1200 1200;" xml:space="preserve">
<style type="text/css">
	.st0{fill:#F7EE6E;}
	.st1{fill:#FFFFFF;}
	.st2{fill:#FBF070;}
</style>
<g id="Color_BG">
</g>
<g id="Lights">
</g>
<g id="Type">
	<g>
		<g>
			<path class="st0" d="M131.7,500.5L60.1,355.1c-6.3-12.4-11.1-23-14.2-31.5c-1.3-3.4-2.5-6.8-3.7-10c0.2,3.9,0.4,8,0.6,12.3
				c0.3,9.9,0.5,21.4,0.5,34.4v140.2H19.8V272.6h26.5l74.2,152c4.8,9.7,8.7,18.6,11.8,26.2c1.2,2.9,2.3,5.9,3.4,8.8
				c-0.2-3.3-0.5-6.7-0.6-10.2c-0.4-8.6-0.7-18.7-0.7-30.1V272.6h23.4v227.9H131.7z"/>
			<path class="st0" d="M155.8,274.7v223.7H133L62,354.1c-6.3-12.4-11-22.8-14.2-31.3c-3.1-8.5-5.9-16.2-8.3-23.1h-0.7
				c0.9,7.6,1.5,16.3,1.8,26.2c0.3,9.9,0.5,21.3,0.5,34.4v138.1H21.9V274.7h23.1l73.6,150.8c4.8,9.8,8.7,18.5,11.7,26.1
				c3,7.6,5.7,15,8.1,22.1h0.7c-0.9-7.6-1.5-15.7-2-24.4c-0.4-8.7-0.7-18.7-0.7-30V274.7H155.8 M160,270.5h-4.2h-19.2h-4.2v4.2
				v144.6c0,10.1,0.2,19.2,0.5,27.2c-2.8-6.8-6.3-14.5-10.4-22.8L48.8,272.8l-1.2-2.4h-2.6H21.9h-4.2v4.2v223.7v4.2h4.2h19.2h4.2
				v-4.2V360.3c0-12.5-0.2-23.7-0.5-33.3c3.2,8.1,7.6,17.8,13.3,29l71,144.2l1.2,2.4h2.6h22.8h4.2v-4.2V274.7V270.5L160,270.5z"/>
		</g>
		<g>
			<path class="st1" d="M222.2,501.4c-3.7,0-7-1.3-9.7-3.9c-2.7-2.6-4.1-5.9-4.1-9.9c0-4,1.4-7.3,4.1-9.9c2.7-2.6,5.9-3.9,9.7-3.9
				c3.7,0,7,1.3,9.7,3.9c2.7,2.6,4.1,5.9,4.1,9.9c0,4-1.4,7.3-4.1,9.9C229.2,500.1,225.9,501.4,222.2,501.4z"/>
			<path class="st1" d="M222.2,474.9c3.5,0,6.5,1.2,9,3.6c2.5,2.4,3.7,5.4,3.7,9.1c0,3.7-1.3,6.7-3.7,9.1c-2.5,2.4-5.5,3.6-9,3.6
				c-3.5,0-6.5-1.2-9-3.6c-2.5-2.4-3.7-5.4-3.7-9.1c0-3.7,1.2-6.7,3.7-9.1C215.7,476.1,218.7,474.9,222.2,474.9 M222.2,472.8
				c-4,0-7.5,1.4-10.4,4.2c-2.9,2.8-4.4,6.4-4.4,10.6c0,4.3,1.5,7.9,4.4,10.6c2.9,2.8,6.4,4.2,10.4,4.2c4,0,7.5-1.4,10.4-4.2
				c2.9-2.8,4.4-6.4,4.4-10.6c0-4.3-1.5-7.8-4.4-10.6C229.7,474.2,226.2,472.8,222.2,472.8L222.2,472.8z"/>
		</g>
		<g>
			<path class="st0" d="M330.8,500.5v-89.9l-65.7-138h28.1l40.6,88.5c3,6.5,5.5,12.2,7.2,16.9c1,2.8,2,5.6,3,8.4
				c1-2.8,1.9-5.5,2.8-8.2c1.5-4.6,3.9-10.4,6.9-17.1l40.6-88.5h26.5l-65,138.7v89.2H330.8z"/>
			<path class="st0" d="M417.6,274.7l-63.8,136.1v87.6h-20.8v-88.2l-64.5-135.5h23.4l40.1,87.3c3,6.5,5.4,12.1,7.2,16.8
				c1.7,4.7,3.4,9.4,4.9,14.2c1.7-4.8,3.4-9.4,4.9-14c1.5-4.6,3.8-10.2,6.8-16.9l40.1-87.3H417.6 M424.2,270.5h-6.6h-21.8H393
				l-1.1,2.5l-40.1,87.3c-3.1,6.9-5.5,12.7-7,17.4c-0.3,0.8-0.5,1.6-0.8,2.4c-0.3-0.9-0.7-1.8-1-2.7c-1.8-4.8-4.2-10.5-7.3-17.1
				l-40-87.2l-1.1-2.5h-2.7h-23.4h-6.7l2.9,6l64.1,134.6v87.3v4.2h4.2h20.8h4.2v-4.2v-86.7l63.4-135.3L424.2,270.5L424.2,270.5z"/>
		</g>
		<g>
			<path class="st1" d="M463.8,501.4c-3.7,0-7-1.3-9.7-3.9c-2.7-2.6-4.1-5.9-4.1-9.9c0-4,1.4-7.3,4.1-9.9c2.7-2.6,5.9-3.9,9.7-3.9
				c3.7,0,7,1.3,9.7,3.9c2.7,2.6,4.1,5.9,4.1,9.9c0,4-1.4,7.3-4.1,9.9C470.8,500.1,467.5,501.4,463.8,501.4z"/>
			<path class="st1" d="M463.8,474.9c3.5,0,6.5,1.2,9,3.6c2.5,2.4,3.7,5.4,3.7,9.1c0,3.7-1.3,6.7-3.7,9.1c-2.5,2.4-5.5,3.6-9,3.6
				c-3.5,0-6.5-1.2-9-3.6c-2.5-2.4-3.7-5.4-3.7-9.1c0-3.7,1.2-6.7,3.7-9.1C457.3,476.1,460.3,474.9,463.8,474.9 M463.8,472.8
				c-4,0-7.5,1.4-10.4,4.2c-2.9,2.8-4.4,6.4-4.4,10.6c0,4.3,1.5,7.9,4.4,10.6c2.9,2.8,6.4,4.2,10.4,4.2c4,0,7.5-1.4,10.4-4.2
				c2.9-2.8,4.4-6.4,4.4-10.6c0-4.3-1.5-7.8-4.4-10.6C471.3,474.2,467.8,472.8,463.8,472.8L463.8,472.8z"/>
		</g>
		<g>
			<polygon class="st0" points="528.1,500.5 528.1,272.6 643.1,272.6 643.1,294.4 552.9,294.4 552.9,369.9 626.1,369.9 626.1,391.7 
				552.9,391.7 552.9,478.7 647,478.7 647,500.5 			"/>
			<path class="st0" d="M640.9,274.7v17.6h-90.2V372H624v17.6h-73.3v91.2h94.1v17.6H530.2V274.7H640.9 M645.2,270.5h-4.2H530.2H526
				v4.2v223.7v4.2h4.2h114.6h4.2v-4.2v-17.6v-4.2h-4.2H555v-82.7H624h4.2v-4.2V372v-4.2H624H555v-71.3h86h4.2v-4.2v-17.6V270.5
				L645.2,270.5z"/>
		</g>
		<g>
			<path class="st1" d="M697,501.4c-3.7,0-7-1.3-9.7-3.9c-2.7-2.6-4.1-5.9-4.1-9.9c0-4,1.4-7.3,4.1-9.9c2.7-2.6,5.9-3.9,9.7-3.9
				c3.7,0,7,1.3,9.7,3.9c2.7,2.6,4.1,5.9,4.1,9.9c0,4-1.4,7.3-4.1,9.9C703.9,500.1,700.7,501.4,697,501.4z"/>
			<path class="st1" d="M697,474.9c3.5,0,6.5,1.2,9,3.6c2.5,2.4,3.7,5.4,3.7,9.1c0,3.7-1.3,6.7-3.7,9.1c-2.5,2.4-5.5,3.6-9,3.6
				c-3.5,0-6.5-1.2-9-3.6c-2.5-2.4-3.7-5.4-3.7-9.1c0-3.7,1.2-6.7,3.7-9.1C690.5,476.1,693.5,474.9,697,474.9 M697,472.8
				c-4,0-7.5,1.4-10.4,4.2c-2.9,2.8-4.4,6.4-4.4,10.6c0,4.3,1.5,7.9,4.4,10.6c2.9,2.8,6.4,4.2,10.4,4.2c4,0,7.5-1.4,10.4-4.2
				c2.9-2.8,4.4-6.4,4.4-10.6c0-4.3-1.5-7.8-4.4-10.6C704.5,474.2,701,472.8,697,472.8L697,472.8z"/>
		</g>
		<g>
			<polygon class="st0" points="761.3,500.5 761.3,272.6 786,272.6 786,478.7 869,478.7 869,500.5 			"/>
			<path class="st0" d="M783.9,274.7v206.1h83v17.6H763.4V274.7H783.9 M788.1,270.5h-4.2h-20.5h-4.2v4.2v223.7v4.2h4.2h103.5h4.2
				v-4.2v-17.6v-4.2h-4.2h-78.8V274.7V270.5L788.1,270.5z"/>
		</g>
		<g>
			<path class="st1" d="M917.7,501.4c-3.7,0-7-1.3-9.7-3.9c-2.7-2.6-4.1-5.9-4.1-9.9c0-4,1.4-7.3,4.1-9.9c2.7-2.6,5.9-3.9,9.7-3.9
				c3.7,0,7,1.3,9.7,3.9c2.7,2.6,4.1,5.9,4.1,9.9c0,4-1.4,7.3-4.1,9.9C924.7,500.1,921.5,501.4,917.7,501.4z"/>
			<path class="st1" d="M917.7,474.9c3.5,0,6.5,1.2,9,3.6c2.5,2.4,3.7,5.4,3.7,9.1c0,3.7-1.3,6.7-3.7,9.1c-2.5,2.4-5.5,3.6-9,3.6
				c-3.5,0-6.5-1.2-9-3.6c-2.5-2.4-3.7-5.4-3.7-9.1c0-3.7,1.2-6.7,3.7-9.1C911.3,476.1,914.2,474.9,917.7,474.9 M917.7,472.8
				c-4,0-7.5,1.4-10.4,4.2c-2.9,2.8-4.4,6.4-4.4,10.6c0,4.3,1.5,7.9,4.4,10.6c2.9,2.8,6.4,4.2,10.4,4.2c4,0,7.5-1.4,10.4-4.2
				c2.9-2.8,4.4-6.4,4.4-10.6c0-4.3-1.5-7.8-4.4-10.6C925.2,474.2,921.7,472.8,917.7,472.8L917.7,472.8z"/>
		</g>
		<g>
			<path class="st0" d="M1099.1,500.5l-21.2-72h-71.4l-22.1,72h-25.3l71.3-227.9h25.6l69.7,227.9H1099.1z M1071.5,406.7l-18.1-60.8
				c-3.7-12.3-6.4-22.5-8-30.1c-0.9-4-1.7-7.9-2.4-11.6c-0.8,3.8-1.7,7.7-2.6,11.9c-1.9,7.9-4.7,17.9-8.3,29.8l-18.7,60.8H1071.5z"
				/>
			<path class="st0" d="M1054.5,274.7l68.4,223.7h-22.1l-21.2-72H1005l-22.1,72H962l70-223.7H1054.5 M1010.5,408.8h63.8l-18.9-63.5
				c-3.7-12.4-6.3-22.4-8-30c-1.6-7.6-3-14.5-4.1-20.8h-0.7c-1.1,6.3-2.6,13.4-4.4,21.2c-1.8,7.8-4.6,17.7-8.3,29.6L1010.5,408.8
				 M1057.6,270.5h-3.1H1032h-3.1l-0.9,3l-70,223.7l-1.7,5.5h5.7h20.8h3.1l0.9-3l21.2-69h68.3l20.3,68.9l0.9,3h3.2h22.1h5.7
				l-1.7-5.4l-68.4-223.7L1057.6,270.5L1057.6,270.5z M1016.2,404.6l17.9-58c3.7-12,6.5-22,8.4-29.9c0.2-0.7,0.3-1.5,0.5-2.2
				c0.1,0.6,0.3,1.2,0.4,1.8c1.6,7.7,4.4,17.9,8.1,30.3l17.3,58.1H1016.2L1016.2,404.6z"/>
		</g>
		<g>
			<path class="st1" d="M1167.5,501.4c-3.7,0-7-1.3-9.7-3.9c-2.7-2.6-4.1-5.9-4.1-9.9c0-4,1.4-7.3,4.1-9.9c2.7-2.6,5.9-3.9,9.7-3.9
				c3.7,0,7,1.3,9.7,3.9c2.7,2.6,4.1,5.9,4.1,9.9c0,4-1.4,7.3-4.1,9.9C1174.5,500.1,1171.2,501.4,1167.5,501.4z"/>
			<path class="st1" d="M1167.5,474.9c3.5,0,6.5,1.2,9,3.6c2.5,2.4,3.7,5.4,3.7,9.1c0,3.7-1.3,6.7-3.7,9.1c-2.5,2.4-5.5,3.6-9,3.6
				c-3.5,0-6.5-1.2-9-3.6c-2.5-2.4-3.7-5.4-3.7-9.1c0-3.7,1.2-6.7,3.7-9.1C1161,476.1,1164,474.9,1167.5,474.9 M1167.5,472.8
				c-4,0-7.5,1.4-10.4,4.2c-2.9,2.8-4.4,6.4-4.4,10.6c0,4.3,1.5,7.9,4.4,10.6c2.9,2.8,6.4,4.2,10.4,4.2c4,0,7.5-1.4,10.4-4.2
				c2.9-2.8,4.4-6.4,4.4-10.6c0-4.3-1.5-7.8-4.4-10.6C1175,474.2,1171.5,472.8,1167.5,472.8L1167.5,472.8z"/>
		</g>
	</g>
	<g>
		<path class="st2" d="M329.7,1134.2v-3.2h3.7l1.1-7.7h3.2c-0.2,1.5-0.4,2.7-0.6,3.8c-0.1,0.5-0.2,1-0.2,1.4
			c-0.1,0.4-0.1,0.9-0.2,1.2c-0.1,0.4-0.1,0.8-0.2,1.2h4l1.1-7.7h3.2c-0.2,1.5-0.4,2.7-0.6,3.8c-0.1,0.5-0.2,1-0.2,1.4
			c-0.1,0.4-0.1,0.9-0.2,1.2c-0.1,0.4-0.1,0.8-0.2,1.2h3.1v3.2h-3.5l-0.8,5.3h3.2v3.2h-3.7l-1.1,8h-3.2l1.1-8h-4l-1.1,8h-3.2l1.1-8
			h-3.1v-3.2h3.6l0.8-5.3H329.7z M336.2,1134.2l-0.8,5.3h4l0.8-5.3H336.2z"/>
		<path class="st2" d="M360,1123.3h4.6l6.7,13.9c0.5,1.1,1,2.2,1.4,3.4c0.4,1.2,0.8,2.2,1.1,3.1h0c-0.1-0.9-0.2-2-0.3-3.4
			c-0.1-1.4-0.2-2.8-0.2-4.1v-12.9h4.4v27.4h-4.9l-6.2-13.1c-0.8-1.6-1.3-2.9-1.7-4c-0.4-1.1-0.7-2.1-1-3.1h-0.1
			c0.1,0.8,0.2,2,0.3,3.4c0.1,1.5,0.2,3,0.2,4.7v12H360V1123.3z"/>
		<path class="st2" d="M397.3,1139.4l-7.5-16h5.4l3.1,7.5c0.3,0.8,0.6,1.6,0.9,2.3c0.2,0.7,0.5,1.5,0.7,2.2c0.2-0.8,0.4-1.5,0.6-2.2
			c0.2-0.7,0.5-1.5,0.8-2.3l3.3-7.5h5.1l-7.6,16v11.4h-4.8V1139.4z"/>
		<path class="st2" d="M421.8,1123.3h14.3v4.1h-9.5v7h7.6v4h-7.6v8.2h10.1v4.1h-14.9V1123.3z"/>
		<path class="st2" d="M449.9,1123.3h4.8v23.3h8.8v4.1h-13.6V1123.3z"/>
		<path class="st2" d="M482.2,1123.3h5.1l7.8,27.4h-5.1l-1.7-6.8h-7.4l-1.8,6.8h-4.9L482.2,1123.3z M481.8,1140.2h5.5l-1.2-4.7
			c-0.2-0.8-0.4-1.6-0.6-2.2c-0.2-0.6-0.3-1.2-0.4-1.8c-0.1-0.5-0.2-1-0.3-1.5c-0.1-0.4-0.1-0.9-0.2-1.3h-0.1
			c-0.1,0.4-0.2,0.9-0.2,1.4c-0.1,0.5-0.2,1-0.3,1.5c-0.1,0.5-0.2,1.1-0.4,1.8c-0.2,0.6-0.4,1.4-0.6,2.2L481.8,1140.2z"/>
		<path class="st2" d="M537.5,1157.6c-2.2,0-4.2-0.3-5.9-0.9c-1.7-0.6-3.2-1.6-4.4-2.8c-1.2-1.2-2.1-2.8-2.8-4.7c-0.6-1.9-1-4-1-6.5
			c0-2.5,0.4-4.8,1.1-6.9c0.7-2.1,1.8-3.9,3.2-5.5c1.4-1.5,3.1-2.8,5-3.6c2-0.9,4.2-1.3,6.7-1.3c2.2,0,4.2,0.3,5.9,1
			c1.7,0.6,3.2,1.6,4.3,2.8c1.2,1.2,2,2.7,2.7,4.4s0.9,3.7,0.9,5.8c0,2-0.2,3.8-0.6,5.3c-0.4,1.5-0.9,2.7-1.6,3.6
			c-0.7,0.9-1.5,1.7-2.5,2.1c-1,0.5-2,0.7-3.2,0.7c-1.7,0-2.9-0.4-3.7-1.1s-1.3-1.7-1.5-2.9c-0.7,0.9-1.5,1.6-2.5,2.3
			c-0.9,0.7-2,1-3.2,1c-1.1,0-2.1-0.4-2.8-1.3c-0.7-0.9-1.1-2.3-1.1-4.2c0-1.2,0.2-2.7,0.5-4.3c0.3-1.5,0.7-2.7,1.1-3.8
			c0.4-1,1-1.9,1.6-2.5s1.3-1.1,2-1.4c0.7-0.3,1.6-0.4,2.5-0.4c0.9,0,1.7,0.2,2.3,0.6c0.6,0.4,1.1,0.8,1.5,1.1l0.3-1.3h4l-2.5,11.6
			c-0.1,0.4-0.2,0.9-0.2,1.3c0,0.7,0.2,1.2,0.5,1.5c0.3,0.3,0.7,0.5,1.2,0.5c0.6,0,1.2-0.2,1.6-0.5c0.5-0.3,0.9-0.8,1.3-1.5
			c0.4-0.7,0.6-1.6,0.8-2.7c0.2-1.1,0.3-2.4,0.3-4c0-1.8-0.2-3.4-0.6-4.8c-0.4-1.4-1-2.5-1.8-3.4c-0.8-0.9-1.8-1.6-3.1-2
			c-1.3-0.4-2.8-0.7-4.7-0.7c-2,0-3.8,0.4-5.2,1c-1.5,0.7-2.7,1.7-3.7,2.9c-1,1.3-1.7,2.7-2.2,4.5c-0.5,1.7-0.8,3.6-0.8,5.7
			c0,2.1,0.2,3.9,0.6,5.4c0.4,1.5,1,2.7,1.9,3.6c0.8,0.9,1.9,1.6,3.1,2c1.3,0.4,2.7,0.6,4.5,0.6c1.1,0,2.1-0.1,3-0.3
			c0.9-0.2,1.7-0.4,2.6-0.7l1,3c-1,0.4-2,0.7-3.1,0.9C539.9,1157.5,538.8,1157.6,537.5,1157.6z M536.1,1147.3c0.7,0,1.3-0.2,2-0.7
			s1.2-1,1.8-1.5l1.7-8.2c-0.3-0.3-0.6-0.5-1-0.8c-0.4-0.3-0.9-0.4-1.5-0.4c-0.5,0-0.9,0.1-1.3,0.3c-0.4,0.2-0.7,0.5-1,0.9
			c-0.3,0.4-0.5,1-0.7,1.7c-0.2,0.7-0.4,1.6-0.7,2.7c-0.4,1.8-0.6,3.2-0.6,4.1c0,0.7,0.1,1.3,0.3,1.5
			C535.3,1147.2,535.7,1147.3,536.1,1147.3z"/>
		<path class="st2" d="M572.9,1158.3c-2.9,0-5-0.5-6.3-1.4c-1.3-0.9-2-2.2-2-3.9c0-1,0.3-1.8,0.8-2.4c0.5-0.6,1.1-1.1,1.8-1.5
			c-1.1-0.7-1.6-1.7-1.6-3c0-1,0.2-1.8,0.6-2.4c0.4-0.6,0.9-1.2,1.5-1.6c-1.6-1.1-2.5-2.9-2.5-5.3c0-2.1,0.6-3.8,1.9-4.9
			s3.1-1.7,5.6-1.7c1.2,0,2.2,0.2,3.2,0.5h5.9v2.5l-2.3,0.8c0.4,0.9,0.7,2,0.7,3.1c0,4.2-2.5,6.3-7.5,6.3c-0.4,0-0.9,0-1.2-0.1
			c-0.4,0-0.7-0.1-1.1-0.1c-0.2,0.3-0.4,0.6-0.6,0.9c-0.2,0.3-0.3,0.7-0.3,1c0,0.3,0.1,0.5,0.3,0.7s0.6,0.3,1,0.3h3.6
			c1.1,0,2,0.1,2.9,0.3c0.9,0.2,1.6,0.6,2.2,1c0.6,0.5,1.1,1,1.4,1.8s0.5,1.6,0.5,2.6c0,2.2-0.7,3.8-2.1,4.9
			C578.2,1157.8,576,1158.3,572.9,1158.3z M569.7,1149.9c-0.3,0.3-0.5,0.7-0.6,1.1c-0.2,0.4-0.2,0.9-0.2,1.5c0,0.4,0,0.8,0.1,1.2
			c0.1,0.3,0.3,0.6,0.6,0.8s0.7,0.4,1.3,0.5c0.5,0.1,1.3,0.2,2.2,0.2c2.9,0,4.3-1,4.3-3c0-0.9-0.3-1.5-0.9-1.8
			c-0.6-0.3-1.4-0.4-2.6-0.4H569.7z M572.9,1140.2c1.1,0,1.9-0.3,2.4-0.8c0.5-0.5,0.7-1.4,0.7-2.5c0-1.2-0.2-2-0.7-2.6
			c-0.4-0.5-1.3-0.8-2.5-0.8c-1.1,0-1.9,0.3-2.3,0.8c-0.5,0.5-0.7,1.4-0.7,2.6c0,1.1,0.2,2,0.7,2.5
			C571,1139.9,571.8,1140.2,572.9,1140.2z"/>
		<path class="st2" d="M594.2,1130.7h3.6l0.5,2.5c0.7-0.9,1.5-1.6,2.3-2.1c0.9-0.5,1.8-0.8,2.9-0.8c0.2,0,0.4,0,0.7,0
			c0.2,0,0.4,0.1,0.5,0.1l-0.7,4.6c-0.4-0.2-1-0.4-1.6-0.4c-0.8,0-1.4,0.1-2,0.4c-0.6,0.2-1.1,0.6-1.7,1.1v14.5h-4.5V1130.7z"/>
		<path class="st2" d="M621.1,1151.2c-2,0-3.5-0.5-4.5-1.6c-1-1.1-1.5-2.7-1.5-4.7c0-2.3,0.7-4,2.1-5c1.4-1,3.7-1.6,6.8-1.6h1.4
			v-1.1c0-0.5,0-1-0.1-1.4c-0.1-0.4-0.2-0.7-0.3-1c-0.2-0.3-0.4-0.5-0.8-0.6c-0.3-0.1-0.8-0.2-1.3-0.2c-1,0-2,0.2-2.9,0.6
			s-1.8,0.8-2.7,1.3l-1.7-3.2c1.1-0.7,2.2-1.2,3.4-1.7c1.2-0.4,2.6-0.7,4.2-0.7c2.2,0,3.9,0.5,5,1.4c1.1,1,1.6,2.6,1.6,4.8v14.3
			h-3.5l-0.6-1.7c-0.6,0.6-1.2,1.1-2,1.6C623.2,1151,622.2,1151.2,621.1,1151.2z M622.1,1148c0.8,0,1.4-0.2,2-0.5
			c0.6-0.4,1-0.7,1.4-1.1v-5.1h-0.7c-1.1,0-2,0.1-2.6,0.2c-0.7,0.1-1.2,0.4-1.5,0.7c-0.4,0.3-0.6,0.7-0.7,1.1
			c-0.1,0.5-0.2,1-0.2,1.6c0,1.2,0.2,2,0.6,2.4C620.7,1147.7,621.3,1148,622.1,1148z"/>
		<path class="st2" d="M643.7,1130.7h3.6l0.5,2.2c0.8-0.8,1.7-1.4,2.6-1.9c0.9-0.5,2-0.8,3.3-0.8c1.6,0,2.8,0.4,3.7,1.2
			c0.9,0.8,1.3,2.1,1.3,4v15.3h-4.5v-14.2c0-1.1-0.2-1.8-0.5-2.1c-0.3-0.3-0.9-0.5-1.6-0.5c-0.7,0-1.4,0.2-2,0.5
			c-0.6,0.3-1.2,0.8-1.8,1.3v15h-4.5V1130.7z"/>
		<path class="st2" d="M678.3,1151.2c-1,0-1.9-0.2-2.8-0.5c-0.8-0.3-1.6-0.9-2.2-1.7c-0.6-0.8-1.1-1.9-1.4-3.2c-0.3-1.3-0.5-3-0.5-5
			c0-2,0.1-3.7,0.4-5c0.3-1.4,0.7-2.5,1.2-3.3c0.6-0.8,1.3-1.4,2.1-1.8c0.8-0.4,1.8-0.6,3-0.6c1.1,0,2,0.2,2.9,0.7
			c0.8,0.4,1.5,0.9,2.1,1.5v-10.4h4.5v28.8H684l-0.5-2c-0.8,0.8-1.6,1.4-2.4,1.9S679.3,1151.2,678.3,1151.2z M679.3,1147.5
			c0.8,0,1.5-0.1,2.1-0.4c0.6-0.3,1.2-0.7,1.7-1.2v-10.4c-0.4-0.4-1-0.8-1.6-1.1c-0.6-0.3-1.2-0.5-2-0.5c-0.6,0-1.2,0.1-1.6,0.3
			c-0.4,0.2-0.8,0.5-1,1c-0.3,0.5-0.5,1.2-0.6,2.1c-0.1,0.9-0.2,2.1-0.2,3.5c0,1.4,0.1,2.6,0.2,3.5c0.1,0.9,0.3,1.6,0.5,2.1
			c0.2,0.5,0.6,0.8,1,1C678.2,1147.4,678.7,1147.5,679.3,1147.5z"/>
		<path class="st2" d="M701.4,1130.7h3.6l0.5,2.1c0.8-0.8,1.6-1.5,2.5-1.9c0.9-0.5,1.8-0.7,2.9-0.7c1,0,1.9,0.2,2.8,0.5
			c0.8,0.3,1.5,0.9,2.1,1.6c0.6,0.8,1.1,1.8,1.4,3.1c0.3,1.3,0.5,3,0.5,5c0,2-0.1,3.7-0.4,5c-0.3,1.4-0.7,2.5-1.2,3.3
			c-0.6,0.8-1.3,1.5-2.1,1.8c-0.9,0.4-1.9,0.6-3,0.6c-1.1,0-2-0.2-2.9-0.6c-0.8-0.4-1.5-0.9-2.1-1.4v9.3h-4.5V1130.7z M709.4,1147.5
			c0.6,0,1.2-0.1,1.6-0.3c0.4-0.2,0.8-0.5,1-1c0.3-0.5,0.5-1.2,0.6-2.1c0.1-0.9,0.2-2.1,0.2-3.5c0-1.4-0.1-2.6-0.2-3.5
			c-0.1-0.9-0.3-1.6-0.5-2.1c-0.2-0.5-0.6-0.8-1-1c-0.4-0.2-0.9-0.3-1.5-0.3c-0.8,0-1.5,0.2-2.1,0.5c-0.6,0.3-1.1,0.8-1.7,1.3v10.4
			c0.4,0.4,1,0.8,1.6,1.1C708.1,1147.4,708.7,1147.5,709.4,1147.5z"/>
		<path class="st2" d="M735.2,1151.2c-2,0-3.5-0.5-4.5-1.6c-1-1.1-1.5-2.7-1.5-4.7c0-2.3,0.7-4,2.1-5c1.4-1,3.7-1.6,6.8-1.6h1.4
			v-1.1c0-0.5,0-1-0.1-1.4c-0.1-0.4-0.2-0.7-0.3-1c-0.2-0.3-0.4-0.5-0.8-0.6c-0.3-0.1-0.8-0.2-1.3-0.2c-1,0-2,0.2-2.9,0.6
			s-1.8,0.8-2.7,1.3l-1.7-3.2c1.1-0.7,2.2-1.2,3.4-1.7c1.2-0.4,2.6-0.7,4.2-0.7c2.2,0,3.9,0.5,5,1.4c1.1,1,1.6,2.6,1.6,4.8v14.3
			h-3.5l-0.6-1.7c-0.6,0.6-1.2,1.1-2,1.6C737.3,1151,736.3,1151.2,735.2,1151.2z M736.2,1148c0.8,0,1.4-0.2,2-0.5
			c0.6-0.4,1-0.7,1.4-1.1v-5.1h-0.7c-1.1,0-2,0.1-2.6,0.2c-0.7,0.1-1.2,0.4-1.5,0.7c-0.4,0.3-0.6,0.7-0.7,1.1
			c-0.1,0.5-0.2,1-0.2,1.6c0,1.2,0.2,2,0.6,2.4C734.7,1147.7,735.4,1148,736.2,1148z"/>
		<path class="st2" d="M757.8,1130.7h3.6l0.5,2.5c0.7-0.9,1.5-1.6,2.3-2.1c0.9-0.5,1.8-0.8,2.9-0.8c0.2,0,0.4,0,0.7,0
			c0.2,0,0.4,0.1,0.5,0.1l-0.7,4.6c-0.4-0.2-1-0.4-1.6-0.4c-0.8,0-1.4,0.1-2,0.4c-0.6,0.2-1.1,0.6-1.7,1.1v14.5h-4.5V1130.7z"/>
		<path class="st2" d="M780,1121.9h4.5v28.8H780V1121.9z M784.7,1139.4l5.5-8.7h5l-5.8,8.4l6.8,11.7h-5L784.7,1139.4z"/>
		<path class="st2" d="M804.8,1152.9h13.7v3.6h-13.7V1152.9z"/>
		<path class="st2" d="M833.9,1151.2c-0.8,0-1.5-0.1-2.1-0.3c-0.6-0.2-1-0.6-1.3-1c-0.3-0.4-0.5-1-0.7-1.7c-0.1-0.7-0.2-1.6-0.2-2.5
			v-23.6h4.5v24.2c0,0.6,0.1,1,0.3,1.2c0.2,0.2,0.6,0.3,1.1,0.3h0.2c0.1,0,0.2,0,0.4,0l0.6,3c-0.3,0.1-0.7,0.3-1.3,0.4
			C834.9,1151.1,834.4,1151.2,833.9,1151.2z"/>
		<path class="st2" d="M853.4,1151.2c-2,0-3.5-0.5-4.5-1.6c-1-1.1-1.5-2.7-1.5-4.7c0-2.3,0.7-4,2.1-5c1.4-1,3.7-1.6,6.8-1.6h1.4
			v-1.1c0-0.5,0-1-0.1-1.4c-0.1-0.4-0.2-0.7-0.3-1c-0.2-0.3-0.4-0.5-0.8-0.6c-0.3-0.1-0.8-0.2-1.3-0.2c-1,0-2,0.2-2.9,0.6
			s-1.8,0.8-2.7,1.3l-1.7-3.2c1.1-0.7,2.2-1.2,3.4-1.7c1.2-0.4,2.6-0.7,4.2-0.7c2.2,0,3.9,0.5,5,1.4c1.1,1,1.6,2.6,1.6,4.8v14.3
			h-3.5l-0.6-1.7c-0.6,0.6-1.2,1.1-2,1.6C855.5,1151,854.5,1151.2,853.4,1151.2z M854.4,1148c0.8,0,1.4-0.2,2-0.5
			c0.6-0.4,1-0.7,1.4-1.1v-5.1h-0.7c-1.1,0-2,0.1-2.6,0.2c-0.7,0.1-1.2,0.4-1.5,0.7c-0.4,0.3-0.6,0.7-0.7,1.1
			c-0.1,0.5-0.2,1-0.2,1.6c0,1.2,0.2,2,0.6,2.4C852.9,1147.7,853.6,1148,854.4,1148z"/>
	</g>
	<g>
		<g>
			<path class="st0" d="M253,792c-5.5,0-9.5-1.7-12.1-5.1c-2.6-3.4-3.8-8.6-3.8-15.6c0-7.1,1.3-12.4,3.9-15.8
				c2.6-3.4,6.6-5.1,11.9-5.1c2.1,0,4,0.3,5.7,0.8c1.7,0.5,3.1,1.3,4.2,2.3l-3,5.3c-0.9-0.8-1.9-1.4-3-1.8c-1.1-0.4-2.3-0.7-3.7-0.7
				c-1.7,0-3,0.3-4.1,0.8c-1.1,0.5-1.9,1.3-2.6,2.5c-0.6,1.2-1,2.7-1.3,4.5c-0.2,1.9-0.3,4.1-0.3,6.8c0,2.8,0.1,5.2,0.4,7.1
				c0.3,1.9,0.7,3.5,1.4,4.7c0.7,1.2,1.5,2.1,2.6,2.6c1.1,0.5,2.4,0.8,4,0.8c1.5,0,2.8-0.3,4-0.8c1.1-0.6,2.2-1.2,3.2-2.1l3.1,5.1
				c-1.3,1-2.8,1.9-4.4,2.6C257.3,791.7,255.3,792,253,792z"/>
			<path class="st0" d="M295.3,792c-5.1,0-9-1.7-11.6-5c-2.6-3.3-3.9-8.6-3.9-15.7c0-7.1,1.3-12.3,3.9-15.8
				c2.6-3.4,6.4-5.2,11.5-5.2c5,0,8.8,1.7,11.5,5.1c2.6,3.4,3.9,8.6,3.9,15.6c0,7.2-1.3,12.4-3.8,15.8
				C304.3,790.4,300.4,792,295.3,792z M295.2,786.4c1.4,0,2.6-0.3,3.7-0.8c1-0.6,1.8-1.4,2.4-2.7c0.6-1.2,1-2.8,1.3-4.7
				c0.3-1.9,0.4-4.2,0.4-6.9c0-2.7-0.1-5-0.4-7c-0.3-1.9-0.7-3.5-1.3-4.7c-0.6-1.2-1.4-2.1-2.4-2.7c-1-0.6-2.2-0.8-3.7-0.8
				c-1.5,0-2.7,0.3-3.7,0.8c-1,0.6-1.8,1.4-2.4,2.6c-0.6,1.2-1.1,2.8-1.3,4.7c-0.3,1.9-0.4,4.2-0.4,6.9c0,2.7,0.1,5.1,0.4,7
				s0.7,3.5,1.3,4.7c0.6,1.2,1.4,2.1,2.4,2.7C292.5,786.1,293.8,786.4,295.2,786.4z"/>
			<path class="st0" d="M341.3,792c-1.6,0-3.1-0.2-4.4-0.7c-1.4-0.5-2.6-1.2-3.6-2.2c-1-1-1.8-2.4-2.4-4.1c-0.6-1.7-0.9-3.7-0.9-6.2
				v-27.7h7v27.8c0,2.4,0.3,4.2,1,5.4c0.7,1.1,2.1,1.7,4.3,1.7c1.7,0,3.2-0.3,4.3-0.9c1.2-0.6,2.1-1.2,2.8-1.9v-32.1h7v40.1h-5.1
				l-1-3.2c-1,1.1-2.2,2-3.7,2.8C345.3,791.6,343.5,792,341.3,792z"/>
			<path class="st0" d="M378.1,751.2h6.8l9.7,20.3c0.8,1.6,1.5,3.3,2.1,5c0.6,1.7,1.2,3.2,1.6,4.6h0.1c-0.2-1.3-0.3-2.9-0.5-5
				s-0.3-4-0.3-6.1v-18.8h6.4v40.1h-7.1l-9-19.1c-1.1-2.3-2-4.2-2.5-5.8c-0.6-1.6-1.1-3.1-1.5-4.5h-0.1c0.2,1.2,0.3,2.9,0.5,5
				s0.3,4.4,0.3,6.8v17.6h-6.4V751.2z"/>
			<path class="st0" d="M431.7,757.2h-9.1v-6h25.1v6h-9.1v34.1h-6.9V757.2z"/>
			<path class="st0" d="M466,751.2h11.6c2.6,0,4.9,0.3,6.9,1c2,0.7,3.6,1.8,4.9,3.4c1.3,1.6,2.3,3.6,3,6.2c0.7,2.6,1,5.7,1,9.5
				c0,3.6-0.3,6.7-0.8,9.2c-0.6,2.5-1.5,4.6-2.7,6.2c-1.3,1.6-2.9,2.8-4.8,3.6c-2,0.8-4.3,1.1-7.1,1.1H466V751.2z M477.7,785.3
				c1.5,0,2.8-0.2,3.9-0.6c1-0.4,1.9-1.2,2.5-2.3c0.6-1.1,1.1-2.6,1.3-4.4c0.3-1.9,0.4-4.2,0.4-7.1c0-2.7-0.1-4.9-0.4-6.7
				c-0.3-1.8-0.7-3.2-1.3-4.2c-0.6-1-1.4-1.8-2.5-2.2c-1-0.4-2.3-0.6-3.9-0.6H473v28.2H477.7z"/>
			<path class="st0" d="M527,792c-5.1,0-9-1.7-11.6-5c-2.6-3.3-3.9-8.6-3.9-15.7c0-7.1,1.3-12.3,3.9-15.8c2.6-3.4,6.4-5.2,11.5-5.2
				c5,0,8.8,1.7,11.5,5.1c2.6,3.4,3.9,8.6,3.9,15.6c0,7.2-1.3,12.4-3.8,15.8C536,790.4,532.1,792,527,792z M526.9,786.4
				c1.4,0,2.6-0.3,3.7-0.8c1-0.6,1.8-1.4,2.4-2.7c0.6-1.2,1-2.8,1.3-4.7c0.3-1.9,0.4-4.2,0.4-6.9c0-2.7-0.1-5-0.4-7
				c-0.3-1.9-0.7-3.5-1.3-4.7c-0.6-1.2-1.4-2.1-2.4-2.7c-1-0.6-2.2-0.8-3.7-0.8c-1.5,0-2.7,0.3-3.7,0.8c-1,0.6-1.8,1.4-2.4,2.6
				s-1.1,2.8-1.3,4.7c-0.3,1.9-0.4,4.2-0.4,6.9c0,2.7,0.1,5.1,0.4,7s0.7,3.5,1.3,4.7c0.6,1.2,1.4,2.1,2.4,2.7
				C524.2,786.1,525.5,786.4,526.9,786.4z"/>
			<path class="st0" d="M558.7,751.2h7.4l3.2,17c0.3,1.6,0.6,3.1,0.8,4.7c0.2,1.5,0.4,3,0.6,4.3c0.2,1.4,0.3,2.6,0.4,3.6
				c0.1,1.1,0.2,1.9,0.3,2.5h0.1c0.2-1.5,0.4-3.4,0.7-5.9c0.3-2.5,0.8-5.3,1.4-8.4l3.5-17.7h6.8l3.6,17.7c0.5,2.4,0.9,4.9,1.2,7.5
				c0.3,2.6,0.6,4.9,0.8,6.9h0.1c0.2-1.9,0.4-4.1,0.8-6.8c0.3-2.6,0.7-5.5,1.3-8.6l3.1-16.8h7l-8.3,40.1h-7.7L582,773
				c-0.2-1.1-0.4-2.3-0.6-3.5c-0.2-1.2-0.3-2.3-0.5-3.4c-0.1-1.1-0.3-2.1-0.4-3c-0.1-0.9-0.2-1.7-0.2-2.3h-0.1
				c-0.1,0.5-0.2,1.3-0.3,2.2c-0.1,0.9-0.2,2-0.4,3.1c-0.2,1.1-0.3,2.2-0.5,3.4c-0.2,1.2-0.4,2.2-0.6,3.2l-3.8,18.5H567L558.7,751.2
				z"/>
			<path class="st0" d="M620,751.2h6.8l9.7,20.3c0.8,1.6,1.5,3.3,2.1,5c0.6,1.7,1.2,3.2,1.6,4.6h0.1c-0.2-1.3-0.3-2.9-0.5-5
				c-0.2-2-0.3-4-0.3-6.1v-18.8h6.4v40.1h-7.1l-9-19.1c-1.1-2.3-2-4.2-2.5-5.8s-1.1-3.1-1.5-4.5h-0.1c0.2,1.2,0.3,2.9,0.5,5
				c0.2,2.1,0.3,4.4,0.3,6.8v17.6H620V751.2z"/>
			<path class="st0" d="M699.5,757.2h-9.1v-6h25.1v6h-9.1v34.1h-6.9V757.2z"/>
			<path class="st0" d="M747.1,792c-5.1,0-9-1.7-11.6-5c-2.6-3.3-3.9-8.6-3.9-15.7c0-7.1,1.3-12.3,3.9-15.8
				c2.6-3.4,6.4-5.2,11.5-5.2c5,0,8.8,1.7,11.5,5.1c2.6,3.4,3.9,8.6,3.9,15.6c0,7.2-1.3,12.4-3.8,15.8
				C756.1,790.4,752.2,792,747.1,792z M747,786.4c1.4,0,2.6-0.3,3.7-0.8c1-0.6,1.8-1.4,2.4-2.7c0.6-1.2,1-2.8,1.3-4.7
				c0.3-1.9,0.4-4.2,0.4-6.9c0-2.7-0.1-5-0.4-7c-0.3-1.9-0.7-3.5-1.3-4.7c-0.6-1.2-1.4-2.1-2.4-2.7c-1-0.6-2.2-0.8-3.7-0.8
				c-1.5,0-2.7,0.3-3.7,0.8c-1,0.6-1.8,1.4-2.4,2.6c-0.6,1.2-1.1,2.8-1.3,4.7c-0.3,1.9-0.4,4.2-0.4,6.9c0,2.7,0.1,5.1,0.4,7
				s0.7,3.5,1.3,4.7c0.6,1.2,1.4,2.1,2.4,2.7C744.4,786.1,745.6,786.4,747,786.4z"/>
			<path class="st0" d="M807.4,785.2c3.4-3.2,6.1-5.9,8.2-8.2c2.1-2.3,3.7-4.3,4.8-6c1.1-1.7,1.9-3.2,2.3-4.5
				c0.4-1.3,0.6-2.6,0.6-3.8c0-2.2-0.5-3.9-1.4-4.9c-0.9-1-2.3-1.5-4.3-1.5c-1.7,0-3.1,0.2-4.4,0.7c-1.3,0.5-2.6,1.1-3.8,1.8l-2.3-5
				c1.6-1,3.3-1.8,5.1-2.4c1.8-0.6,3.9-0.9,6.3-0.9c3.9,0,6.9,1,9,3c2,2,3.1,4.9,3.1,8.8c0,1.5-0.2,3.1-0.7,4.7
				c-0.5,1.6-1.3,3.3-2.4,5.2c-1.2,1.9-2.7,3.9-4.7,6.1c-2,2.2-4.5,4.6-7.6,7.3h16.1v5.7h-23.8V785.2z"/>
			<path class="st0" d="M862.7,792c-4.6,0-8-1.7-10.3-5.1c-2.2-3.4-3.4-8.6-3.4-15.6c0-7.1,1.1-12.3,3.4-15.7
				c2.2-3.4,5.6-5.1,10.2-5.1s8,1.7,10.2,5s3.3,8.6,3.3,15.6C876.1,785,871.6,792,862.7,792z M862.6,786.6c1.2,0,2.2-0.3,3-0.8
				c0.8-0.5,1.5-1.4,2-2.6c0.5-1.2,0.9-2.8,1.1-4.8c0.2-2,0.3-4.4,0.3-7.3c0-2.9-0.1-5.3-0.3-7.3c-0.2-2-0.6-3.5-1.1-4.7
				c-0.5-1.2-1.2-2.1-2-2.6c-0.8-0.5-1.8-0.8-3-0.8c-1.2,0-2.2,0.3-3,0.8c-0.8,0.5-1.5,1.3-2,2.5c-0.5,1.2-0.9,2.7-1.1,4.7
				c-0.2,1.9-0.3,4.3-0.3,7.2c0,2.9,0.1,5.3,0.3,7.3c0.2,2,0.6,3.6,1.1,4.8c0.5,1.2,1.2,2.1,2,2.6
				C860.5,786.4,861.5,786.6,862.6,786.6z"/>
			<path class="st0" d="M896.8,785.8h7.1v-25.9l-6.7,3.4l-2-3.8l10.7-8.5h4.9v34.9h6.3v5.5h-20.2V785.8z"/>
			<path class="st0" d="M949.6,792c-2.4,0-4.4-0.3-6.1-0.9c-1.7-0.6-3.1-1.4-4.1-2.4c-1.1-1-1.8-2.2-2.3-3.6
				c-0.5-1.4-0.8-2.8-0.8-4.4c0-2.6,0.6-4.6,1.8-6.2c1.2-1.6,3-2.9,5.3-3.9c-1.2-0.6-2.1-1.2-2.8-2c-0.7-0.8-1.3-1.5-1.7-2.4
				c-0.4-0.8-0.7-1.7-0.9-2.6c-0.2-0.9-0.2-1.8-0.2-2.8c0-3.4,1.1-6,3.2-7.8c2.2-1.8,5.1-2.7,8.9-2.7c1.9,0,3.5,0.2,5,0.7
				c1.5,0.5,2.7,1.2,3.8,2.1c1,0.9,1.8,2,2.4,3.2c0.6,1.3,0.8,2.7,0.8,4.2c0,2.1-0.5,3.9-1.5,5.4c-1,1.5-2.7,2.8-5.1,3.9
				c3,1.3,5,2.8,6.1,4.6c1.1,1.8,1.7,3.9,1.7,6.2c0,3.6-1.2,6.4-3.4,8.4C957.2,791.1,953.9,792,949.6,792z M947.4,773.1
				c-1.5,0.8-2.6,1.8-3.3,3c-0.8,1.2-1.1,2.6-1.1,4.4c0,2.4,0.6,4.1,1.7,5c1.1,0.9,2.8,1.4,4.9,1.4c2.2,0,3.7-0.5,4.7-1.5
				c1-1,1.5-2.3,1.5-4.1c0-0.8-0.1-1.5-0.2-2.2c-0.1-0.7-0.4-1.3-0.8-1.9c-0.4-0.6-0.9-1.1-1.5-1.6c-0.7-0.5-1.5-0.9-2.6-1.4
				L947.4,773.1z M944.5,760.7c0,0.7,0,1.3,0.1,1.9c0.1,0.6,0.3,1.1,0.6,1.6c0.3,0.5,0.8,1,1.4,1.5c0.6,0.5,1.4,0.9,2.4,1.3l1.3,0.6
				c1.9-1,3.2-2,3.8-3.1c0.6-1.1,0.9-2.4,0.9-3.9c0-3.4-1.8-5.2-5.4-5.2C946.2,755.5,944.5,757.2,944.5,760.7z"/>
		</g>
		<g>
			<path class="st0" d="M497.9,827.3h9.7v2.8h-6.4v4.8h5.1v2.8h-5.1v8.5h-3.3V827.3z"/>
			<path class="st0" d="M516.5,827.3h5.6c2.1,0,3.7,0.4,4.7,1.3c1,0.9,1.5,2.2,1.5,4c0,0.7-0.1,1.4-0.2,2c-0.1,0.6-0.4,1-0.7,1.4
				c-0.3,0.4-0.7,0.7-1.1,1c-0.4,0.3-0.9,0.5-1.5,0.6c0.5,0.2,1,0.6,1.4,1.1c0.4,0.5,0.7,1.3,1,2.2l1.7,5.3h-3.6l-1.7-5.4
				c-0.2-0.5-0.3-1-0.5-1.3c-0.2-0.3-0.4-0.6-0.6-0.8c-0.2-0.2-0.4-0.3-0.7-0.4c-0.3-0.1-0.6-0.1-0.9-0.1h-1.3v7.9h-3.3V827.3z
				 M522.2,835.8c1,0,1.8-0.2,2.1-0.7c0.4-0.5,0.6-1.2,0.6-2.3c0-1-0.2-1.7-0.6-2.1c-0.4-0.4-1.1-0.6-2.2-0.6h-2.3v5.7H522.2z"/>
			<path class="st0" d="M537.8,827.3h9.9v2.8h-6.6v4.8h5.3v2.8h-5.3v5.7h7v2.8h-10.3V827.3z"/>
			<path class="st0" d="M557.3,827.3h9.9v2.8h-6.6v4.8h5.3v2.8h-5.3v5.7h7v2.8h-10.3V827.3z"/>
			<path class="st0" d="M581.5,825.4h2.6l-6.5,25.1H575L581.5,825.4z"/>
			<path class="st0" d="M602.1,845.1c-0.5,0.5-1,0.9-1.7,1.2c-0.6,0.3-1.3,0.4-2,0.4c-2.2,0-3.9-0.8-5.1-2.4
				c-1.2-1.6-1.8-4.1-1.8-7.4c0-3.4,0.6-5.9,1.8-7.5c1.2-1.6,3.1-2.4,5.6-2.4c1.1,0,2.1,0.2,3,0.5c0.8,0.3,1.6,0.8,2.4,1.4l-1.7,2.4
				c-0.6-0.5-1.1-0.9-1.7-1.1c-0.5-0.2-1.1-0.4-1.9-0.4c-0.7,0-1.4,0.1-1.9,0.4c-0.5,0.2-0.9,0.6-1.2,1.2c-0.3,0.5-0.5,1.2-0.6,2.1
				c-0.1,0.9-0.2,1.9-0.2,3.2c0,1.3,0.1,2.5,0.2,3.4s0.3,1.7,0.6,2.2s0.7,1,1.1,1.2c0.5,0.3,1,0.4,1.7,0.4c0.6,0,1.1-0.1,1.5-0.3
				c0.5-0.2,0.9-0.5,1.2-0.8v-4.1h-2.9V836h6.2v10.3h-2.4L602.1,845.1z"/>
			<path class="st0" d="M614.6,827.3h5.6c2.1,0,3.7,0.4,4.7,1.3c1,0.9,1.5,2.2,1.5,4c0,0.7-0.1,1.4-0.2,2c-0.1,0.6-0.4,1-0.7,1.4
				c-0.3,0.4-0.7,0.7-1.1,1c-0.4,0.3-0.9,0.5-1.5,0.6c0.5,0.2,1,0.6,1.4,1.1c0.4,0.5,0.7,1.3,1,2.2l1.7,5.3h-3.6l-1.7-5.4
				c-0.2-0.5-0.3-1-0.5-1.3c-0.2-0.3-0.4-0.6-0.6-0.8c-0.2-0.2-0.4-0.3-0.7-0.4c-0.3-0.1-0.6-0.1-0.9-0.1h-1.3v7.9h-3.3V827.3z
				 M620.3,835.8c1,0,1.8-0.2,2.1-0.7c0.4-0.5,0.6-1.2,0.6-2.3c0-1-0.2-1.7-0.6-2.1c-0.4-0.4-1.1-0.6-2.1-0.6h-2.3v5.7H620.3z"/>
			<path class="st0" d="M639.8,827.3h3.5l5.4,19h-3.6l-1.2-4.7h-5.1l-1.3,4.7h-3.4L639.8,827.3z M639.5,839h3.8l-0.8-3.2
				c-0.1-0.6-0.3-1.1-0.4-1.5c-0.1-0.4-0.2-0.9-0.3-1.2c-0.1-0.4-0.1-0.7-0.2-1c0-0.3-0.1-0.6-0.1-0.9h-0.1
				c-0.1,0.3-0.1,0.6-0.2,0.9c-0.1,0.3-0.1,0.7-0.2,1c-0.1,0.4-0.2,0.8-0.3,1.2c-0.1,0.4-0.2,1-0.4,1.5L639.5,839z"/>
			<path class="st0" d="M659.2,830.2h-4.3v-2.9h11.9v2.9h-4.3v16.1h-3.3V830.2z"/>
			<path class="st0" d="M674.8,844.5l1.9-0.3v-14.7l-1.9-0.3v-1.8h7.1v1.8l-1.9,0.3v14.7l1.9,0.3v1.8h-7.1V844.5z"/>
			<path class="st0" d="M695.9,846.7c-1.2,0-2.3-0.2-3.4-0.5c-1-0.3-1.9-0.8-2.5-1.3l1.2-2.5c0.7,0.5,1.4,0.9,2.1,1.1
				c0.7,0.2,1.5,0.4,2.3,0.4c1.1,0,1.9-0.2,2.4-0.7c0.5-0.5,0.7-1.1,0.7-1.9c0-0.5-0.1-0.9-0.2-1.2s-0.3-0.6-0.6-0.8
				c-0.3-0.2-0.6-0.4-1-0.6c-0.4-0.2-0.8-0.4-1.3-0.5c-0.8-0.3-1.5-0.6-2.1-0.9c-0.6-0.3-1.1-0.7-1.5-1.1s-0.7-1-0.9-1.6
				c-0.2-0.6-0.3-1.3-0.3-2.2c0-1.8,0.5-3.1,1.5-3.9c1-0.9,2.4-1.3,4.1-1.3c1.1,0,2,0.1,2.8,0.3c0.7,0.2,1.4,0.6,2.1,1l-1.2,2.5
				c-0.6-0.4-1.1-0.6-1.6-0.8c-0.5-0.2-1.1-0.2-1.8-0.2c-0.8,0-1.5,0.2-1.9,0.5c-0.4,0.4-0.7,0.9-0.7,1.7c0,0.4,0,0.7,0.1,1
				s0.2,0.5,0.4,0.7c0.2,0.2,0.5,0.4,0.8,0.6c0.3,0.2,0.8,0.3,1.2,0.5c0.7,0.3,1.5,0.5,2.1,0.8c0.7,0.3,1.2,0.7,1.7,1.1
				c0.5,0.4,0.9,1,1.2,1.7c0.3,0.7,0.4,1.5,0.4,2.5c0,0.8-0.1,1.6-0.3,2.2c-0.2,0.7-0.6,1.3-1,1.8c-0.5,0.5-1.1,0.9-1.9,1.2
				C698,846.5,697,846.7,695.9,846.7z"/>
		</g>
	</g>
	<g>
		<g>
			<path class="st0" d="M628,130.7l-13.3,0v-13.9l13.3,0v-14.5h14.5v14.5l13.3,0v13.9h-13.3v14.8H628V130.7z"/>
		</g>
		<g>
			<path class="st0" d="M241.1,110.9V99.8c0-5.6-0.7-11.2-9.9-11.6v0h-7.3v0c-9.2,0.4-9.9,6-9.9,11.6v47.9c0,9.4,2.4,12.4,9.9,12.4
				l0,0h7.3l0,0c7.5,0,9.9-3,9.9-12.4v-25.8h-9.4h-4.8v8.8h4.8v16.6c0,2.4-0.3,4-3,4h-2.3c-2.7,0-3-1.6-3-4v-45.4c0-2.7,0.1-5,3.8-5
				l0.7,0c3.7,0,3.8,2.2,3.8,5v8.9H241.1z"/>
			<path class="st0" d="M488.9,145.8V138c0-9.3-0.9-13.3-7.1-14.2c-0.3,0-0.3-0.5,0-0.5c7.1-0.2,7.4-5.4,7.4-17.8
				c0-14.3-1.3-17.4-12.8-17.4h-15.2v72h9.4v-0.2h-0.1V96.8h0.1l4.8,0c4,0,4.5,0.2,4.5,8.1c0,11.9-0.2,14-4.9,14h-0.7v8
				c2.7,0,2.9,0.2,3.9,2.1c1.1,2.3,1.2,8.1,1.2,10.8v10.1c0,12.1,11.2,10.1,11.2,10.1C489.1,155.9,488.9,154.5,488.9,145.8"/>
			<path class="st0" d="M274.7,145.8V138c0-9.4-0.8-13.3-7.1-14.2c-0.3,0-0.3-0.5,0-0.5c7.1-0.2,7.4-5.4,7.4-17.7
				c0-14.3-1.3-17.4-12.7-17.4H247v72l9.4,0v-0.2h-0.1V96.8l0.1,0h4.8c4,0,4.5,0.2,4.5,8.2c0,11.9-0.2,14-4.9,14h-0.7v8
				c2.7,0,2.9,0.2,3.9,2.1c1.1,2.3,1.2,8.1,1.2,10.8v10.1c0,12.1,11.2,10.1,11.2,10.1C274.9,155.9,274.7,154.5,274.7,145.8"/>
			<path class="st0" d="M371.2,88.2l-17.2,0v72l9.2,0V96.9l5.6,0c3.7,0,3.8,2.2,3.8,5v45.4c0,2.3-0.3,4-3,4h-2.3v8.9h4.7
				c7.6,0,10-3,10-12.4V99.8C382,94,381.2,88.2,371.2,88.2"/>
			<polygon class="st0" points="302.1,88.2 290.8,88.2 279.9,160.1 289,160.1 290.7,148.5 296.5,148.5 296.5,139.5 292,139.5 
				296.5,108.9 303.9,160.1 313.1,160.1 			"/>
			<polygon class="st0" points="446.8,88.2 435.4,88.2 424.5,160.1 433.6,160.1 435.3,148.5 441.1,148.5 441.1,139.5 436.6,139.5 
				441.1,108.9 448.6,160.1 457.7,160.1 			"/>
			<path class="st0" d="M338,88.2L338,88.2L338,88.2v47.4c-0.1-0.4-10.8-47.4-10.8-47.4h-10v72l7.2,0v0l2,0v-46.8
				c2.7,12.6,10.1,46.8,10.1,46.8l10.3,0v-72H338z"/>
			<path class="st0" d="M416.4,109c0,7.9-0.6,10.1-4.6,10.1l-1.3,0v8.1l2.3,0c11,0,12.9-4.5,12.9-17.4v-4c0-14.3-1.3-17.4-12.8-17.4
				h-15.3v72l9.4,0V160l-0.1,0V97h0.1h4.8c4,0,4.5,0.2,4.5,8.1V109z"/>
			<rect x="496" y="88.3" class="st0" width="9.2" height="71.9"/>
			<polygon class="st0" points="519.5,88.6 529.6,88.6 516.1,122.6 530.8,160.5 520.1,160.5 506.9,123.6 			"/>
		</g>
		<g>
			<g>
				<polygon class="st0" points="912.6,161 931,161 931,165.1 917.4,165.1 917.4,176.2 928,176.6 928,179.9 917.4,180.4 
					917.4,193.1 931.7,193.1 931.7,197.3 912.6,197.3 				"/>
				<polygon class="st0" points="828.7,161 847.1,161 847.1,165.1 833.5,165.1 833.5,176.2 844.1,176.6 844.1,180 833.5,180.4 
					833.5,193.1 847.8,193.1 847.8,197.3 828.7,197.3 				"/>
				<path class="st0" d="M812.1,198c-4.9,0-8.4-1.6-10.6-4.8c-2.2-3.2-3.3-7.8-3.3-13.9c0-2.9,0.3-5.6,0.8-7.9
					c0.5-2.4,1.3-4.3,2.5-6c1.1-1.6,2.5-2.9,4.3-3.8c1.8-0.9,3.9-1.3,6.4-1.3c3.5,0,6.4,1,8.6,2.9l-2.3,3.5
					c-0.9-0.7-1.9-1.3-2.9-1.7c-1-0.4-2.2-0.6-3.4-0.6c-1.8,0-3.2,0.3-4.3,0.9c-1.1,0.6-2,1.5-2.7,2.7c-0.7,1.2-1.1,2.7-1.4,4.6
					c-0.2,1.8-0.4,4-0.4,6.5c0,2.5,0.1,4.7,0.4,6.6c0.3,1.9,0.7,3.4,1.4,4.6c0.6,1.2,1.5,2.1,2.7,2.7c1.2,0.6,2.6,0.9,4.4,0.9
					c1.4,0,2.7-0.3,3.7-0.8c1.1-0.5,2.1-1.2,3-1.9l2.3,3.6c-1.2,0.9-2.6,1.7-4.1,2.3C815.7,197.7,814,198,812.1,198"/>
				<path class="st0" d="M855.5,161h4.9l10,20.7c0.8,1.6,1.5,3.2,2.1,4.8c0.6,1.6,1.1,3,1.4,4.2h0.1c-0.1-1.2-0.3-2.8-0.4-4.6
					c-0.1-1.8-0.2-3.8-0.2-5.7V161h4.4v36.3h-5l-9.2-19c-0.6-1.3-1.2-2.4-1.6-3.3c-0.4-1-0.8-1.8-1.1-2.6c-0.3-0.8-0.6-1.5-0.8-2.2
					c-0.2-0.7-0.4-1.3-0.7-2h-0.1c0.1,1.3,0.3,2.9,0.3,4.8c0.1,1.9,0.1,3.9,0.1,6v18.2h-4.4V161z"/>
				<polygon class="st0" points="892.5,165.2 884,164.7 884,161 905.8,161 905.8,164.7 897.3,165.2 897.3,197.3 892.5,197.3 				"/>
				<g>
					<path class="st0" d="M952.7,180.7c2.2-0.6,3.9-1.7,5-3.2c1.1-1.5,1.6-3.7,1.6-6.4c0-3.4-1-6-2.9-7.6c-1.9-1.7-4.6-2.5-7.9-2.5
						h-9.7v36.3h4.7v-19.5v-2.4v-10.3h4.9c2.3,0,3.9,0.5,4.8,1.4c0.9,1,1.3,2.5,1.3,4.6c0,2.3-0.4,4-1.3,5c-0.9,1.1-2.5,1.6-4.8,1.6
						h-2l9,19.5h5.4L952.7,180.7z"/>
				</g>
				<g>
					<polygon class="st0" points="858.7,57 877.2,57 877.2,61.2 863.5,61.2 863.5,72.3 874.1,72.7 874.1,76 863.5,76.4 863.5,89.1 
						877.8,89.1 877.8,93.4 858.7,93.4 					"/>
					<polygon class="st0" points="826.8,57 831.6,57 831.6,71.9 844.6,71.9 844.6,57 849.4,57 849.4,93.4 844.6,93.4 844.6,76.2 
						831.6,76.2 831.6,93.4 826.8,93.4 					"/>
					<path class="st0" d="M739.7,109h7.1l5.8,18.3c0.6,1.7,1,3.2,1.2,4.6c0.2,1.4,0.4,2.5,0.5,3.5h0.1c0.1-0.9,0.3-2.1,0.5-3.5
						c0.2-1.4,0.6-2.9,1.2-4.6L762,109h7.2v36.3h-4.8v-21.5c0-3.1,0-5.6,0.1-7.4c0.1-1.8,0.2-3.1,0.2-3.8h-0.1
						c-0.1,0.3-0.2,0.8-0.3,1.6c-0.2,0.8-0.4,1.6-0.6,2.6c-0.3,1-0.6,2.1-0.9,3.2c-0.3,1.1-0.7,2.2-1,3.2l-5.3,15.3h-4.4l-5.1-14.7
						c-0.4-1.1-0.7-2.2-1.1-3.4c-0.3-1.2-0.6-2.3-0.8-3.4c-0.3-1.1-0.5-2-0.6-2.8c-0.2-0.8-0.3-1.4-0.3-1.6h-0.1
						c0,0.3,0,0.8,0.1,1.5c0,0.7,0.1,1.5,0.1,2.5c0,1,0.1,2.1,0.1,3.3c0,1.2,0,2.5,0,3.8v21.4h-4.4V109z"/>
					<path class="st0" d="M788.2,146c-1.2,0-2.5-0.2-3.7-0.5c-1.2-0.4-2.2-1-3.1-1.8c-0.9-0.9-1.6-2-2.2-3.4
						c-0.5-1.4-0.8-3.2-0.8-5.3V109h4.8v25c0,1.3,0.1,2.5,0.2,3.5c0.1,1,0.4,1.8,0.8,2.4c0.4,0.6,1,1.1,1.7,1.4
						c0.7,0.3,1.6,0.5,2.8,0.5c1.9,0,3.5-0.4,4.8-1.1c1.3-0.8,2.3-1.5,3.1-2.2V109h4.8v36.3h-3.5l-0.8-3.4c-1,1-2.2,1.9-3.7,2.8
						C791.9,145.6,790.2,146,788.2,146"/>
					<path class="st0" d="M819.3,146c-2.2,0-4.2-0.3-6.1-1c-1.9-0.7-3.5-1.6-4.8-2.7l2.1-3.5c1.4,1.1,2.7,1.9,3.9,2.3
						c1.2,0.5,2.7,0.7,4.4,0.7c2.4,0,4.1-0.5,5.1-1.6c1-1,1.5-2.5,1.5-4.4c0-1.1-0.1-2-0.5-2.8c-0.3-0.8-0.7-1.4-1.3-1.9
						c-0.6-0.5-1.3-1-2.2-1.4c-0.9-0.4-1.8-0.8-2.9-1.2c-1.5-0.6-2.8-1.2-3.9-1.8c-1.1-0.6-2-1.4-2.7-2.2c-0.7-0.8-1.3-1.8-1.6-2.9
						c-0.4-1.1-0.5-2.4-0.5-3.9c0-3.1,0.9-5.5,2.7-7c1.8-1.6,4.3-2.3,7.4-2.3c2,0,3.6,0.2,5,0.7c1.3,0.4,2.6,1.1,3.7,1.9l-2,3.8
						c-1-0.7-2.1-1.3-3-1.6c-1-0.3-2.1-0.5-3.4-0.5c-1.7,0-3.1,0.4-4.1,1.2c-1,0.8-1.5,2.1-1.5,3.9c0,0.9,0.1,1.7,0.3,2.3
						c0.2,0.6,0.5,1.2,1,1.7c0.5,0.5,1.1,0.9,1.8,1.3c0.7,0.4,1.6,0.8,2.7,1.2c1.4,0.5,2.7,1.1,3.9,1.7c1.2,0.6,2.3,1.3,3.2,2.2
						c0.9,0.9,1.6,1.9,2.1,3.2c0.5,1.2,0.8,2.8,0.8,4.6c0,1.3-0.2,2.6-0.5,3.9c-0.4,1.2-1,2.4-1.8,3.3c-0.9,1-2,1.7-3.5,2.3
						C823.2,145.7,821.4,146,819.3,146"/>
					<polygon class="st0" points="837.1,142.6 840.7,142.2 840.7,112.1 837.1,111.6 837.1,109 849.2,109 849.2,111.6 845.5,112.1 
						845.5,142.2 849.2,142.6 849.2,145.3 837.1,145.3 					"/>
					<path class="st0" d="M869,146c-4.9,0-8.4-1.6-10.6-4.8c-2.2-3.2-3.3-7.8-3.3-13.9c0-2.9,0.3-5.5,0.8-7.9c0.5-2.4,1.3-4.4,2.5-6
						c1.1-1.6,2.5-2.9,4.3-3.8c1.7-0.9,3.9-1.3,6.4-1.3c3.6,0,6.4,0.9,8.6,2.8l-2.3,3.5c-0.9-0.7-1.9-1.2-2.9-1.7
						c-1-0.4-2.2-0.6-3.4-0.6c-1.7,0-3.2,0.3-4.3,0.9c-1.1,0.6-2,1.5-2.7,2.7c-0.7,1.2-1.1,2.7-1.4,4.6c-0.2,1.8-0.4,4-0.4,6.5
						c0,2.5,0.1,4.7,0.4,6.6c0.2,1.9,0.7,3.4,1.4,4.6c0.6,1.2,1.5,2.1,2.7,2.7c1.1,0.6,2.6,0.9,4.4,0.9c1.4,0,2.7-0.3,3.8-0.8
						c1.1-0.5,2.1-1.2,3-1.9l2.3,3.6c-1.2,0.9-2.6,1.7-4.1,2.3C872.6,145.7,870.9,146,869,146"/>
					<polygon class="st0" points="806.7,61.3 798.1,60.8 798.1,57 820.1,57 820.1,60.8 811.5,61.3 811.5,93.4 806.7,93.4 					"/>
				</g>
			</g>
			<g>
				<path class="st0" d="M930.5,83.8l-12.6-29.2c-0.9,0.4-1.8,0.8-2.6,1.2l14.3,28.4C929.8,84.1,930.2,83.9,930.5,83.8z"/>
				<path class="st0" d="M927.8,85.3l-17.5-26.5c-0.7,0.5-1.4,0.9-2,1.4l18.9,25.5C927.3,85.6,927.5,85.4,927.8,85.3z"/>
				<path class="st0" d="M942.4,83.2l9.6-30.3c-1.4-0.5-2.9-0.8-4.3-1.2l-6.8,31C941.4,82.9,941.9,83.1,942.4,83.2z"/>
				<path class="st0" d="M933.4,82.9l-7.2-30.9c-1.1,0.2-2.1,0.5-3.2,0.8l9.2,30.4C932.6,83,933,82.9,933.4,82.9z"/>
				<path class="st0" d="M939.5,82.6l4.1-31.5c-1.3-0.2-2.7-0.3-4.1-0.4L938,82.4C938.5,82.5,939,82.5,939.5,82.6z"/>
				<path class="st0" d="M925.1,87.4c0.1-0.1,0.2-0.2,0.3-0.3l-22-22.9c-0.2,0.2-0.5,0.5-0.8,0.7c-0.2,0.3-0.5,0.5-0.7,0.8l22.9,22
					C925,87.6,925,87.5,925.1,87.4z"/>
				<path class="st0" d="M945.3,84.4l14.8-28.1c-1.4-0.8-2.9-1.5-4.4-2.1l-12,29.4C944.2,83.9,944.8,84.1,945.3,84.4z"/>
				<path class="st0" d="M936.4,82.4l-1.6-31.7c-1.2,0.1-2.5,0.2-3.7,0.3l4,31.5C935.5,82.5,936,82.5,936.4,82.4z"/>
				<path class="st0" d="M921.4,106l-29.4,12c0.6,1.5,1.3,3,2.1,4.4l28.1-14.9C921.8,107.1,921.6,106.6,921.4,106z"/>
				<path class="st0" d="M922.7,108.6l-27,16.8c0.9,1.5,1.9,2.9,3.1,4.3l25-19.6C923.4,109.6,923,109.1,922.7,108.6z"/>
				<path class="st0" d="M920.5,103.2l-31,6.8c0.3,1.5,0.7,2.9,1.2,4.3l30.3-9.6C920.8,104.3,920.6,103.7,920.5,103.2z"/>
				<path class="st0" d="M904.7,136.1l21.1-23.7c-0.3-0.2-0.5-0.5-0.7-0.7c-0.2-0.2-0.5-0.5-0.7-0.7l-23.7,21.1
					c0.6,0.7,1.3,1.4,2,2.1C903.4,134.8,904,135.5,904.7,136.1z"/>
				<path class="st0" d="M920.2,97.4l-31.5-4c-0.2,1.2-0.3,2.4-0.3,3.7l31.7,1.6C920.1,98.3,920.2,97.9,920.2,97.4z"/>
				<path class="st0" d="M920.8,94.6l-30.4-9.2c-0.3,1.1-0.6,2.1-0.8,3.2l30.9,7.2C920.6,95.3,920.7,94.9,920.8,94.6z"/>
				<path class="st0" d="M921.9,91.9l-28.4-14.3c-0.4,0.9-0.8,1.7-1.2,2.6l29.2,12.6C921.6,92.5,921.8,92.2,921.9,91.9z"/>
				<path class="st0" d="M920.1,100.3l-31.7,1.4c0.1,1.4,0.2,2.7,0.4,4.1l31.5-4.1C920.2,101.3,920.1,100.8,920.1,100.3z"/>
				<path class="st0" d="M923.5,89.4l-25.6-18.9c-0.5,0.7-1,1.4-1.4,2L923,90.1C923.1,89.9,923.3,89.6,923.5,89.4z"/>
				<path class="st0" d="M949.4,111.7c-0.1,0.1-0.2,0.2-0.3,0.3l22,22.9c0.2-0.2,0.5-0.5,0.7-0.7c0.2-0.2,0.5-0.5,0.7-0.7l-22.9-22
					C949.5,111.5,949.5,111.6,949.4,111.7z"/>
				<path class="st0" d="M938.1,116.7l1.6,31.7c1.2-0.1,2.5-0.2,3.7-0.3l-4-31.5C939,116.6,938.5,116.7,938.1,116.7z"/>
				<path class="st0" d="M941.1,116.3l7.2,30.9c1.1-0.3,2.1-0.5,3.2-0.9l-9.2-30.4C941.9,116.1,941.5,116.2,941.1,116.3z"/>
				<path class="st0" d="M944,115.3l12.6,29.2c0.9-0.4,1.8-0.8,2.6-1.2L945,114.9C944.6,115,944.3,115.2,944,115.3z"/>
				<path class="st0" d="M946.7,113.8l17.5,26.5c0.7-0.5,1.4-0.9,2-1.4l-18.9-25.5C947.2,113.5,947,113.7,946.7,113.8z"/>
				<path class="st0" d="M951,109.7l25.6,18.9c0.5-0.7,1-1.4,1.4-2L951.5,109C951.4,109.3,951.2,109.5,951,109.7z"/>
				<path class="st0" d="M929.2,114.7l-14.9,28.1c1.5,0.8,2.9,1.5,4.4,2.1l12-29.4C930.3,115.2,929.7,115,929.2,114.7z"/>
				<path class="st0" d="M926.7,113l-19.6,25c1.4,1.1,2.9,2.1,4.3,3l16.8-27C927.7,113.8,927.2,113.4,926.7,113z"/>
				<path class="st0" d="M935,116.6l-4.1,31.5c1.4,0.2,2.7,0.3,4.1,0.4l1.4-31.7C936,116.7,935.5,116.6,935,116.6z"/>
				<path class="st0" d="M932.1,115.9l-9.6,30.3c1.4,0.5,2.9,0.8,4.3,1.2l6.8-31C933.1,116.2,932.6,116.1,932.1,115.9z"/>
				<path class="st0" d="M953.1,93.1l29.4-12c-0.6-1.5-1.3-3-2.1-4.4l-28.1,14.8C952.7,92.1,952.9,92.6,953.1,93.1z"/>
				<path class="st0" d="M951.8,90.5l27-16.8c-0.9-1.5-2-2.9-3.1-4.3l-25,19.6C951.1,89.5,951.5,90,951.8,90.5z"/>
				<path class="st0" d="M954,95.9l31-6.8c-0.3-1.5-0.7-2.9-1.2-4.3l-30.3,9.6C953.7,94.9,953.9,95.4,954,95.9z"/>
				<path class="st0" d="M952.6,107.3l28.4,14.3c0.4-0.9,0.8-1.7,1.2-2.6L953,106.3C952.9,106.6,952.7,107,952.6,107.3z"/>
				<path class="st0" d="M949.4,87.4c0.2,0.2,0.5,0.5,0.7,0.7l23.7-21.1c-0.6-0.7-1.3-1.4-2-2.1c-0.7-0.7-1.4-1.3-2.1-2l-21.1,23.7
					C948.9,87,949.1,87.2,949.4,87.4z"/>
				<path class="st0" d="M947.8,86.1l19.6-25c-1.4-1.1-2.9-2.1-4.3-3l-16.8,27C946.8,85.3,947.3,85.7,947.8,86.1z"/>
				<path class="st0" d="M953.6,104.6l30.4,9.2c0.3-1.1,0.6-2.1,0.9-3.2l-30.9-7.2C953.9,103.8,953.7,104.2,953.6,104.6z"/>
				<path class="st0" d="M954.4,98.8l31.7-1.4c-0.1-1.4-0.2-2.7-0.3-4.1l-31.5,4.1C954.3,97.8,954.3,98.3,954.4,98.8z"/>
				<path class="st0" d="M954.2,101.7l31.5,4c0.2-1.2,0.3-2.5,0.3-3.7l-31.7-1.6C954.3,100.8,954.3,101.3,954.2,101.7z"/>
			</g>
		</g>
	</g>
</g>
</svg>
