<?xml version="1.0" encoding="utf-8"?>
<!-- Generator: Adobe Illustrator 22.0.1, SVG Export Plug-In . SVG Version: 6.00 Build 0)  -->
<svg version="1.1" id="_x2D_GLP-" xmlns="http://www.w3.org/2000/svg" xmlns:xlink="http://www.w3.org/1999/xlink" x="0px" y="0px"
	 width="464.1665649px" height="395.6661377px" viewBox="0 0 464.1665649 395.6661377"
	 style="enable-background:new 0 0 464.1665649 395.6661377;" xml:space="preserve">
<style type="text/css">
	.st0{fill-rule:evenodd;clip-rule:evenodd;}
</style>
<path class="st0" d="M35.0086708,359.4636841c1.8476982-0.2354126,3.0009995-0.7304993,3.4540977-1.4815063
	c0.4610023-0.7695007,0.6924019-2.5155945,0.6924019-5.2285156v-28.5145874c0-2.289093-0.2626991-3.7988892-0.7860985-4.530304
	c-0.4990005-0.7304993-1.6221008-1.1914062-3.3604012-1.3847961v-1.2285156h12.7891006
	c4.0985985,0,7.2392998,1.0879211,9.4188995,3.2559204c2.1777992,2.1688843,3.2656975,5.0135803,3.2656975,8.5390015
	c0,4.4804993-1.2050972,7.7304993-3.622097,9.7471008c-2.4121017,2.0145874-5.4346008,3.0243835-9.0625,3.0243835
	c-0.5244026,0-1.1973-0.0155945-2.0127029-0.0272827c-0.8114967-0.0440063-1.4120979-0.0713196-1.8017998-0.0713196v11.9598999
	c0,2.4883118,0.2745018,4.0469055,0.8272018,4.6895142c0.5692978,0.6426086,1.8223,1.0596008,3.7607002,1.2510071v1.1875h-13.5625
	V359.4636841 M51.3700714,320.7683716c-1.3702011-0.8115845-3.1084023-1.2226868-5.2110023-1.2226868
	c-0.9921989,0-1.6102982,0.1405945-1.8495979,0.421875c-0.2129021,0.2461243-0.3262024,0.8447266-0.3262024,1.7676086v17.1552124
	c0.865303,0.1152954,1.4365997,0.1748047,1.7022018,0.1962891c0.2743988,0.0224915,0.5293007,0.0342102,0.7803001,0.0342102
	c2.2275009,0,3.9813995-0.4237976,5.2538986-1.2871094c2.3291016-1.5625,3.482399-4.4902039,3.482399-8.7782898
	C55.2020683,325.0300598,53.9256706,322.2683716,51.3700714,320.7683716z"/>
<path class="st0" d="M85.195488,359.4636841c1.860405-0.2354126,3.0215073-0.7304993,3.4746017-1.4815063
	c0.4658051-0.7480164,0.6903992-2.4883118,0.6903992-5.2285156v-28.5145874c0-2.3106079-0.2606964-3.8222961-0.7792969-4.530304
	c-0.5057983-0.7304993-1.6367035-1.1914062-3.385704-1.3847961v-1.2285156H98.616394
	c2.7938995,0,5.1221008,0.4951172,6.982399,1.4502258c3.5371017,1.8329773,5.3096008,5.1825867,5.3096008,10.0644836
	c0,3.273407-0.7958984,5.7929077-2.3731003,7.555603c-1.5605011,1.7676086-3.6922989,2.9151001-6.3896027,3.4638977
	l9.9912033,16.6835938c0.6151962,1.030304,1.2333984,1.7783203,1.8456955,2.2510071
	c0.6152039,0.4715881,1.4024048,0.7675171,2.3633041,0.8994141v1.1875h-7.8106003l-11.5498047-20.2461243L94.286293,340.56427
	v12.9588928c0,2.4385071,0.2686005,3.9854126,0.8036957,4.655304c0.552803,0.6367188,1.7442017,1.0722961,3.5713043,1.2852173
	v1.1875H85.195488V359.4636841 M101.7677917,336.6384583c2.5692978-1.4335938,3.8583984-4.1298828,3.8583984-8.0937805
	c0-3.8164062-1.1533966-6.4198914-3.4561005-7.8134155c-1.2313995-0.7363892-2.8641968-1.1163025-4.9003983-1.1163025
	c-1.3740005,0-2.2177963,0.1338196-2.5361023,0.4121094c-0.2997971,0.2647095-0.4472961,0.8789978-0.4472961,1.8613892v16.2314148
	C97.7706909,337.9548645,100.2647934,337.4499817,101.7677917,336.6384583z"/>
<path class="st0" d="M142.5600586,323.1333008c3.0467987-3.6786499,6.7900085-5.5202332,11.2324066-5.5202332
	c4.4628906,0,8.2098999,1.8563843,11.2489929,5.5462036c3.3106079,4.0015869,4.9551086,9.3294373,4.9638977,15.9862061
	c0,6.7697449-1.7167969,12.1447754-5.128891,16.1510315c-3.0567017,3.569458-6.7539062,5.3546753-11.0839996,5.3546753
	c-4.6338043,0-8.4853973-1.9776917-11.5420074-5.933136c-3.1103973-4.0423584-4.664093-9.225769-4.664093-15.5725708
	C137.5863647,332.4887085,139.2436676,327.1489258,142.5600586,323.1333008 M146.2553558,353.6982727
	c2.0469055,3.1381836,4.5625,4.6985168,7.5371094,4.6985168c2.9120941,0,5.4033051-1.5224304,7.4618988-4.5625305
	c2.0762024-3.0706177,3.1181946-7.9607544,3.1181946-14.6887817c0-6.8020325-1.0478973-11.7133789-3.1454926-14.7322693
	c-2.0948029-3.0345154-4.5704041-4.5476379-7.4346008-4.5476379c-2.9667969,0-5.4766083,1.5769958-7.5371094,4.7299805
	c-2.0439911,3.120636-3.0683899,7.977417-3.0683899,14.5499268
	C143.1869659,345.7115479,144.2113647,350.5563049,146.2553558,353.6982727z"/>
<path class="st0" d="M191.8366852,359.4636841c1.6327972-0.2588196,2.6932983-0.686615,3.1923981-1.2852173
	c0.496994-0.6200867,0.743103-2.1669922,0.743103-4.655304v-29.2840881c0-2.3984985-0.246109-3.9414062-0.7256012-4.624115
	c-0.4795074-0.6893921-1.550705-1.1190796-3.2098999-1.2909851v-1.2285156h12.059494c4.0694122,0,7.496109,1,10.3057098,2.9649048
	c5.0673981,3.5263062,7.6035004,9.8623047,7.6035004,18.9667053c0,3.2715149-0.4560089,6.3916931-1.375,9.3448181
	c-0.902298,2.9716797-2.2666016,5.4637756-4.1006012,7.5018921c-1.1688995,1.2782898-2.3778992,2.2510071-3.6269073,2.9091797
	c-2.2910004,1.2528992-5.1035004,1.8682251-8.4326019,1.8682251h-12.4335938V359.4636841 M200.8375854,357.7009583
	c0.3603973,0.3467102,1.1103973,0.5117188,2.2276001,0.5117188c3.4940948,0,6.3681946-1.0224915,8.6268921-3.0585938
	c3.468811-3.1182251,5.1993103-8.4727173,5.1993103-16.0332031c0-6.7559204-1.4248047-11.8291016-4.2842102-15.2383118
	c-2.4404907-2.9208984-5.6816864-4.3710938-9.7167969-4.3710938c-1.006897,0-1.6923981,0.1651001-2.0527954,0.4892883
	c-0.3535004,0.3182983-0.5243988,1.0263062-0.5243988,2.118103v33.4590149
	C200.3131866,356.6472778,200.4840851,357.361084,200.8375854,357.7009583z"/>
<path class="st0" d="M256.9370422,317.5827637v1.1794434c-1.8017883,0.1740417-2.9814911,0.585907-3.5204926,1.2523499
	c-0.5273895,0.6487122-0.8076935,2.1312866-0.8076935,4.4797974v20.3735657c0,3.347229,0.342804,5.953064,1.006897,7.8092041
	c1.2685089,3.4062805,3.6611023,5.1051025,7.1708984,5.1051025c3.842804,0,6.4355164-1.7362976,7.7578125-5.2304993
	c0.7304993-1.936615,1.1044922-4.9581604,1.1044922-9.0223389v-16.5836182c0-3.4613953-0.3085938-5.6254578-0.9287109-6.5043945
	c-0.6083984-0.8901367-1.7724915-1.4424438-3.4921875-1.6791687v-1.1794434h10.9042969v1.1794434
	c-1.8164062,0.275177-3.0195007,0.8789368-3.5801086,1.805481c-0.5585938,0.920166-0.8388977,3.0421753-0.8388977,6.3780823
	v16.5836182c0,4.4068298-0.493103,7.8382263-1.4940796,10.3065491c-1.843811,4.5406494-5.3379211,6.8152466-10.4941101,6.8152466
	c-5.0957031,0-8.5635071-2.2473755-10.3995056-6.7253418c-1.003891-2.4056396-1.5096893-5.5796509-1.5096893-9.5212708v-19.9102173
	c0-2.3212891-0.2617035-3.8105774-0.8008118-4.4470215c-0.5233917-0.6693115-1.6649933-1.0904541-3.4550934-1.2851257v-1.1794434
	H256.9370422"/>
<path class="st0" d="M319.6159668,318.5991821c1.6905212,0.6620789,2.6377258,1.0047913,2.8399048,1.0047913
	c0.4179077,0,0.8114929-0.1620483,1.1855164-0.4935608c0.3778992-0.318634,0.9609985-0.7399597,1.1034851-1.5317993h1.0166016
	v14.0272217h-1.0166016c-0.594696-2.7790833-1.3623047-5.0238953-2.3164062-6.7269287
	c-1.813385-3.213501-4.2557983-4.822113-7.3260803-4.822113c-3.1026001,0-5.6387024,1.7290344-7.6152954,5.1860657
	c-1.960907,3.4533081-2.9375,8.2022095-2.9375,14.2577515c0,5.5712585,1.0263977,10.0238037,3.0966797,13.3502502
	c2.0703125,3.3116455,4.6953125,4.973053,7.8574219,4.973053c2.2948914,0,4.4091797-0.7751465,6.3417969-2.3217163
	c1.1161804-0.8686523,2.2411804-2.0780945,3.570282-3.8431702l0.9160156,1.0409546
	c-0.9754944,1.7502747-2.2011108,3.2819519-3.6629944,4.6035156c-2.4756165,2.2327576-5.1661072,3.3476868-8.0664062,3.3476868
	c-4.7588196,0-8.5254211-2.1401367-11.3330994-6.4251099c-2.5820007-3.9681702-3.8583069-8.9152527-3.8583069-14.8494873
	c0-6.0732117,1.3486023-11.1768494,4.0722046-15.2987061c2.8778992-4.3285217,6.6112976-6.4992676,11.2089844-6.4992676
	C316.2946777,317.5786133,317.9362793,317.9277649,319.6159668,318.5991821"/>
<path class="st0" d="M379.4512634,317.095459v11.1846008h-1.1260071c-0.5508118-3.507782-1.2626953-5.7870789-2.1141968-6.8466797
	c-0.8467102-1.0643921-2.6309204-1.6094055-5.3536072-1.6094055h-2.6191101v33.6875
	c0,2.5538025,0.2842102,4.1347961,0.8496094,4.7608032c0.5722961,0.5986023,1.8075867,0.9882812,3.718811,1.1854858v1.1934204
	h-13.7109985v-1.1934204c1.9931946-0.2088928,3.2284851-0.6678772,3.7167969-1.3876953
	c0.4960938-0.6981812,0.7421875-2.4725952,0.7421875-5.3260803v-32.9200134h-2.6210938
	c-2.601593,0-4.375,0.5274048-5.3301086,1.5772095c-0.9345093,1.0546875-1.6366882,3.3495789-2.1152039,6.8788757h-1.1464844
	V317.095459"/>
<path class="st0" d="M409.9421997,347.0959473c0.0683594,0.4700012,0.342804,5.1055908,1.4404297,6.7987061
	c1.9208984,2.9491882,4.311554,4.4142761,7.1767273,4.4142761c1.5420227,0,2.8780212-0.6322021,3.9981079-1.9134521
	c1.1416016-1.2766418,1.7021179-3.0551453,1.7021179-5.342926c0-2.0524597-0.5605164-3.8458557-1.7021179-5.3645325
	c-0.7421875-0.9755249-2.3007812-2.4200439-4.6953125-4.3514709l-4.1347961-3.3749084
	c-1.2509766-1.0281372-2.2451172-2.0674438-2.9931335-3.1217041c-1.3662109-1.9999084-2.0527649-4.1835632-2.0527649-6.599884
	c0-3.1846008,0.811554-5.842865,2.4326477-7.9675293c1.6367188-2.1199036,3.7880554-3.177063,6.4697266-3.177063
	c1.101532,0,2.4355469,0.3592529,3.96875,1.0778198c1.5751953,0.6950378,2.4579773,1.0599365,2.6854858,1.0599365
	c0.5957031,0,1.0039062-0.196991,1.2344055-0.5656433c0.2304993-0.3685608,0.4179993-0.8957825,0.5429993-1.572113h0.9941101
	v13.5186462h-0.9941101c-0.7910156-4.0512085-1.1690063-6.9449768-2.9151001-8.5443726
	c-1.7402039-1.6077271-3.4491882-2.4050598-5.1611023-2.4050598c-1.3222351,0-2.4814148,0.5009155-3.4862976,1.5309143
	c-0.9785461,1.012085-1.4560852,2.4256897-1.4560852,4.2341614c0,1.6302185,0.3681946,3.0166321,1.1298828,4.166687
	c0.7597656,1.1827698,1.9336243,2.3993835,3.5322266,3.6712952l4.2597656,3.4266052
	c2.6650085,2.1377258,4.5420227,4.1094055,5.6397095,5.8973389c1.0604858,1.8094177,1.6034851,3.9564819,1.6034851,6.4187927
	c0,3.3233337-0.9667969,6.0877075-2.8876953,8.3014526c-1.9111938,2.2277222-4.3554993,3.3392639-7.3349915,3.3392639
	c-1.5048828,0-3.0761719-0.3686523-4.7128906-1.1115417c-1.6308594-0.733551-2.5575867-1.1049805-2.7939148-1.1049805
	c-0.5713196,0-0.960968,0.2223511-1.1640625,0.6706543c-0.186554,0.4699707-0.3262024,0.9380493-0.3691406,1.4558411h-1.0742493
	l0.0039062-13.46521H409.9421997"/>
<path class="st0" d="M69.5350723,281.5723877c0,0-2.7188034-5.9189148-16.5938034-5.9189148
	c-13.8759003,0-17.9325981,9.2949219-17.9325981,13.1777039c0,3.8702087,2.5458984,13.1729126,18.3320007,13.1729126
	c14.9892998,0,18.0694008-9.1260071,18.0694008-9.1260071v-6.0957031H53.3406715v6.0957031h5.4053001
	c0,0-0.805603,2.4042969-4.5996017,2.4042969c0,0-6.8251991-0.2245789-6.8251991-5.781189
	c0-2.1083984,1.0195007-6.4913025,7.1366997-6.4913025c2.7392998,0,4.5429993,1.2587891,5.2450981,1.8897095L69.5350723,281.5723877
	"/>
<polyline class="st0" points="87.9168701,283.1534729 98.1463699,283.1534729 98.1463699,276.5050964 75.7459717,276.5050964 
	75.7459717,301.9483948 98.8006668,301.9483948 98.8006668,295.303894 87.9168701,295.303894 87.9168701,292.3106995 
	97.5028687,292.3106995 97.5028687,285.6632996 87.9168701,285.6632996 87.9168701,283.1534729 "/>
<polyline class="st0" points="138.6551666,301.827301 143.8279724,276.389801 156.4549713,276.389801 161.1424713,289.1427917 
	165.7479706,276.389801 178.0662689,276.389801 183.7098694,301.9884949 172.3465729,301.9884949 170.192276,288.3536987 
	164.3201752,301.7520752 157.8006744,301.7520752 152.2362671,288.3536987 150.2752686,301.8674011 138.6551666,301.827301 "/>
<polyline class="st0" points="226.8240662,301.8731995 226.8240662,276.5860901 238.782074,276.5860901 249.3738708,290.4454956 
	249.3738708,276.5860901 260.1053772,276.5860901 260.1053772,301.9483948 249.2274628,301.9483948 238.3485718,288.2921753 
	238.3485718,301.8731995 226.8240662,301.8731995 "/>
<path class="st0" d="M104.8846664,301.9483948v-25.3027039h18.3379059c0,0,10.0868912-0.4776001,10.0868912,8.2969055
	c0,6.0087891-5.8681946,7.2987976-5.8681946,7.2987976l8.3125,9.6318054h-13.1092987l-4.506897-7.7207031h-1.7246017v7.7958984
	H104.8846664 M116.2684708,287.4307861h3.6708984c0,0,2.0566025,0.1435852,2.0566025-2.0487976
	c0-2.3778992-1.8672028-2.1631165-1.8672028-2.1631165h-3.8602982V287.4307861z"/>
<path class="st0" d="M197.758667,276.499176h13.1690063l12.8377991,25.3838196h-12.4598999l-1.9522095-3.5361023h-9.2001953
	l-1.871994,3.6893921h-11.6757965L197.758667,276.499176 M204.7664642,284.3165894l-2.5370941,8.594696h5.0713043
	L204.7664642,284.3165894z"/>
<polyline class="st0" points="284.6687622,276.59198 296.3464661,276.59198 296.3464661,293.514801 306.4451599,293.514801 
	306.4451599,301.9425964 284.6687622,301.9425964 284.6687622,276.59198 "/>
<polyline class="st0" points="310.8367615,276.6799011 322.3416748,276.6799011 322.3416748,301.9425964 310.7488708,301.9425964 
	310.8367615,276.6799011 "/>
<path class="st0" d="M345.4480591,286.9630737h18.1094055v6.0244141c0,0-4.0644836,9.1260071-18.3671875,9.1260071
	c-14.3153992,0-17.7520142-7.6329041-17.7520142-13.155304c0,0-0.4354858-13.0742188,18.2784119-13.0742188
	c12.3104858,0,16.1582031,5.7910156,16.1582031,5.7910156l-9.4698181,3.6044922c0,0-2.5594788-2.1103821-6.2450867-2.1103821
	c-3.6708984,0-6.8564148,1.944397-6.8564148,6.8427734c0,4.9082031,6.6816101,5.2666016,6.6816101,5.2666016
	s4.3876953-0.2919922,4.3876953-2.2909851h-4.9481812L345.4480591,286.9630737"/>
<polyline class="st0" points="368.6189575,276.6358948 379.415863,276.6358948 379.415863,284.865387 387.2078552,284.865387 
	387.2078552,276.7237854 398.7146606,276.7237854 398.7146606,301.8674011 387.2996826,301.8674011 387.2996826,292.8165894 
	379.5076599,292.8165894 379.5076599,302.0362854 368.6189575,302.0362854 368.6189575,276.6358948 "/>
<polyline class="st0" points="403.6902466,276.365387 403.6902466,284.4102783 410.313324,284.4102783 410.313324,301.9483948 
	422.5476685,301.9483948 422.5476685,284.4102783 429.1619568,284.4102783 429.1619568,276.365387 403.6902466,276.365387 "/>
<path class="st0" d="M185.1307678,100.9058838c3.1717987,1.8213043,4.9891968,2.7285995,5.460907,2.7285995
	c1.2128906,0,2.0762024-0.4555969,2.5614929-1.4122009c0.5225067-0.9325943,0.9638977-2.2889938,1.3321075-4.0511932h1.8592987
	l-0.1367035,38.0463638h-1.9452972c-1.7344055-8.2529678-2.7324066-16.6591644-4.5781097-20.7006683
	c-3.344696-7.0834961-7.6884918-10.6314011-13.0380859-10.6314011c-5.4375,0-10.2197113,4.1524048-14.3584137,12.4434052
	c-4.1132965,8.2528992-6.1689911,21.8642502-6.1689911,40.8467026c0,15.661087,2.0556946,27.8837891,6.1689911,36.6859894
	c4.1084137,8.796402,9.1914062,13.1894989,15.2275085,13.1894989c1.0166016,0,2.2216949-0.1928864,3.601593-0.5829926
	c1.3760071-0.3838043,2.6885071-0.9882965,3.933609-1.8213043c2.0087891-1.3246918,3.2655945-2.4662933,3.7626953-3.4008942
	c0.4989929-1.0044098,0.7440948-2.4263,0.7440948-4.319809v-27.1420898c0-6.5230103-0.473587-10.5982056-1.4042969-12.1968079
	c-0.9149933-1.608902-2.9237976-2.601593-6.0458984-2.9911957v-3.1582031h21.6054993v3.1582031
	c-2.0957031,0.280304-3.4882965,0.9824066-4.1757965,2.0742035c-1.1660004,1.7680969-1.7402039,5.425293-1.7402039,10.9561005
	v33.450592c0,1.9985962-2.4403992,4.6455078-7.3242035,7.972702c-4.8574982,3.3173981-9.5361938,4.9799957-14.0370941,4.9799957
	c-8.2734985,0-15.2539978-4.8427887-20.9375-14.5298004c-6.2588043-10.6796875-9.3907013-25.0043945-9.3907013-42.9888
	c0-15.8300476,2.4902954-29.3871918,7.4893036-40.6713943c5.4931946-12.453598,12.7763977-18.668396,21.8524933-18.668396
	C178.7342682,98.1710892,181.9578705,99.0758896,185.1307678,100.9058838"/>
<path class="st0" d="M278.7762756,208.8800812c3.3046875-0.6103973,5.3573914-1.8833008,6.1766968-3.8282013
	c0.8173828-1.980896,1.2284851-6.4891968,1.2284851-13.5233917v-73.6172028c0-5.9144974-0.4647827-9.8182983-1.3993835-11.7015991
	c-0.907196-1.8833008-2.9042969-3.0644989-6.0057983-3.5699005v-3.1518021h22.8301086
	c7.3309937,0,12.9305725,2.7959061,16.829071,8.3745041c3.8818054,5.5903015,5.8330078,12.9584961,5.8330078,22.0849457
	c0,11.5683594-2.1542969,19.9428558-6.4736938,25.1474457c-4.305603,5.2065125-9.7030945,7.8037109-16.188385,7.8037109
	c-0.9229126,0-3.8379211,0.0596008-6.8038025-0.0180054v30.6464081c0,6.4194946,0.4960938,10.4545898,1.4824829,12.1074982
	c1.0097046,1.6644897,3.2568054,2.5925598,6.7177124,3.0877533v3.2325439h-24.2265015V208.8800812 M307.9920654,108.950386
	c-2.4541016-2.1044998-5.5507812-3.1464996-9.3007812-3.1641006c-1.7744141,0-2.8721008,0.3676987-3.3017273,1.0938034
	c-0.3994751,0.652298-0.5869751,2.1795959-0.5869751,4.5560989v44.5375977
	c1.6651001,0.1533051,4.2285767,0.1313934,4.6796875,0.1313934c3.9736938,0,6.8633118-0.8730927,9.1484985-3.0844879
	c4.1445007-4.0371246,6.2207031-11.586441,6.2207031-22.655777
	C314.8514709,119.9596863,312.5662842,112.8263855,307.9920654,108.950386z"/>
<path class="st0" d="M210.3592682,225.4781799c3.8740082-1.1474915,6.3838043-3.0844879,7.5214996-5.781189
	c1.1611023-2.7842102,1.746109-9.7749023,1.746109-20.9473114V67.1627884c0-10.4986038-0.5606079-17.3360023-1.6983032-20.5078011
	c-1.1338043-3.2793007-3.655304-5.2998009-7.5693054-6.0796013v-5.4849014h29.8115082v5.4849014
	c-3.8778992,0.5830002-6.4912109,2.3608017-7.8281097,5.3540001c-1.3047028,2.9868011-1.9550934,9.3847008-1.9550934,19.2069969
	v142.1445007c0,3.2734985,0.1894989,5.8769989,0.5692902,7.7920074c0.4073029,1.8398895,1.2842102,2.9990997,2.6231079,3.4701996
	c0.7890015,0.2924957,1.6152039,0.4892883,2.4658051,0.5830994c0.8954926,0.0932007,2.5497894,0.1429901,4.9462891,0.1429901
	c9.3672028,0,15.6972961-2.1693878,18.9980164-6.5009918c3.2939758-4.3334045,4.6777954-26.9555054,5.2822876-39.305603h2.6748047
	v57.3652039h-57.5879059V225.4781799"/>
<polyline class="st0" points="35.0086708,142.0301361 140.2342682,142.0301361 140.2342682,146.565567 35.0086708,146.565567 
	35.0086708,142.0301361 "/>
<polyline class="st0" points="163.228363,142.0868683 211.9305725,142.0868683 211.9305725,146.5106354 163.228363,146.5106354 
	163.228363,142.0868683 "/>
<polyline class="st0" points="236.6023712,141.9752045 278.3797607,141.9752045 278.3797607,146.3896637 236.6023712,146.3896637 
	236.6023712,141.9752045 "/>
<polyline class="st0" points="328.5496826,142.0868683 429.1619568,142.0868683 429.1619568,146.5106354 328.5496826,146.5106354 
	328.5496826,142.0868683 "/>
<path d="M4.5369701,391.1228638"/>
<path d="M459.6311646,0H0.0015259v0.0078735H0v395.6582642h4.5354614v-0.0078735h455.0957031h4.4824829h0.0529175V4.5354614V0
	H459.6311646z M459.6311646,391.1228638H4.5354614V4.5354614h455.0957031V391.1228638z"/>
</svg>
