<?xml version="1.0" encoding="utf-8"?>
<!-- Generator: Adobe Illustrator 22.0.1, SVG Export Plug-In . SVG Version: 6.00 Build 0)  -->
<svg version="1.1" id="Layer_2" xmlns="http://www.w3.org/2000/svg" xmlns:xlink="http://www.w3.org/1999/xlink" x="0px" y="0px"
	 width="385.2178345px" height="160.6633453px" viewBox="0 0 385.2178345 160.6633453"
	 style="enable-background:new 0 0 385.2178345 160.6633453;" xml:space="preserve">
<style type="text/css">
	.st0{fill:#000000;}
	.st1{fill:#000000;}
</style>
<g>
	<rect x="123.9999237" y="123.8679276" class="st0" width="8.6546383" height="8.6554508"/>
	<path class="st0" d="M144.8293304,106.1831055c7.0488129,0.123558,11.2542114,4.8235779,11.8719788,13.4172516l2.2886505-0.3722992
		l-0.4369202-15.0852585h-34.12677l-0.4308167,15.0852585l2.2866058,0.3722992
		c0.6177826-8.5936737,4.762207-13.2936935,11.8719788-13.4172516v31.5930481c0,5.7486267-0.9896698,6.6785431-7.1727753,6.7386932
		v2.4109802h21.0208435v-2.4109802c-6.1831055-0.0601501-7.1727753-0.9900665-7.1727753-6.7386932V106.1831055z"/>
	<rect x="150.262558" y="123.8679276" class="st0" width="8.6521997" height="8.6554508"/>
	<rect x="176.2220154" y="123.8679276" class="st0" width="8.6587019" height="8.6554508"/>
	<rect x="202.1838837" y="123.8679276" class="st0" width="8.6566706" height="8.6554508"/>
	<path class="st0" d="M234.7036133,146.925827l10.9412384-37.4636002v29.430809c0,3.2140961-0.1828918,4.386261-0.920578,5.1308441
		c-0.563324,0.5543823-1.859848,0.9234161-3.278717,0.9234161h-0.5588379v1.9785309h15.4555054v-1.9785309h-0.8006592
		c-1.4229431,0-2.723938-0.3690338-3.278717-0.9234161c-0.741745-0.7445831-0.9287109-1.916748-0.9287109-5.1308441v-25.1664886
		c0-3.2157135,0.1869659-4.3895035,0.9287109-5.1308365c0.6157379-0.5576324,1.8557739-0.928299,3.278717-0.928299h0.8006592
		v-1.9801559h-11.9938965l-9.0269318,30.360733l-8.8395691-30.360733h-11.9309235v1.9801559h1.1095734
		c3.278717,0,3.8944702,0.741333,3.8944702,4.883728v23.9276657c0,3.8335114-0.1828918,5.3161774-0.7401276,6.4964752
		c-0.6177826,1.1705322-1.9143066,1.9720154-3.2762756,1.9720154h-0.9876404v1.9785309h12.7340393v-1.9785309h-0.8031158
		c-1.6074524,0-2.9064178-0.6763-3.6506042-1.9118652c-0.741745-1.240448-0.9246368-2.3508301-0.9246368-6.5566254v-27.0165787
		l10.882309,37.4636002H234.7036133z"/>
	<path class="st0" d="M269.3762207,119.6003571c2.2321472,0,4.142395,1.3607483,5.1950684,3.708313
		c0.9920959,2.1654892,1.4229126,5.1340942,1.4229126,9.3984222c0,8.779007-2.1646729,13.1083527-6.5549927,13.1083527
		c-4.3882751,0-6.4899597-4.3293457-6.4899597-13.2302856c0-4.142395,0.4308167-7.0508423,1.4249573-9.2764893
		C265.3557434,121.0830307,267.3375244,119.6003571,269.3762207,119.6003571 M269.6261597,117.6218262
		c-7.6645508,0-12.677124,5.935585-12.677124,15.1470337c0,8.9659729,5.0125732,15.025116,12.4901733,15.025116
		c7.5450745,0,12.5511475-6.0591431,12.5511475-15.0868835
		C281.9903564,123.7427444,276.9842834,117.6218262,269.6261597,117.6218262"/>
	<path class="st0" d="M298.6842957,120.0328064c3.9550171,0,5.9936829,4.2025375,5.9936829,12.365387
		c0,8.5335236-2.0975952,12.9864349-6.1180725,12.9864349c-4.4573669,0-6.8029175-4.5146942-6.8029175-12.799469
		c0-4.0806122,0.5568237-6.987442,1.8537598-9.1529312C294.7853394,121.3333969,296.7651062,120.0328064,298.6842957,120.0328064
		 M292.250824,105.2548065l-8.7765808,0.4340744v1.916748h0.4308167c2.5959167,0,3.1506958,0.8632736,3.1506958,4.9471359v28.257019
		c0,3.5831451-0.1219177,4.5748444-0.6137085,6.1160431h2.0386658c1.5424194-2.4694977,1.9163513-2.9035797,2.5300598-2.9035797
		c0.3153992,0,0.6202393,0.121933,1.0551147,0.4942322c3.0307922,2.4743805,4.3273315,3.0287628,7.1101685,3.0287628
		c6.6769409,0,11.4960327-6.4298096,11.4960327-15.3925323c0-8.5335159-4.4472046-14.2805176-11.1265564-14.2805176
		c-3.459198,0-5.9977722,1.6046066-7.2947083,4.6333618V105.2548065z"/>
	<path class="st0" d="M319.145874,105.3799896c-1.9122925,0-3.4591675,1.4826736-3.4591675,3.3978043
		c0,1.858223,1.546875,3.4026718,3.3981934,3.4026718c1.9191895,0,3.4006653-1.4810486,3.4006653-3.4026718
		C322.4855652,106.9260712,321.0040894,105.3799896,319.145874,105.3799896 M322.113678,118.0542755l-9.0224915,0.4324493v1.915123
		h0.678772c2.5999451,0,3.1547546,0.8681488,3.1547546,4.9471359v14.6528168c0,4.0822296-0.5548096,5.0105286-3.1547546,5.0105286
		h-0.9916992v1.9134979h13.4777832v-1.9134979h-0.9855957c-2.5979309,0-3.1567688-0.8681488-3.1567688-5.0105286V118.0542755z"/>
	<path class="st0" d="M337.7525024,105.2548065l-9.026947,0.4340744v1.916748h0.677124
		c2.5995483,0,3.1543579,0.8632736,3.1543579,4.9471359v27.4490356c0,4.1423798-0.5548096,5.0105286-3.1543579,5.0105286h-0.9900818
		v1.9134979h13.4822693v-1.9134979h-0.9900513c-2.59552,0-3.1523132-0.8681488-3.1523132-5.0105286V105.2548065z"/>
	<path class="st0" d="M349.6203918,130.3595123c0.0634155-6.4899597,2.2260742-10.573822,5.6913452-10.573822
		c3.4616089,0,5.5023193,3.9570541,5.4393005,10.573822H349.6203918z M366.5053711,132.5233765
		c-0.3153992-9.1496735-4.762207-14.9015503-11.5045776-14.9015503c-6.4919739,0-11.1891479,6.2477264-11.1891479,14.9015503
		c0,9.3333893,4.6341553,15.2705994,11.8069458,15.2705994c4.640686,0,7.8539429-2.4093475,10.5128479-7.7921753
		l-1.8578186-0.9852142c-2.1626282,4.5732269-4.3256836,6.368042-7.6649475,6.368042
		c-4.8841553,0-6.9882812-3.8367615-7.0488281-12.8612518H366.5053711z"/>
	<rect x="373.8703918" y="123.8484192" class="st0" width="8.6546383" height="8.6538248"/>
	<path class="st0" d="M95.0869141,139.6831512l6.7208176-16.5923233c0.1129837-0.2649994,0.1979294-0.5121155,0.2540207-0.7380905
		c0.0564957-0.2276001,0.0841293-0.4356995,0.083725-0.6259079c-0.0012207-0.4909744-0.2101288-0.8600235-0.6267242-1.1055069
		c-0.4174118-0.2438583-1.004303-0.3836746-1.7610855-0.4210663l-1.4765778-0.112175l-0.0032501-1.588356
		c0.908783,0.0373917,1.8074188,0.0715332,2.6971054,0.1072998c0.8888702,0.0373917,1.7887192,0.0520248,2.6971054,0.0520248
		c0.9083786-0.0032501,1.8070068-0.0227585,2.6971054-0.0634003c0.8888702-0.0406494,1.7883148-0.0780411,2.6962891-0.1203079
		l0.0032578,1.5899734l-1.5895691,0.1170578c-0.6811905,0.0406418-1.3806686,0.572258-2.0972137,1.5948486
		c-0.7173538,1.0225983-1.6029816,2.7865219-2.656868,5.2852936l-11.4687958,26.5971375
		c-0.9039154,2.046814-1.9699936,3.7229462-3.1970215,5.0316772c-1.2274323,1.3087158-3.033226,1.9655151-5.4177856,1.9720154
		c-0.4921951,0-1.013649-0.0942841-1.5619278-0.28125c-0.5499115-0.1885834-0.975853-0.3771667-1.2790527-0.5657501
		l1.3538361-4.2610779l0.7380829-0.0016327c0.3414078,0.3397827,0.7962112,0.6405487,1.3648148,0.9071655
		c0.5677872,0.2617493,1.0412827,0.3934326,1.4200821,0.3918152h0.1133957
		c1.6265564-0.1170654,2.930809-1.0648651,3.9119415-2.8466797c0.9795074-1.7801819,1.7330399-3.3165131,2.2605972-4.602478
		l1.2981491-3.4677124l-9.4171066-22.9180756c-0.4564285-1.0567398-0.9124451-1.7769394-1.3672485-2.1541138
		c-0.4552078-0.3771667-0.9860153-0.5836411-1.5911942-0.6210327l-1.0221863-0.112175l-0.0036621-1.5899734
		c1.0981903,0.0373917,2.1955643,0.0715332,3.2937546,0.1072998c1.097374,0.0357666,2.1943436,0.0520172,3.2929459,0.0487671
		c1.097374-0.0016251,2.1947479-0.0211334,3.2929382-0.0634003c1.097374-0.0390167,2.1947479-0.0780411,3.2929382-0.1203079
		l0.0032501,1.5899734l-2.1573563,0.1170578c-0.5303955,0.0406418-0.9742279,0.1560669-1.333107,0.3446579
		c-0.3601074,0.1918335-0.5385284,0.5690079-0.5373077,1.1363907c0.0008087,0.2649994,0.0390167,0.5787659,0.1158295,0.9364319
		c0.076004,0.3609085,0.2093201,0.7868576,0.4003448,1.277832L95.0869141,139.6831512z"/>
	<path class="st0" d="M67.3192368,120.0328064c3.9554291,0,5.9937057,4.2025375,5.9937057,12.365387
		c0,8.5335236-2.0972061,12.9864349-6.1176682,12.9864349c-4.4577866,0-6.8033257-4.5146942-6.8033257-12.799469
		c0-4.0806122,0.5572243-6.987442,1.8537521-9.1529312C63.4207077,121.3333969,65.4004517,120.0328064,67.3192368,120.0328064
		 M60.8861732,105.2548065l-8.7765656,0.4340744v1.916748h0.4308205c2.5954971,0,3.15028,0.8632736,3.15028,4.9471359v28.257019
		c0,3.5831451-0.1219292,4.5748444-0.6137161,6.1160431h2.038681c1.5424232-2.4694977,1.916748-2.9035797,2.530468-2.9035797
		c0.3149872,0,5.382019,3.522995,8.1648788,3.522995c6.6769257,0,11.4960327-6.4298096,11.4960327-15.3925323
		c0-8.5335159-4.4472198-14.2805176-11.1261749-14.2805176c-3.4595795,0-5.9981728,1.6046066-7.2947044,4.6333618V105.2548065z"/>
</g>
<g>
	<path class="st1" d="M1.6230273,82.5709305c-4.9410467,18.4341812-0.3963969,48.7551346,39.150528,53.5111923v-23.0564804
		C15.6218357,110.9326096,4.6427817,101.5952454,1.6230273,82.5709305z"/>
	<path class="st1" d="M151.7297516,63.1494446c0.4141235,9.7898788,6.0669098,16.2706757,15.9953918,16.2706757
		c5.6520538,0,11.1679382-2.6192093,13.3735046-7.859581h21.9232178
		c-4.2744904,16.5454483-19.5790253,23.7151413-35.5727234,23.7151413c-23.3024902,0-39.1590271-14.0636292-39.1590271-38.0555115
		c0-21.9232101,17.5115814-37.6413879,38.6062927-37.6413879c25.6459351,0,38.4698792,19.3030243,37.3666077,43.5706635H151.7297516
		z M180.8233795,50.0504723c-0.4141235-7.9969635-6.0669098-14.616127-13.9269714-14.616127
		c-8.2717438,0-13.787384,5.9292793-15.1666565,14.616127H180.8233795z"/>
	<path class="st1" d="M251.5556641,36.8141136h-14.4772644v32.5393867c0,5.6544952,3.3093414,6.8939362,8.4103546,6.8939362
		c1.9303131,0,3.9987335-0.2747803,6.0669098-0.2747803v17.2343521c-4.2744751,0.1393509-8.5484772,0.689888-12.8229675,0.689888
		c-19.9924164,0-25.0949097-5.7909088-25.0949097-25.2322998V36.8141136h-11.8570709V21.6474533h11.8570709V0h23.4406128v21.6474533
		h14.4772644V36.8141136z"/>
	<path class="st1" d="M258.2557983,21.6474533h22.7504883v12.5464745h0.276001
		c3.4467163-9.0990162,11.4439392-13.9262428,21.5093079-13.9262428c1.79245,0,3.7234802,0.1373882,5.5151672,0.5515137v21.3726768
		c-3.0328369-0.8282509-5.7901611-1.378788-8.9623718-1.378788c-11.5813293,0-17.6482239,7.9959869-17.6482239,16.9585953
		v35.4363098h-23.4403687V21.6474533z"/>
	<path class="st1" d="M344.7452698,19.5787811c22.1984558,0,37.7797546,16.4090424,37.7797546,37.9171448
		c0,21.5100632-15.5812988,37.7797546-37.7797546,37.7797546c-22.1987305,0-37.6418762-16.2696915-37.6418762-37.7797546
		C307.1033936,35.9878235,322.5465393,19.5787811,344.7452698,19.5787811 M344.7452698,77.3514481
		c10.8926697,0,14.3401184-10.7545471,14.3401184-19.8555222c0-9.0999985-3.4474487-19.9929085-14.3401184-19.9929085
		c-10.8929138,0-14.20224,10.89291-14.20224,19.9929085C330.5430298,66.5969009,333.852356,77.3514481,344.7452698,77.3514481"/>
	<path class="st1" d="M97.9432983,19.7436466c-9.6522522,0-16.6835785,3.9979935-22.3373413,11.5818157
		c-3.8598709-8.6858711-11.8570786-11.5818157-20.8194427-11.5818157c-8.6863632,0-16.2704277,4.6878777-20.5451584,11.8585529
		h-0.2752686v-9.7898808H11.2148685v47.0505066c0,12.6387253,9.4763412,20.1028214,23.4398746,21.7583466V58.4880638
		c0-14.6141663,3.5853386-19.4404106,11.995697-19.4404106c6.3429146,0,8.8244858,5.2403717,8.8244858,13.650486v40.6757011
		h23.440609V58.3516579c0-11.5827942,0.9644165-19.3040047,11.0305481-19.3040047
		c6.0669098,0,9.7896347,4.5495071,9.7896347,12.271698v42.0544891h23.4403687V50.629467
		C123.1760864,36.978981,120.6940231,19.7436466,97.9432983,19.7436466"/>
	<polygon class="st1" points="372.944397,21.2431393 378.1087341,21.2431393 378.1087341,21.7720833 375.8369141,21.7720833 
		375.8369141,27.7572975 375.2164612,27.7572975 375.2164612,21.7720833 372.944397,21.7720833 	"/>
	<polygon class="st1" points="378.8947754,21.2431393 379.8071899,21.2431393 382.0608521,26.9545574 384.3054199,21.2431393 
		385.2178345,21.2431393 385.2178345,27.7572975 384.5973816,27.7572975 384.5973816,22.1273308 384.5792236,22.1273308 
		382.3527832,27.7572975 381.7688904,27.7572975 379.5336304,22.1273308 379.5152283,22.1273308 379.5152283,27.7572975 
		378.8947754,27.7572975 	"/>
</g>
<g>
</g>
<g>
</g>
<g>
</g>
<g>
</g>
<g>
</g>
<g>
</g>
</svg>
